<svg width="351" height="211" viewBox="0 0 351 211" fill="none" xmlns="http://www.w3.org/2000/svg">
<g filter="url(#filter0_d)">
<path d="M4 7.00001C4 4.79087 5.79086 3 8 3H343C345.209 3 347 4.79086 347 7V202C347 204.209 345.209 206 343 206H8.00001C5.79087 206 4 204.209 4 202V7.00001Z" fill="white"/>
</g>
<path d="M32.397 33.14L30.615 28.406C30.471 28.04 30.324 27.575 30.174 27.011C30.108 27.293 30.036 27.554 29.958 27.794C29.88 28.028 29.808 28.235 29.742 28.415L27.96 33.14H32.397ZM36.384 38H34.755C34.569 38 34.419 37.955 34.305 37.865C34.191 37.769 34.104 37.652 34.044 37.514L32.964 34.652H27.384L26.304 37.514C26.256 37.634 26.172 37.745 26.052 37.847C25.932 37.949 25.782 38 25.602 38H23.973L29.112 25.04H31.245L36.384 38ZM39.4723 24.68V38H37.5373V24.68H39.4723ZM43.7956 35.696C44.0656 36.044 44.3596 36.29 44.6776 36.434C45.0016 36.572 45.3586 36.641 45.7486 36.641C46.5046 36.641 47.0926 36.365 47.5126 35.813C47.9386 35.261 48.1516 34.439 48.1516 33.347C48.1516 32.783 48.1036 32.303 48.0076 31.907C47.9116 31.505 47.7736 31.178 47.5936 30.926C47.4136 30.674 47.1946 30.491 46.9366 30.377C46.6786 30.263 46.3876 30.206 46.0636 30.206C45.5716 30.206 45.1456 30.314 44.7856 30.53C44.4316 30.74 44.1016 31.043 43.7956 31.439V35.696ZM43.6966 30.152C44.0806 29.702 44.5156 29.339 45.0016 29.063C45.4936 28.787 46.0636 28.649 46.7116 28.649C47.2276 28.649 47.6956 28.754 48.1156 28.964C48.5356 29.168 48.8956 29.468 49.1956 29.864C49.4956 30.26 49.7266 30.752 49.8886 31.34C50.0566 31.922 50.1406 32.591 50.1406 33.347C50.1406 34.025 50.0476 34.658 49.8616 35.246C49.6816 35.828 49.4206 36.335 49.0786 36.767C48.7366 37.193 48.3226 37.529 47.8366 37.775C47.3506 38.015 46.8016 38.135 46.1896 38.135C45.6496 38.135 45.1906 38.048 44.8126 37.874C44.4406 37.7 44.1016 37.46 43.7956 37.154V41.051H41.8606V28.82H43.0306C43.2946 28.82 43.4626 28.943 43.5346 29.189L43.6966 30.152ZM53.9558 29.909C54.3338 29.537 54.7478 29.24 55.1978 29.018C55.6478 28.79 56.1728 28.676 56.7728 28.676C57.2768 28.676 57.7178 28.76 58.0958 28.928C58.4798 29.096 58.8008 29.333 59.0588 29.639C59.3228 29.945 59.5208 30.314 59.6528 30.746C59.7848 31.172 59.8508 31.643 59.8508 32.159V38H57.9248V32.159C57.9248 31.541 57.7808 31.061 57.4928 30.719C57.2108 30.377 56.7788 30.206 56.1968 30.206C55.7648 30.206 55.3628 30.305 54.9908 30.503C54.6248 30.701 54.2798 30.971 53.9558 31.313V38H52.0208V24.68H53.9558V29.909ZM67.0156 33.986C66.3256 34.01 65.7436 34.067 65.2696 34.157C64.7956 34.241 64.4116 34.352 64.1176 34.49C63.8236 34.622 63.6106 34.781 63.4786 34.967C63.3526 35.153 63.2896 35.357 63.2896 35.579C63.2896 35.795 63.3226 35.981 63.3886 36.137C63.4606 36.287 63.5566 36.413 63.6766 36.515C63.8026 36.611 63.9466 36.683 64.1086 36.731C64.2766 36.773 64.4596 36.794 64.6576 36.794C65.1616 36.794 65.5936 36.701 65.9536 36.515C66.3196 36.323 66.6736 36.047 67.0156 35.687V33.986ZM61.8856 30.098C62.9236 29.132 64.1596 28.649 65.5936 28.649C66.1216 28.649 66.5896 28.736 66.9976 28.91C67.4116 29.078 67.7566 29.318 68.0326 29.63C68.3146 29.942 68.5276 30.314 68.6716 30.746C68.8216 31.172 68.8966 31.646 68.8966 32.168V38H68.0326C67.8466 38 67.7056 37.973 67.6096 37.919C67.5136 37.859 67.4326 37.742 67.3666 37.568L67.1776 36.821C66.9436 37.031 66.7126 37.22 66.4846 37.388C66.2566 37.55 66.0196 37.688 65.7736 37.802C65.5336 37.916 65.2726 38 64.9906 38.054C64.7146 38.114 64.4086 38.144 64.0726 38.144C63.7006 38.144 63.3526 38.093 63.0286 37.991C62.7106 37.889 62.4346 37.736 62.2006 37.532C61.9666 37.322 61.7806 37.064 61.6426 36.758C61.5106 36.452 61.4446 36.092 61.4446 35.678C61.4446 35.324 61.5376 34.979 61.7236 34.643C61.9156 34.307 62.2276 34.007 62.6596 33.743C63.0976 33.473 63.6706 33.251 64.3786 33.077C65.0926 32.903 65.9716 32.804 67.0156 32.78V32.168C67.0156 31.508 66.8746 31.016 66.5926 30.692C66.3106 30.368 65.8966 30.206 65.3506 30.206C64.9786 30.206 64.6666 30.254 64.4146 30.35C64.1626 30.44 63.9436 30.539 63.7576 30.647C63.5716 30.755 63.4066 30.857 63.2626 30.953C63.1186 31.043 62.9656 31.088 62.8036 31.088C62.6716 31.088 62.5576 31.055 62.4616 30.989C62.3716 30.917 62.2966 30.83 62.2366 30.728L61.8856 30.098ZM83.7098 36.533V38H76.6448V36.533H79.3448V28.415C79.3448 28.127 79.3538 27.833 79.3718 27.533L77.2928 29.288C77.2028 29.36 77.1098 29.408 77.0138 29.432C76.9238 29.45 76.8368 29.45 76.7528 29.432C76.6748 29.414 76.6028 29.387 76.5368 29.351C76.4768 29.309 76.4288 29.264 76.3928 29.216L75.7898 28.37L79.6958 25.013H81.2708V36.533H83.7098ZM85.7902 36.884C85.7902 36.71 85.8202 36.548 85.8802 36.398C85.9462 36.242 86.0332 36.107 86.1412 35.993C86.2552 35.879 86.3872 35.789 86.5372 35.723C86.6932 35.657 86.8582 35.624 87.0322 35.624C87.2062 35.624 87.3682 35.657 87.5182 35.723C87.6742 35.789 87.8092 35.879 87.9232 35.993C88.0372 36.107 88.1272 36.242 88.1932 36.398C88.2592 36.548 88.2922 36.71 88.2922 36.884C88.2922 37.064 88.2592 37.229 88.1932 37.379C88.1272 37.529 88.0372 37.661 87.9232 37.775C87.8092 37.889 87.6742 37.976 87.5182 38.036C87.3682 38.102 87.2062 38.135 87.0322 38.135C86.8582 38.135 86.6932 38.102 86.5372 38.036C86.3872 37.976 86.2552 37.889 86.1412 37.775C86.0332 37.661 85.9462 37.529 85.8802 37.379C85.8202 37.229 85.7902 37.064 85.7902 36.884ZM98.4051 36.533V38H91.3401V36.533H94.0401V28.415C94.0401 28.127 94.0491 27.833 94.0671 27.533L91.9881 29.288C91.8981 29.36 91.8051 29.408 91.7091 29.432C91.6191 29.45 91.5321 29.45 91.4481 29.432C91.3701 29.414 91.2981 29.387 91.2321 29.351C91.1721 29.309 91.1241 29.264 91.0881 29.216L90.4851 28.37L94.3911 25.013H95.9661V36.533H98.4051Z" fill="#0B0B14"/>
<path d="M24 121C24 112.163 31.1634 105 40 105H311C319.837 105 327 112.163 327 121C327 129.837 319.837 137 311 137H40C31.1635 137 24 129.837 24 121Z" fill="#E8E8E8"/>
<path d="M24 121C24 112.163 31.1634 105 40 105H153V137H40C31.1634 137 24 129.837 24 121Z" fill="#17B573"/>
<path d="M46.12 122.55V117.82C46.12 117.373 46.15 116.88 46.21 116.34L41.72 122.55H46.12ZM50.09 122.55V123.98C50.09 124.113 50.0467 124.23 49.96 124.33C49.8733 124.423 49.75 124.47 49.59 124.47H48.27V128H46.12V124.47H40.02C39.8533 124.47 39.7067 124.42 39.58 124.32C39.4533 124.213 39.3733 124.083 39.34 123.93L39.08 122.68L45.93 113.53H48.27V122.55H50.09ZM61.7016 120.77C61.7016 122.03 61.5649 123.127 61.2916 124.06C61.0249 124.987 60.6516 125.753 60.1716 126.36C59.6982 126.967 59.1349 127.42 58.4816 127.72C57.8349 128.013 57.1349 128.16 56.3816 128.16C55.6282 128.16 54.9282 128.013 54.2816 127.72C53.6416 127.42 53.0849 126.967 52.6116 126.36C52.1382 125.753 51.7682 124.987 51.5016 124.06C51.2349 123.127 51.1016 122.03 51.1016 120.77C51.1016 119.503 51.2349 118.407 51.5016 117.48C51.7682 116.553 52.1382 115.787 52.6116 115.18C53.0849 114.573 53.6416 114.123 54.2816 113.83C54.9282 113.53 55.6282 113.38 56.3816 113.38C57.1349 113.38 57.8349 113.53 58.4816 113.83C59.1349 114.123 59.6982 114.573 60.1716 115.18C60.6516 115.787 61.0249 116.553 61.2916 117.48C61.5649 118.407 61.7016 119.503 61.7016 120.77ZM59.1516 120.77C59.1516 119.723 59.0749 118.857 58.9216 118.17C58.7682 117.483 58.5616 116.937 58.3016 116.53C58.0482 116.123 57.7549 115.84 57.4216 115.68C57.0882 115.513 56.7416 115.43 56.3816 115.43C56.0282 115.43 55.6849 115.513 55.3516 115.68C55.0249 115.84 54.7349 116.123 54.4816 116.53C54.2282 116.937 54.0249 117.483 53.8716 118.17C53.7249 118.857 53.6516 119.723 53.6516 120.77C53.6516 121.817 53.7249 122.683 53.8716 123.37C54.0249 124.057 54.2282 124.603 54.4816 125.01C54.7349 125.417 55.0249 125.703 55.3516 125.87C55.6849 126.03 56.0282 126.11 56.3816 126.11C56.7416 126.11 57.0882 126.03 57.4216 125.87C57.7549 125.703 58.0482 125.417 58.3016 125.01C58.5616 124.603 58.7682 124.057 58.9216 123.37C59.0749 122.683 59.1516 121.817 59.1516 120.77ZM69.6531 117.04C69.6531 117.587 69.5598 118.08 69.3731 118.52C69.1931 118.96 68.9498 119.337 68.6431 119.65C68.3365 119.957 67.9798 120.193 67.5731 120.36C67.1665 120.527 66.7431 120.61 66.3031 120.61C65.8231 120.61 65.3798 120.527 64.9731 120.36C64.5665 120.193 64.2131 119.957 63.9131 119.65C63.6198 119.337 63.3898 118.96 63.2231 118.52C63.0565 118.08 62.9731 117.587 62.9731 117.04C62.9731 116.48 63.0565 115.973 63.2231 115.52C63.3898 115.067 63.6198 114.683 63.9131 114.37C64.2131 114.057 64.5665 113.817 64.9731 113.65C65.3798 113.477 65.8231 113.39 66.3031 113.39C66.7831 113.39 67.2265 113.477 67.6331 113.65C68.0465 113.817 68.4031 114.057 68.7031 114.37C69.0031 114.683 69.2365 115.067 69.4031 115.52C69.5698 115.973 69.6531 116.48 69.6531 117.04ZM67.7531 117.04C67.7531 116.653 67.7131 116.33 67.6331 116.07C67.5598 115.81 67.4565 115.6 67.3231 115.44C67.1965 115.28 67.0431 115.167 66.8631 115.1C66.6898 115.027 66.5031 114.99 66.3031 114.99C66.1031 114.99 65.9165 115.027 65.7431 115.1C65.5698 115.167 65.4198 115.28 65.2931 115.44C65.1731 115.6 65.0765 115.81 65.0031 116.07C64.9298 116.33 64.8931 116.653 64.8931 117.04C64.8931 117.413 64.9298 117.727 65.0031 117.98C65.0765 118.227 65.1731 118.427 65.2931 118.58C65.4198 118.733 65.5698 118.843 65.7431 118.91C65.9165 118.977 66.1031 119.01 66.3031 119.01C66.5031 119.01 66.6898 118.977 66.8631 118.91C67.0431 118.843 67.1965 118.733 67.3231 118.58C67.4565 118.427 67.5598 118.227 67.6331 117.98C67.7131 117.727 67.7531 117.413 67.7531 117.04ZM74.4631 113.93C74.5498 113.83 74.6498 113.74 74.7631 113.66C74.8831 113.58 75.0498 113.54 75.2631 113.54H77.0631L66.3231 127.63C66.2365 127.737 66.1331 127.827 66.0131 127.9C65.8931 127.967 65.7465 128 65.5731 128H63.7331L74.4631 113.93ZM77.8231 124.6C77.8231 125.147 77.7298 125.64 77.5431 126.08C77.3631 126.52 77.1198 126.897 76.8131 127.21C76.5065 127.517 76.1498 127.757 75.7431 127.93C75.3365 128.097 74.9131 128.18 74.4731 128.18C73.9931 128.18 73.5498 128.097 73.1431 127.93C72.7365 127.757 72.3831 127.517 72.0831 127.21C71.7898 126.897 71.5598 126.52 71.3931 126.08C71.2265 125.64 71.1431 125.147 71.1431 124.6C71.1431 124.04 71.2265 123.533 71.3931 123.08C71.5598 122.627 71.7898 122.243 72.0831 121.93C72.3831 121.617 72.7365 121.377 73.1431 121.21C73.5498 121.037 73.9931 120.95 74.4731 120.95C74.9531 120.95 75.3965 121.037 75.8031 121.21C76.2165 121.377 76.5698 121.617 76.8631 121.93C77.1631 122.243 77.3965 122.627 77.5631 123.08C77.7365 123.533 77.8231 124.04 77.8231 124.6ZM75.9131 124.6C75.9131 124.213 75.8765 123.89 75.8031 123.63C75.7298 123.37 75.6265 123.16 75.4931 123C75.3665 122.84 75.2131 122.727 75.0331 122.66C74.8598 122.587 74.6731 122.55 74.4731 122.55C74.2731 122.55 74.0865 122.587 73.9131 122.66C73.7398 122.727 73.5898 122.84 73.4631 123C73.3365 123.16 73.2365 123.37 73.1631 123.63C73.0965 123.89 73.0631 124.213 73.0631 124.6C73.0631 124.973 73.0965 125.287 73.1631 125.54C73.2365 125.793 73.3365 125.997 73.4631 126.15C73.5898 126.303 73.7398 126.413 73.9131 126.48C74.0865 126.547 74.2731 126.58 74.4731 126.58C74.6731 126.58 74.8598 126.547 75.0331 126.48C75.2131 126.413 75.3665 126.303 75.4931 126.15C75.6265 125.997 75.7298 125.793 75.8031 125.54C75.8765 125.287 75.9131 124.973 75.9131 124.6Z" fill="white"/>
<path d="M213.818 68.962L213.812 70H208.472V61.384H213.812V62.422H209.756V65.152H213.02V66.154H209.756V68.962H213.818ZM218.658 64.954C218.626 65.006 218.592 65.044 218.556 65.068C218.52 65.088 218.474 65.098 218.418 65.098C218.354 65.098 218.282 65.076 218.202 65.032C218.126 64.988 218.032 64.94 217.92 64.888C217.812 64.836 217.684 64.788 217.536 64.744C217.388 64.7 217.212 64.678 217.008 64.678C216.84 64.678 216.686 64.7 216.546 64.744C216.41 64.784 216.294 64.842 216.198 64.918C216.102 64.99 216.028 65.078 215.976 65.182C215.924 65.282 215.898 65.39 215.898 65.506C215.898 65.658 215.942 65.784 216.03 65.884C216.122 65.984 216.24 66.07 216.384 66.142C216.532 66.214 216.698 66.28 216.882 66.34C217.07 66.396 217.26 66.456 217.452 66.52C217.648 66.584 217.838 66.658 218.022 66.742C218.21 66.822 218.376 66.924 218.52 67.048C218.668 67.168 218.786 67.314 218.874 67.486C218.966 67.658 219.012 67.868 219.012 68.116C219.012 68.4 218.96 68.664 218.856 68.908C218.756 69.148 218.606 69.356 218.406 69.532C218.21 69.708 217.966 69.846 217.674 69.946C217.382 70.046 217.048 70.096 216.672 70.096C216.252 70.096 215.864 70.026 215.508 69.886C215.152 69.746 214.854 69.568 214.614 69.352L214.89 68.902C214.922 68.846 214.962 68.804 215.01 68.776C215.058 68.744 215.122 68.728 215.202 68.728C215.278 68.728 215.356 68.756 215.436 68.812C215.516 68.868 215.612 68.93 215.724 68.998C215.836 69.062 215.972 69.122 216.132 69.178C216.292 69.23 216.492 69.256 216.732 69.256C216.932 69.256 217.106 69.232 217.254 69.184C217.402 69.132 217.524 69.064 217.62 68.98C217.72 68.892 217.794 68.792 217.842 68.68C217.89 68.568 217.914 68.45 217.914 68.326C217.914 68.166 217.868 68.034 217.776 67.93C217.688 67.822 217.57 67.73 217.422 67.654C217.278 67.578 217.112 67.512 216.924 67.456C216.736 67.4 216.544 67.34 216.348 67.276C216.152 67.212 215.96 67.138 215.772 67.054C215.584 66.97 215.416 66.864 215.268 66.736C215.124 66.608 215.006 66.452 214.914 66.268C214.826 66.084 214.782 65.86 214.782 65.596C214.782 65.36 214.83 65.134 214.926 64.918C215.026 64.702 215.168 64.512 215.352 64.348C215.54 64.184 215.77 64.054 216.042 63.958C216.318 63.858 216.632 63.808 216.984 63.808C217.388 63.808 217.752 63.872 218.076 64C218.404 64.128 218.684 64.304 218.916 64.528L218.658 64.954ZM226.057 70H224.881V64.852H221.821V68.422C221.821 68.662 221.879 68.842 221.995 68.962C222.115 69.078 222.267 69.136 222.451 69.136C222.559 69.136 222.651 69.122 222.727 69.094C222.807 69.066 222.875 69.036 222.931 69.004C222.987 68.968 223.035 68.936 223.075 68.908C223.115 68.88 223.151 68.866 223.183 68.866C223.223 68.866 223.253 68.876 223.273 68.896C223.297 68.912 223.321 68.94 223.345 68.98L223.693 69.544C223.501 69.72 223.273 69.856 223.009 69.952C222.745 70.048 222.471 70.096 222.187 70.096C221.695 70.096 221.315 69.958 221.047 69.682C220.783 69.406 220.651 69.012 220.651 68.5V64.852H219.943C219.875 64.852 219.817 64.832 219.769 64.792C219.725 64.748 219.703 64.684 219.703 64.6V64.126L220.699 63.988L220.957 62.17C220.973 62.102 221.003 62.05 221.047 62.014C221.095 61.974 221.155 61.954 221.227 61.954H221.821V64H226.057V70ZM226.321 61.984C226.321 62.092 226.299 62.196 226.255 62.296C226.211 62.392 226.151 62.478 226.075 62.554C226.003 62.626 225.917 62.684 225.817 62.728C225.717 62.768 225.613 62.788 225.505 62.788C225.397 62.788 225.295 62.768 225.199 62.728C225.103 62.684 225.017 62.626 224.941 62.554C224.869 62.478 224.811 62.392 224.767 62.296C224.727 62.196 224.707 62.092 224.707 61.984C224.707 61.872 224.727 61.766 224.767 61.666C224.811 61.566 224.869 61.48 224.941 61.408C225.017 61.332 225.103 61.274 225.199 61.234C225.295 61.19 225.397 61.168 225.505 61.168C225.613 61.168 225.717 61.19 225.817 61.234C225.917 61.274 226.003 61.332 226.075 61.408C226.151 61.48 226.211 61.566 226.255 61.666C226.299 61.766 226.321 61.872 226.321 61.984ZM227.756 70V63.904H228.458C228.622 63.904 228.724 63.982 228.764 64.138L228.848 64.72C229.072 64.452 229.32 64.234 229.592 64.066C229.868 63.894 230.19 63.808 230.558 63.808C230.962 63.808 231.29 63.92 231.542 64.144C231.794 64.364 231.978 64.664 232.094 65.044C232.182 64.828 232.296 64.642 232.436 64.486C232.576 64.33 232.732 64.202 232.904 64.102C233.076 64.002 233.258 63.928 233.45 63.88C233.646 63.832 233.844 63.808 234.044 63.808C234.368 63.808 234.656 63.86 234.908 63.964C235.164 64.064 235.38 64.212 235.556 64.408C235.732 64.604 235.866 64.846 235.958 65.134C236.05 65.422 236.096 65.75 236.096 66.118V70H234.92V66.118C234.92 65.662 234.82 65.318 234.62 65.086C234.424 64.854 234.136 64.738 233.756 64.738C233.588 64.738 233.428 64.768 233.276 64.828C233.124 64.884 232.99 64.97 232.874 65.086C232.762 65.202 232.672 65.346 232.604 65.518C232.54 65.69 232.508 65.89 232.508 66.118V70H231.332V66.118C231.332 65.646 231.238 65.298 231.05 65.074C230.862 64.85 230.586 64.738 230.222 64.738C229.97 64.738 229.736 64.804 229.52 64.936C229.304 65.068 229.106 65.248 228.926 65.476V70H227.756ZM240.946 67.294C240.47 67.31 240.066 67.348 239.734 67.408C239.402 67.464 239.132 67.54 238.924 67.636C238.716 67.732 238.566 67.846 238.474 67.978C238.382 68.106 238.336 68.25 238.336 68.41C238.336 68.562 238.36 68.694 238.408 68.806C238.46 68.914 238.528 69.004 238.612 69.076C238.7 69.144 238.802 69.194 238.918 69.226C239.034 69.258 239.16 69.274 239.296 69.274C239.476 69.274 239.64 69.256 239.788 69.22C239.94 69.184 240.082 69.134 240.214 69.07C240.346 69.002 240.472 68.92 240.592 68.824C240.712 68.728 240.83 68.618 240.946 68.494V67.294ZM237.514 64.756C237.854 64.432 238.222 64.19 238.618 64.03C239.018 63.87 239.456 63.79 239.932 63.79C240.28 63.79 240.588 63.848 240.856 63.964C241.124 64.076 241.35 64.234 241.534 64.438C241.718 64.642 241.856 64.886 241.948 65.17C242.044 65.454 242.092 65.768 242.092 66.112V70H241.57C241.454 70 241.366 69.982 241.306 69.946C241.246 69.906 241.198 69.834 241.162 69.73L241.036 69.196C240.88 69.34 240.726 69.468 240.574 69.58C240.422 69.688 240.262 69.782 240.094 69.862C239.93 69.938 239.754 69.996 239.566 70.036C239.378 70.076 239.17 70.096 238.942 70.096C238.702 70.096 238.476 70.064 238.264 70C238.056 69.932 237.874 69.83 237.718 69.694C237.562 69.558 237.438 69.388 237.346 69.184C237.258 68.98 237.214 68.742 237.214 68.47C237.214 68.23 237.278 68 237.406 67.78C237.538 67.556 237.75 67.356 238.042 67.18C238.338 67.004 238.722 66.86 239.194 66.748C239.67 66.636 240.254 66.572 240.946 66.556V66.112C240.946 65.652 240.848 65.308 240.652 65.08C240.456 64.852 240.168 64.738 239.788 64.738C239.532 64.738 239.316 64.77 239.14 64.834C238.968 64.898 238.818 64.97 238.69 65.05C238.566 65.126 238.456 65.196 238.36 65.26C238.268 65.324 238.172 65.356 238.072 65.356C237.992 65.356 237.922 65.334 237.862 65.29C237.806 65.246 237.76 65.194 237.724 65.134L237.514 64.756ZM245.484 70.096C244.992 70.096 244.612 69.958 244.344 69.682C244.08 69.406 243.948 69.012 243.948 68.5V64.852H243.24C243.172 64.852 243.114 64.832 243.066 64.792C243.022 64.748 243 64.684 243 64.6V64.126L243.99 63.988L244.254 62.17C244.27 62.102 244.3 62.05 244.344 62.014C244.392 61.974 244.452 61.954 244.524 61.954H245.118V64H246.846V64.852H245.118V68.422C245.118 68.662 245.176 68.842 245.292 68.962C245.412 69.078 245.564 69.136 245.748 69.136C245.856 69.136 245.948 69.122 246.024 69.094C246.104 69.066 246.172 69.036 246.228 69.004C246.284 68.968 246.332 68.936 246.372 68.908C246.412 68.88 246.448 68.866 246.48 68.866C246.52 68.866 246.55 68.876 246.57 68.896C246.594 68.912 246.618 68.94 246.642 68.98L246.99 69.544C246.798 69.72 246.57 69.856 246.306 69.952C246.042 70.048 245.768 70.096 245.484 70.096ZM251.926 66.274C251.926 66.042 251.892 65.828 251.824 65.632C251.76 65.436 251.664 65.266 251.536 65.122C251.408 64.978 251.252 64.866 251.068 64.786C250.884 64.706 250.672 64.666 250.432 64.666C249.94 64.666 249.552 64.808 249.268 65.092C248.988 65.376 248.81 65.77 248.734 66.274H251.926ZM252.892 69.13C252.748 69.298 252.582 69.444 252.394 69.568C252.206 69.688 252.006 69.786 251.794 69.862C251.582 69.938 251.362 69.994 251.134 70.03C250.91 70.066 250.688 70.084 250.468 70.084C250.048 70.084 249.658 70.014 249.298 69.874C248.942 69.73 248.632 69.522 248.368 69.25C248.108 68.974 247.904 68.634 247.756 68.23C247.612 67.822 247.54 67.354 247.54 66.826C247.54 66.402 247.606 66.008 247.738 65.644C247.87 65.276 248.058 64.956 248.302 64.684C248.55 64.412 248.852 64.198 249.208 64.042C249.564 63.886 249.964 63.808 250.408 63.808C250.78 63.808 251.122 63.87 251.434 63.994C251.75 64.114 252.022 64.29 252.25 64.522C252.478 64.754 252.656 65.04 252.784 65.38C252.916 65.72 252.982 66.108 252.982 66.544C252.982 66.724 252.962 66.846 252.922 66.91C252.882 66.97 252.808 67 252.7 67H248.704C248.716 67.364 248.768 67.682 248.86 67.954C248.952 68.222 249.078 68.446 249.238 68.626C249.402 68.806 249.596 68.94 249.82 69.028C250.044 69.116 250.294 69.16 250.57 69.16C250.83 69.16 251.054 69.13 251.242 69.07C251.434 69.01 251.598 68.946 251.734 68.878C251.874 68.806 251.99 68.74 252.082 68.68C252.178 68.62 252.262 68.59 252.334 68.59C252.43 68.59 252.504 68.626 252.556 68.698L252.892 69.13ZM265.033 65.692C265.033 66.336 264.929 66.922 264.721 67.45C264.517 67.978 264.227 68.432 263.851 68.812C263.475 69.188 263.025 69.48 262.501 69.688C261.977 69.896 261.395 70 260.755 70H257.515V61.384H260.755C261.395 61.384 261.977 61.488 262.501 61.696C263.025 61.904 263.475 62.198 263.851 62.578C264.227 62.954 264.517 63.408 264.721 63.94C264.929 64.468 265.033 65.052 265.033 65.692ZM263.725 65.692C263.725 65.18 263.655 64.722 263.515 64.318C263.375 63.91 263.175 63.566 262.915 63.286C262.659 63.002 262.347 62.786 261.979 62.638C261.615 62.49 261.207 62.416 260.755 62.416H258.799V68.968H260.755C261.207 68.968 261.615 68.894 261.979 68.746C262.347 68.598 262.659 68.384 262.915 68.104C263.175 67.82 263.375 67.476 263.515 67.072C263.655 66.668 263.725 66.208 263.725 65.692ZM269.528 67.294C269.052 67.31 268.648 67.348 268.316 67.408C267.984 67.464 267.714 67.54 267.506 67.636C267.298 67.732 267.148 67.846 267.056 67.978C266.964 68.106 266.918 68.25 266.918 68.41C266.918 68.562 266.942 68.694 266.99 68.806C267.042 68.914 267.11 69.004 267.194 69.076C267.282 69.144 267.384 69.194 267.5 69.226C267.616 69.258 267.742 69.274 267.878 69.274C268.058 69.274 268.222 69.256 268.37 69.22C268.522 69.184 268.664 69.134 268.796 69.07C268.928 69.002 269.054 68.92 269.174 68.824C269.294 68.728 269.412 68.618 269.528 68.494V67.294ZM266.096 64.756C266.436 64.432 266.804 64.19 267.2 64.03C267.6 63.87 268.038 63.79 268.514 63.79C268.862 63.79 269.17 63.848 269.438 63.964C269.706 64.076 269.932 64.234 270.116 64.438C270.3 64.642 270.438 64.886 270.53 65.17C270.626 65.454 270.674 65.768 270.674 66.112V70H270.152C270.036 70 269.948 69.982 269.888 69.946C269.828 69.906 269.78 69.834 269.744 69.73L269.618 69.196C269.462 69.34 269.308 69.468 269.156 69.58C269.004 69.688 268.844 69.782 268.676 69.862C268.512 69.938 268.336 69.996 268.148 70.036C267.96 70.076 267.752 70.096 267.524 70.096C267.284 70.096 267.058 70.064 266.846 70C266.638 69.932 266.456 69.83 266.3 69.694C266.144 69.558 266.02 69.388 265.928 69.184C265.84 68.98 265.796 68.742 265.796 68.47C265.796 68.23 265.86 68 265.988 67.78C266.12 67.556 266.332 67.356 266.624 67.18C266.92 67.004 267.304 66.86 267.776 66.748C268.252 66.636 268.836 66.572 269.528 66.556V66.112C269.528 65.652 269.43 65.308 269.234 65.08C269.038 64.852 268.75 64.738 268.37 64.738C268.114 64.738 267.898 64.77 267.722 64.834C267.55 64.898 267.4 64.97 267.272 65.05C267.148 65.126 267.038 65.196 266.942 65.26C266.85 65.324 266.754 65.356 266.654 65.356C266.574 65.356 266.504 65.334 266.444 65.29C266.388 65.246 266.342 65.194 266.306 65.134L266.096 64.756ZM274.066 70.096C273.574 70.096 273.194 69.958 272.926 69.682C272.662 69.406 272.53 69.012 272.53 68.5V64.852H271.822C271.754 64.852 271.696 64.832 271.648 64.792C271.604 64.748 271.582 64.684 271.582 64.6V64.126L272.572 63.988L272.836 62.17C272.852 62.102 272.882 62.05 272.926 62.014C272.974 61.974 273.034 61.954 273.106 61.954H273.7V64H275.428V64.852H273.7V68.422C273.7 68.662 273.758 68.842 273.874 68.962C273.994 69.078 274.146 69.136 274.33 69.136C274.438 69.136 274.53 69.122 274.606 69.094C274.686 69.066 274.754 69.036 274.81 69.004C274.866 68.968 274.914 68.936 274.954 68.908C274.994 68.88 275.03 68.866 275.062 68.866C275.102 68.866 275.132 68.876 275.152 68.896C275.176 68.912 275.2 68.94 275.224 68.98L275.572 69.544C275.38 69.72 275.152 69.856 274.888 69.952C274.624 70.048 274.35 70.096 274.066 70.096ZM280.508 66.274C280.508 66.042 280.474 65.828 280.406 65.632C280.342 65.436 280.246 65.266 280.118 65.122C279.99 64.978 279.834 64.866 279.65 64.786C279.466 64.706 279.254 64.666 279.014 64.666C278.522 64.666 278.134 64.808 277.85 65.092C277.57 65.376 277.392 65.77 277.316 66.274H280.508ZM281.474 69.13C281.33 69.298 281.164 69.444 280.976 69.568C280.788 69.688 280.588 69.786 280.376 69.862C280.164 69.938 279.944 69.994 279.716 70.03C279.492 70.066 279.27 70.084 279.05 70.084C278.63 70.084 278.24 70.014 277.88 69.874C277.524 69.73 277.214 69.522 276.95 69.25C276.69 68.974 276.486 68.634 276.338 68.23C276.194 67.822 276.122 67.354 276.122 66.826C276.122 66.402 276.188 66.008 276.32 65.644C276.452 65.276 276.64 64.956 276.884 64.684C277.132 64.412 277.434 64.198 277.79 64.042C278.146 63.886 278.546 63.808 278.99 63.808C279.362 63.808 279.704 63.87 280.016 63.994C280.332 64.114 280.604 64.29 280.832 64.522C281.06 64.754 281.238 65.04 281.366 65.38C281.498 65.72 281.564 66.108 281.564 66.544C281.564 66.724 281.544 66.846 281.504 66.91C281.464 66.97 281.39 67 281.282 67H277.286C277.298 67.364 277.35 67.682 277.442 67.954C277.534 68.222 277.66 68.446 277.82 68.626C277.984 68.806 278.178 68.94 278.402 69.028C278.626 69.116 278.876 69.16 279.152 69.16C279.412 69.16 279.636 69.13 279.824 69.07C280.016 69.01 280.18 68.946 280.316 68.878C280.456 68.806 280.572 68.74 280.664 68.68C280.76 68.62 280.844 68.59 280.916 68.59C281.012 68.59 281.086 68.626 281.138 68.698L281.474 69.13Z" fill="#666666"/>
<path d="M164.869 88.359L163.373 84.2705C163.3 84.0892 163.223 83.8738 163.144 83.6245C163.065 83.3752 162.985 83.106 162.906 82.817C162.832 83.106 162.756 83.378 162.676 83.633C162.597 83.8823 162.521 84.1005 162.447 84.2875L160.959 88.359H164.869ZM168.907 93H167.139C166.941 93 166.779 92.9518 166.654 92.8555C166.53 92.7535 166.436 92.6288 166.374 92.4815L165.456 89.974H160.364L159.446 92.4815C159.401 92.6118 159.313 92.7308 159.183 92.8385C159.053 92.9462 158.891 93 158.698 93H156.913L161.75 80.709H164.079L168.907 93ZM177.162 84.279V93H175.879C175.601 93 175.425 92.8725 175.352 92.6175L175.207 91.9205C174.85 92.2832 174.456 92.5778 174.026 92.8045C173.595 93.0255 173.088 93.136 172.504 93.136C172.028 93.136 171.606 93.0567 171.238 92.898C170.875 92.7337 170.569 92.5042 170.32 92.2095C170.07 91.9148 169.881 91.5663 169.75 91.164C169.626 90.756 169.563 90.3083 169.563 89.821V84.279H171.663V89.821C171.663 90.3537 171.785 90.7673 172.028 91.062C172.278 91.351 172.649 91.4955 173.142 91.4955C173.504 91.4955 173.844 91.4162 174.162 91.2575C174.479 91.0932 174.779 90.8693 175.063 90.586V84.279H177.162ZM182.432 88.427C182.692 88.427 182.919 88.393 183.112 88.325C183.304 88.2513 183.463 88.1522 183.588 88.0275C183.718 87.9028 183.814 87.7527 183.877 87.577C183.945 87.4013 183.979 87.2087 183.979 86.999C183.979 86.5683 183.848 86.2283 183.588 85.979C183.333 85.724 182.947 85.5965 182.432 85.5965C181.916 85.5965 181.528 85.724 181.267 85.979C181.012 86.2283 180.885 86.5683 180.885 86.999C180.885 87.203 180.916 87.3928 180.978 87.5685C181.046 87.7442 181.142 87.8972 181.267 88.0275C181.397 88.1522 181.559 88.2513 181.752 88.325C181.95 88.393 182.177 88.427 182.432 88.427ZM184.803 93.391C184.803 93.221 184.752 93.0822 184.65 92.9745C184.548 92.8668 184.409 92.7847 184.234 92.728C184.058 92.6657 183.851 92.6203 183.613 92.592C183.381 92.5637 183.131 92.5438 182.865 92.5325C182.604 92.5155 182.332 92.5013 182.049 92.49C181.771 92.4787 181.499 92.456 181.233 92.422C181.001 92.5523 180.811 92.7053 180.664 92.881C180.522 93.0567 180.451 93.2607 180.451 93.493C180.451 93.646 180.488 93.7877 180.562 93.918C180.641 94.054 180.763 94.1702 180.927 94.2665C181.097 94.3628 181.315 94.4365 181.582 94.4875C181.848 94.5442 182.174 94.5725 182.559 94.5725C182.95 94.5725 183.287 94.5413 183.571 94.479C183.854 94.4223 184.086 94.3402 184.268 94.2325C184.455 94.1305 184.591 94.0058 184.676 93.8585C184.761 93.7168 184.803 93.561 184.803 93.391ZM186.894 84.5765V85.3585C186.894 85.6078 186.744 85.7608 186.444 85.8175L185.662 85.962C185.781 86.2623 185.84 86.591 185.84 86.948C185.84 87.3787 185.752 87.7697 185.577 88.121C185.407 88.4667 185.169 88.7613 184.863 89.005C184.557 89.2487 184.194 89.4385 183.775 89.5745C183.361 89.7048 182.913 89.77 182.432 89.77C182.262 89.77 182.097 89.7615 181.939 89.7445C181.78 89.7275 181.624 89.7048 181.471 89.6765C181.199 89.8408 181.063 90.025 181.063 90.229C181.063 90.4047 181.142 90.535 181.301 90.62C181.465 90.6993 181.681 90.756 181.947 90.79C182.213 90.824 182.517 90.8467 182.857 90.858C183.197 90.8637 183.545 90.8807 183.902 90.909C184.259 90.9373 184.608 90.9883 184.948 91.062C185.288 91.13 185.591 91.2405 185.857 91.3935C186.123 91.5465 186.336 91.7562 186.495 92.0225C186.659 92.2832 186.741 92.6203 186.741 93.034C186.741 93.4193 186.645 93.7933 186.452 94.156C186.265 94.5187 185.99 94.8417 185.628 95.125C185.271 95.4083 184.829 95.635 184.302 95.805C183.78 95.9807 183.185 96.0685 182.517 96.0685C181.859 96.0685 181.287 96.0033 180.8 95.873C180.312 95.7483 179.907 95.5783 179.584 95.363C179.261 95.1533 179.02 94.9097 178.862 94.632C178.703 94.3543 178.624 94.0653 178.624 93.765C178.624 93.357 178.745 93.017 178.989 92.745C179.238 92.4673 179.578 92.2463 180.009 92.082C179.777 91.963 179.593 91.8043 179.457 91.606C179.321 91.4077 179.253 91.147 179.253 90.824C179.253 90.6937 179.275 90.5605 179.321 90.4245C179.372 90.2828 179.442 90.144 179.533 90.008C179.629 89.872 179.748 89.7445 179.89 89.6255C180.032 89.5008 180.199 89.3903 180.392 89.294C179.95 89.056 179.601 88.7387 179.346 88.342C179.097 87.9453 178.972 87.4807 178.972 86.948C178.972 86.5173 179.057 86.1292 179.227 85.7835C179.403 85.4322 179.644 85.1347 179.95 84.891C180.261 84.6417 180.627 84.4518 181.046 84.3215C181.471 84.1912 181.933 84.126 182.432 84.126C182.806 84.126 183.157 84.1657 183.486 84.245C183.814 84.3187 184.115 84.4292 184.387 84.5765H186.894ZM195.739 84.279V93H194.456C194.178 93 194.003 92.8725 193.929 92.6175L193.784 91.9205C193.427 92.2832 193.034 92.5778 192.603 92.8045C192.172 93.0255 191.665 93.136 191.081 93.136C190.605 93.136 190.183 93.0567 189.815 92.898C189.452 92.7337 189.146 92.5042 188.897 92.2095C188.648 91.9148 188.458 91.5663 188.327 91.164C188.203 90.756 188.14 90.3083 188.14 89.821V84.279H190.24V89.821C190.24 90.3537 190.362 90.7673 190.605 91.062C190.855 91.351 191.226 91.4955 191.719 91.4955C192.082 91.4955 192.422 91.4162 192.739 91.2575C193.056 91.0932 193.357 90.8693 193.64 90.586V84.279H195.739ZM203.142 85.979C203.086 86.0697 203.026 86.1348 202.964 86.1745C202.901 86.2085 202.822 86.2255 202.726 86.2255C202.624 86.2255 202.513 86.1972 202.394 86.1405C202.281 86.0838 202.148 86.0215 201.995 85.9535C201.842 85.8798 201.666 85.8147 201.468 85.758C201.275 85.7013 201.046 85.673 200.779 85.673C200.366 85.673 200.04 85.7608 199.802 85.9365C199.569 86.1122 199.453 86.3417 199.453 86.625C199.453 86.812 199.513 86.9707 199.632 87.101C199.756 87.2257 199.918 87.3362 200.116 87.4325C200.32 87.5288 200.55 87.6167 200.805 87.696C201.06 87.7697 201.318 87.8518 201.578 87.9425C201.845 88.0332 202.105 88.138 202.36 88.257C202.615 88.3703 202.842 88.5177 203.04 88.699C203.244 88.8747 203.406 89.0872 203.525 89.3365C203.649 89.5858 203.712 89.8862 203.712 90.2375C203.712 90.6568 203.635 91.045 203.482 91.402C203.335 91.7533 203.114 92.0593 202.819 92.32C202.525 92.575 202.159 92.7762 201.723 92.9235C201.292 93.0652 200.793 93.136 200.227 93.136C199.926 93.136 199.632 93.1077 199.343 93.051C199.059 93 198.785 92.9263 198.518 92.83C198.258 92.7337 198.014 92.6203 197.787 92.49C197.566 92.3597 197.371 92.218 197.201 92.065L197.685 91.266C197.748 91.1697 197.821 91.096 197.906 91.045C197.991 90.994 198.099 90.9685 198.229 90.9685C198.36 90.9685 198.481 91.0053 198.595 91.079C198.714 91.1527 198.85 91.232 199.003 91.317C199.156 91.402 199.334 91.4813 199.538 91.555C199.748 91.6287 200.011 91.6655 200.329 91.6655C200.578 91.6655 200.791 91.6372 200.966 91.5805C201.148 91.5182 201.295 91.4388 201.408 91.3425C201.527 91.2462 201.612 91.1357 201.663 91.011C201.72 90.8807 201.748 90.7475 201.748 90.6115C201.748 90.4075 201.686 90.2403 201.561 90.11C201.442 89.9797 201.281 89.8663 201.077 89.77C200.878 89.6737 200.649 89.5887 200.388 89.515C200.133 89.4357 199.87 89.3507 199.598 89.26C199.331 89.1693 199.068 89.0645 198.807 88.9455C198.552 88.8208 198.323 88.665 198.119 88.478C197.92 88.291 197.759 88.0615 197.634 87.7895C197.515 87.5175 197.456 87.1888 197.456 86.8035C197.456 86.4465 197.527 86.1065 197.668 85.7835C197.81 85.4605 198.017 85.18 198.289 84.942C198.566 84.6983 198.909 84.5057 199.317 84.364C199.731 84.2167 200.207 84.143 200.745 84.143C201.346 84.143 201.893 84.2422 202.386 84.4405C202.879 84.6388 203.29 84.8995 203.618 85.2225L203.142 85.979ZM208.199 93.136C207.44 93.136 206.856 92.9235 206.448 92.4985C206.046 92.0678 205.844 91.4757 205.844 90.722V85.8515H204.952C204.839 85.8515 204.742 85.8147 204.663 85.741C204.584 85.6673 204.544 85.5568 204.544 85.4095V84.5765L205.946 84.347L206.388 81.967C206.417 81.8537 206.471 81.7658 206.55 81.7035C206.629 81.6412 206.731 81.61 206.856 81.61H207.944V84.3555H210.273V85.8515H207.944V90.5775C207.944 90.8495 208.009 91.062 208.139 91.215C208.275 91.368 208.46 91.4445 208.692 91.4445C208.822 91.4445 208.93 91.4303 209.015 91.402C209.106 91.368 209.182 91.334 209.244 91.3C209.312 91.266 209.372 91.2348 209.423 91.2065C209.474 91.1725 209.525 91.1555 209.576 91.1555C209.638 91.1555 209.689 91.1725 209.729 91.2065C209.769 91.2348 209.811 91.2802 209.856 91.3425L210.485 92.3625C210.179 92.6175 209.828 92.8102 209.431 92.9405C209.035 93.0708 208.624 93.136 208.199 93.136ZM223.511 91.4275V93H216.711V91.4275H219.202V84.262C219.202 83.9787 219.21 83.6868 219.227 83.3865L217.459 84.8655C217.357 84.9448 217.255 84.9958 217.153 85.0185C217.057 85.0355 216.964 85.0355 216.873 85.0185C216.788 85.0015 216.711 84.9732 216.643 84.9335C216.575 84.8882 216.524 84.84 216.49 84.789L215.827 83.8795L219.576 80.692H221.301V91.4275H223.511ZM233.857 80.709V81.6185C233.857 81.8905 233.829 82.1115 233.772 82.2815C233.716 82.4458 233.659 82.5847 233.602 82.698L228.944 92.286C228.848 92.4843 228.712 92.6543 228.536 92.796C228.361 92.932 228.125 93 227.831 93H226.309L231.061 83.6075C231.168 83.4148 231.273 83.2392 231.375 83.0805C231.483 82.9162 231.602 82.7603 231.732 82.613H225.85C225.72 82.613 225.607 82.5648 225.51 82.4685C225.414 82.3722 225.366 82.2588 225.366 82.1285V80.709H233.857ZM235.44 95.0825C235.338 94.9975 235.287 94.8927 235.287 94.768C235.287 94.7227 235.301 94.6717 235.329 94.615C235.363 94.5583 235.403 94.5073 235.448 94.462C235.51 94.394 235.587 94.309 235.678 94.207C235.768 94.1107 235.859 93.9973 235.95 93.867C236.04 93.7423 236.122 93.6035 236.196 93.4505C236.275 93.3032 236.335 93.1445 236.375 92.9745C236.193 92.9745 236.029 92.9433 235.882 92.881C235.734 92.813 235.607 92.7223 235.499 92.609C235.397 92.4957 235.315 92.3625 235.253 92.2095C235.196 92.0565 235.168 91.8893 235.168 91.708C235.168 91.5493 235.196 91.402 235.253 91.266C235.315 91.1243 235.4 91.0025 235.508 90.9005C235.615 90.7928 235.746 90.7107 235.899 90.654C236.052 90.5917 236.219 90.5605 236.4 90.5605C236.615 90.5605 236.802 90.6002 236.961 90.6795C237.125 90.7532 237.259 90.858 237.361 90.994C237.468 91.1243 237.548 91.2773 237.599 91.453C237.655 91.623 237.684 91.8043 237.684 91.997C237.684 92.269 237.641 92.5552 237.556 92.8555C237.477 93.1558 237.358 93.4562 237.199 93.7565C237.04 94.0568 236.842 94.3487 236.604 94.632C236.372 94.9153 236.105 95.176 235.805 95.414L235.44 95.0825ZM250.893 91.045C251.12 91.045 251.298 91.1102 251.429 91.2405C251.565 91.3652 251.633 91.5323 251.633 91.742V93H243.201V92.303C243.201 92.1613 243.229 92.014 243.286 91.861C243.348 91.7023 243.444 91.5607 243.575 91.436L247.306 87.696C247.618 87.3787 247.896 87.0755 248.139 86.7865C248.389 86.4975 248.595 86.2113 248.76 85.928C248.924 85.6447 249.049 85.3585 249.134 85.0695C249.224 84.7748 249.27 84.466 249.27 84.143C249.27 83.8483 249.227 83.5905 249.142 83.3695C249.057 83.1428 248.935 82.953 248.777 82.8C248.624 82.647 248.437 82.5337 248.216 82.46C248 82.3807 247.757 82.341 247.485 82.341C247.235 82.341 247.003 82.3778 246.788 82.4515C246.578 82.5195 246.391 82.6187 246.227 82.749C246.062 82.8737 245.924 83.021 245.81 83.191C245.697 83.361 245.612 83.548 245.555 83.752C245.459 84.0127 245.334 84.1855 245.181 84.2705C245.028 84.3555 244.807 84.3753 244.518 84.33L243.413 84.1345C243.498 83.5452 243.663 83.0295 243.906 82.5875C244.15 82.1398 244.453 81.7687 244.816 81.474C245.184 81.1737 245.603 80.9498 246.074 80.8025C246.55 80.6495 247.06 80.573 247.604 80.573C248.17 80.573 248.689 80.658 249.159 80.828C249.63 80.9923 250.032 81.2275 250.366 81.5335C250.701 81.8395 250.961 82.2078 251.148 82.6385C251.335 83.0692 251.429 83.548 251.429 84.075C251.429 84.5283 251.361 84.9477 251.225 85.333C251.094 85.7183 250.916 86.0867 250.689 86.438C250.468 86.7893 250.208 87.1293 249.907 87.458C249.607 87.7867 249.292 88.121 248.964 88.461L246.193 91.2915C246.459 91.2122 246.723 91.1527 246.983 91.113C247.25 91.0677 247.502 91.045 247.74 91.045H250.893ZM261.851 86.8545C261.851 87.9255 261.735 88.8577 261.503 89.651C261.276 90.4387 260.959 91.0903 260.551 91.606C260.148 92.1217 259.669 92.507 259.114 92.762C258.564 93.0113 257.969 93.136 257.329 93.136C256.689 93.136 256.094 93.0113 255.544 92.762C255 92.507 254.527 92.1217 254.125 91.606C253.722 91.0903 253.408 90.4387 253.181 89.651C252.954 88.8577 252.841 87.9255 252.841 86.8545C252.841 85.7778 252.954 84.8457 253.181 84.058C253.408 83.2703 253.722 82.6187 254.125 82.103C254.527 81.5873 255 81.2048 255.544 80.9555C256.094 80.7005 256.689 80.573 257.329 80.573C257.969 80.573 258.564 80.7005 259.114 80.9555C259.669 81.2048 260.148 81.5873 260.551 82.103C260.959 82.6187 261.276 83.2703 261.503 84.058C261.735 84.8457 261.851 85.7778 261.851 86.8545ZM259.684 86.8545C259.684 85.9648 259.618 85.2282 259.488 84.6445C259.358 84.0608 259.182 83.5962 258.961 83.2505C258.746 82.9048 258.496 82.664 258.213 82.528C257.93 82.3863 257.635 82.3155 257.329 82.3155C257.029 82.3155 256.737 82.3863 256.454 82.528C256.176 82.664 255.929 82.9048 255.714 83.2505C255.499 83.5962 255.326 84.0608 255.196 84.6445C255.071 85.2282 255.009 85.9648 255.009 86.8545C255.009 87.7442 255.071 88.4808 255.196 89.0645C255.326 89.6482 255.499 90.1128 255.714 90.4585C255.929 90.8042 256.176 91.0478 256.454 91.1895C256.737 91.3255 257.029 91.3935 257.329 91.3935C257.635 91.3935 257.93 91.3255 258.213 91.1895C258.496 91.0478 258.746 90.8042 258.961 90.4585C259.182 90.1128 259.358 89.6482 259.488 89.0645C259.618 88.4808 259.684 87.7442 259.684 86.8545ZM270.616 91.045C270.843 91.045 271.021 91.1102 271.151 91.2405C271.287 91.3652 271.355 91.5323 271.355 91.742V93H262.923V92.303C262.923 92.1613 262.952 92.014 263.008 91.861C263.071 91.7023 263.167 91.5607 263.297 91.436L267.029 87.696C267.341 87.3787 267.618 87.0755 267.862 86.7865C268.111 86.4975 268.318 86.2113 268.482 85.928C268.647 85.6447 268.771 85.3585 268.856 85.0695C268.947 84.7748 268.992 84.466 268.992 84.143C268.992 83.8483 268.95 83.5905 268.865 83.3695C268.78 83.1428 268.658 82.953 268.499 82.8C268.346 82.647 268.159 82.5337 267.938 82.46C267.723 82.3807 267.479 82.341 267.207 82.341C266.958 82.341 266.726 82.3778 266.51 82.4515C266.301 82.5195 266.114 82.6187 265.949 82.749C265.785 82.8737 265.646 83.021 265.533 83.191C265.42 83.361 265.335 83.548 265.278 83.752C265.182 84.0127 265.057 84.1855 264.904 84.2705C264.751 84.3555 264.53 84.3753 264.241 84.33L263.136 84.1345C263.221 83.5452 263.385 83.0295 263.629 82.5875C263.873 82.1398 264.176 81.7687 264.538 81.474C264.907 81.1737 265.326 80.9498 265.796 80.8025C266.272 80.6495 266.782 80.573 267.326 80.573C267.893 80.573 268.412 80.658 268.882 80.828C269.352 80.9923 269.755 81.2275 270.089 81.5335C270.423 81.8395 270.684 82.2078 270.871 82.6385C271.058 83.0692 271.151 83.548 271.151 84.075C271.151 84.5283 271.083 84.9477 270.947 85.333C270.817 85.7183 270.639 86.0867 270.412 86.438C270.191 86.7893 269.93 87.1293 269.63 87.458C269.33 87.7867 269.015 88.121 268.686 88.461L265.915 91.2915C266.182 91.2122 266.445 91.1527 266.706 91.113C266.972 91.0677 267.224 91.045 267.462 91.045H270.616ZM281.574 86.8545C281.574 87.9255 281.458 88.8577 281.225 89.651C280.999 90.4387 280.681 91.0903 280.273 91.606C279.871 92.1217 279.392 92.507 278.837 92.762C278.287 93.0113 277.692 93.136 277.052 93.136C276.411 93.136 275.816 93.0113 275.267 92.762C274.723 92.507 274.25 92.1217 273.847 91.606C273.445 91.0903 273.13 90.4387 272.904 89.651C272.677 88.8577 272.564 87.9255 272.564 86.8545C272.564 85.7778 272.677 84.8457 272.904 84.058C273.13 83.2703 273.445 82.6187 273.847 82.103C274.25 81.5873 274.723 81.2048 275.267 80.9555C275.816 80.7005 276.411 80.573 277.052 80.573C277.692 80.573 278.287 80.7005 278.837 80.9555C279.392 81.2048 279.871 81.5873 280.273 82.103C280.681 82.6187 280.999 83.2703 281.225 84.058C281.458 84.8457 281.574 85.7778 281.574 86.8545ZM279.406 86.8545C279.406 85.9648 279.341 85.2282 279.211 84.6445C279.08 84.0608 278.905 83.5962 278.684 83.2505C278.468 82.9048 278.219 82.664 277.936 82.528C277.652 82.3863 277.358 82.3155 277.052 82.3155C276.751 82.3155 276.46 82.3863 276.176 82.528C275.899 82.664 275.652 82.9048 275.437 83.2505C275.221 83.5962 275.049 84.0608 274.918 84.6445C274.794 85.2282 274.731 85.9648 274.731 86.8545C274.731 87.7442 274.794 88.4808 274.918 89.0645C275.049 89.6482 275.221 90.1128 275.437 90.4585C275.652 90.8042 275.899 91.0478 276.176 91.1895C276.46 91.3255 276.751 91.3935 277.052 91.3935C277.358 91.3935 277.652 91.3255 277.936 91.1895C278.219 91.0478 278.468 90.8042 278.684 90.4585C278.905 90.1128 279.08 89.6482 279.211 89.0645C279.341 88.4808 279.406 87.7442 279.406 86.8545Z" fill="#33334B"/>
<path d="M287 60H288V123H287V60Z" fill="#C4C4C4"/>
<circle cx="288" cy="121" r="4.5" fill="white" stroke="#17B573" stroke-width="3"/>
<path d="M236.481 154.818C236.805 154.818 237.089 154.776 237.333 154.692C237.581 154.608 237.787 154.49 237.951 154.338C238.119 154.182 238.245 153.998 238.329 153.786C238.413 153.57 238.455 153.332 238.455 153.072C238.455 152.548 238.291 152.136 237.963 151.836C237.639 151.536 237.145 151.386 236.481 151.386H235.149V154.818H236.481ZM236.481 150.384C237.033 150.384 237.513 150.448 237.921 150.576C238.329 150.704 238.667 150.886 238.935 151.122C239.203 151.354 239.401 151.636 239.529 151.968C239.661 152.3 239.727 152.668 239.727 153.072C239.727 153.476 239.657 153.848 239.517 154.188C239.377 154.524 239.171 154.814 238.899 155.058C238.627 155.302 238.287 155.492 237.879 155.628C237.475 155.76 237.009 155.826 236.481 155.826H235.149V159H233.871V150.384H236.481ZM242.061 150.144V159H240.885V150.144H242.061ZM247.008 156.294C246.532 156.31 246.128 156.348 245.796 156.408C245.464 156.464 245.194 156.54 244.986 156.636C244.778 156.732 244.628 156.846 244.536 156.978C244.444 157.106 244.398 157.25 244.398 157.41C244.398 157.562 244.422 157.694 244.47 157.806C244.522 157.914 244.59 158.004 244.674 158.076C244.762 158.144 244.864 158.194 244.98 158.226C245.096 158.258 245.222 158.274 245.358 158.274C245.538 158.274 245.702 158.256 245.85 158.22C246.002 158.184 246.144 158.134 246.276 158.07C246.408 158.002 246.534 157.92 246.654 157.824C246.774 157.728 246.892 157.618 247.008 157.494V156.294ZM243.576 153.756C243.916 153.432 244.284 153.19 244.68 153.03C245.08 152.87 245.518 152.79 245.994 152.79C246.342 152.79 246.65 152.848 246.918 152.964C247.186 153.076 247.412 153.234 247.596 153.438C247.78 153.642 247.918 153.886 248.01 154.17C248.106 154.454 248.154 154.768 248.154 155.112V159H247.632C247.516 159 247.428 158.982 247.368 158.946C247.308 158.906 247.26 158.834 247.224 158.73L247.098 158.196C246.942 158.34 246.788 158.468 246.636 158.58C246.484 158.688 246.324 158.782 246.156 158.862C245.992 158.938 245.816 158.996 245.628 159.036C245.44 159.076 245.232 159.096 245.004 159.096C244.764 159.096 244.538 159.064 244.326 159C244.118 158.932 243.936 158.83 243.78 158.694C243.624 158.558 243.5 158.388 243.408 158.184C243.32 157.98 243.276 157.742 243.276 157.47C243.276 157.23 243.34 157 243.468 156.78C243.6 156.556 243.812 156.356 244.104 156.18C244.4 156.004 244.784 155.86 245.256 155.748C245.732 155.636 246.316 155.572 247.008 155.556V155.112C247.008 154.652 246.91 154.308 246.714 154.08C246.518 153.852 246.23 153.738 245.85 153.738C245.594 153.738 245.378 153.77 245.202 153.834C245.03 153.898 244.88 153.97 244.752 154.05C244.628 154.126 244.518 154.196 244.422 154.26C244.33 154.324 244.234 154.356 244.134 154.356C244.054 154.356 243.984 154.334 243.924 154.29C243.868 154.246 243.822 154.194 243.786 154.134L243.576 153.756ZM250.818 153.75C250.95 153.61 251.088 153.482 251.232 153.366C251.376 153.25 251.528 153.152 251.688 153.072C251.852 152.988 252.026 152.924 252.21 152.88C252.398 152.832 252.598 152.808 252.81 152.808C253.146 152.808 253.44 152.864 253.692 152.976C253.948 153.088 254.162 153.246 254.334 153.45C254.506 153.65 254.636 153.892 254.724 154.176C254.812 154.46 254.856 154.774 254.856 155.118V159H253.68V155.118C253.68 154.682 253.58 154.344 253.38 154.104C253.18 153.86 252.874 153.738 252.462 153.738C252.162 153.738 251.88 153.81 251.616 153.954C251.356 154.094 251.114 154.286 250.89 154.53V159H249.72V152.904H250.422C250.586 152.904 250.688 152.982 250.728 153.138L250.818 153.75ZM257.533 153.75C257.665 153.61 257.803 153.482 257.947 153.366C258.091 153.25 258.243 153.152 258.403 153.072C258.567 152.988 258.741 152.924 258.925 152.88C259.113 152.832 259.313 152.808 259.525 152.808C259.861 152.808 260.155 152.864 260.407 152.976C260.663 153.088 260.877 153.246 261.049 153.45C261.221 153.65 261.351 153.892 261.439 154.176C261.527 154.46 261.571 154.774 261.571 155.118V159H260.395V155.118C260.395 154.682 260.295 154.344 260.095 154.104C259.895 153.86 259.589 153.738 259.177 153.738C258.877 153.738 258.595 153.81 258.331 153.954C258.071 154.094 257.829 154.286 257.605 154.53V159H256.435V152.904H257.137C257.301 152.904 257.403 152.982 257.443 153.138L257.533 153.75ZM267.188 155.274C267.188 155.042 267.154 154.828 267.086 154.632C267.022 154.436 266.926 154.266 266.798 154.122C266.67 153.978 266.514 153.866 266.33 153.786C266.146 153.706 265.934 153.666 265.694 153.666C265.202 153.666 264.814 153.808 264.53 154.092C264.25 154.376 264.072 154.77 263.996 155.274H267.188ZM268.154 158.13C268.01 158.298 267.844 158.444 267.656 158.568C267.468 158.688 267.268 158.786 267.056 158.862C266.844 158.938 266.624 158.994 266.396 159.03C266.172 159.066 265.95 159.084 265.73 159.084C265.31 159.084 264.92 159.014 264.56 158.874C264.204 158.73 263.894 158.522 263.63 158.25C263.37 157.974 263.166 157.634 263.018 157.23C262.874 156.822 262.802 156.354 262.802 155.826C262.802 155.402 262.868 155.008 263 154.644C263.132 154.276 263.32 153.956 263.564 153.684C263.812 153.412 264.114 153.198 264.47 153.042C264.826 152.886 265.226 152.808 265.67 152.808C266.042 152.808 266.384 152.87 266.696 152.994C267.012 153.114 267.284 153.29 267.512 153.522C267.74 153.754 267.918 154.04 268.046 154.38C268.178 154.72 268.244 155.108 268.244 155.544C268.244 155.724 268.224 155.846 268.184 155.91C268.144 155.97 268.07 156 267.962 156H263.966C263.978 156.364 264.03 156.682 264.122 156.954C264.214 157.222 264.34 157.446 264.5 157.626C264.664 157.806 264.858 157.94 265.082 158.028C265.306 158.116 265.556 158.16 265.832 158.16C266.092 158.16 266.316 158.13 266.504 158.07C266.696 158.01 266.86 157.946 266.996 157.878C267.136 157.806 267.252 157.74 267.344 157.68C267.44 157.62 267.524 157.59 267.596 157.59C267.692 157.59 267.766 157.626 267.818 157.698L268.154 158.13ZM273.432 154.38C273.24 154.128 273.032 153.952 272.808 153.852C272.588 153.752 272.34 153.702 272.064 153.702C271.528 153.702 271.112 153.896 270.816 154.284C270.524 154.668 270.378 155.23 270.378 155.97C270.378 156.358 270.41 156.69 270.474 156.966C270.542 157.238 270.638 157.462 270.762 157.638C270.89 157.81 271.046 157.938 271.23 158.022C271.414 158.102 271.622 158.142 271.854 158.142C272.194 158.142 272.488 158.066 272.736 157.914C272.984 157.762 273.216 157.548 273.432 157.272V154.38ZM274.608 150.144V159H273.9C273.736 159 273.634 158.922 273.594 158.766L273.492 158.064C273.232 158.372 272.936 158.62 272.604 158.808C272.276 158.992 271.896 159.084 271.464 159.084C271.116 159.084 270.8 159.016 270.516 158.88C270.236 158.744 269.996 158.546 269.796 158.286C269.596 158.022 269.442 157.696 269.334 157.308C269.226 156.92 269.172 156.474 269.172 155.97C269.172 155.518 269.232 155.098 269.352 154.71C269.472 154.322 269.646 153.986 269.874 153.702C270.102 153.418 270.378 153.196 270.702 153.036C271.026 152.872 271.392 152.79 271.8 152.79C272.168 152.79 272.48 152.85 272.736 152.97C272.996 153.09 273.228 153.26 273.432 153.48V150.144H274.608ZM287.033 154.692C287.033 155.336 286.929 155.922 286.721 156.45C286.517 156.978 286.227 157.432 285.851 157.812C285.475 158.188 285.025 158.48 284.501 158.688C283.977 158.896 283.395 159 282.755 159H279.515V150.384H282.755C283.395 150.384 283.977 150.488 284.501 150.696C285.025 150.904 285.475 151.198 285.851 151.578C286.227 151.954 286.517 152.408 286.721 152.94C286.929 153.468 287.033 154.052 287.033 154.692ZM285.725 154.692C285.725 154.18 285.655 153.722 285.515 153.318C285.375 152.91 285.175 152.566 284.915 152.286C284.659 152.002 284.347 151.786 283.979 151.638C283.615 151.49 283.207 151.416 282.755 151.416H280.799V157.968H282.755C283.207 157.968 283.615 157.894 283.979 157.746C284.347 157.598 284.659 157.384 284.915 157.104C285.175 156.82 285.375 156.476 285.515 156.072C285.655 155.668 285.725 155.208 285.725 154.692ZM291.528 156.294C291.052 156.31 290.648 156.348 290.316 156.408C289.984 156.464 289.714 156.54 289.506 156.636C289.298 156.732 289.148 156.846 289.056 156.978C288.964 157.106 288.918 157.25 288.918 157.41C288.918 157.562 288.942 157.694 288.99 157.806C289.042 157.914 289.11 158.004 289.194 158.076C289.282 158.144 289.384 158.194 289.5 158.226C289.616 158.258 289.742 158.274 289.878 158.274C290.058 158.274 290.222 158.256 290.37 158.22C290.522 158.184 290.664 158.134 290.796 158.07C290.928 158.002 291.054 157.92 291.174 157.824C291.294 157.728 291.412 157.618 291.528 157.494V156.294ZM288.096 153.756C288.436 153.432 288.804 153.19 289.2 153.03C289.6 152.87 290.038 152.79 290.514 152.79C290.862 152.79 291.17 152.848 291.438 152.964C291.706 153.076 291.932 153.234 292.116 153.438C292.3 153.642 292.438 153.886 292.53 154.17C292.626 154.454 292.674 154.768 292.674 155.112V159H292.152C292.036 159 291.948 158.982 291.888 158.946C291.828 158.906 291.78 158.834 291.744 158.73L291.618 158.196C291.462 158.34 291.308 158.468 291.156 158.58C291.004 158.688 290.844 158.782 290.676 158.862C290.512 158.938 290.336 158.996 290.148 159.036C289.96 159.076 289.752 159.096 289.524 159.096C289.284 159.096 289.058 159.064 288.846 159C288.638 158.932 288.456 158.83 288.3 158.694C288.144 158.558 288.02 158.388 287.928 158.184C287.84 157.98 287.796 157.742 287.796 157.47C287.796 157.23 287.86 157 287.988 156.78C288.12 156.556 288.332 156.356 288.624 156.18C288.92 156.004 289.304 155.86 289.776 155.748C290.252 155.636 290.836 155.572 291.528 155.556V155.112C291.528 154.652 291.43 154.308 291.234 154.08C291.038 153.852 290.75 153.738 290.37 153.738C290.114 153.738 289.898 153.77 289.722 153.834C289.55 153.898 289.4 153.97 289.272 154.05C289.148 154.126 289.038 154.196 288.942 154.26C288.85 154.324 288.754 154.356 288.654 154.356C288.574 154.356 288.504 154.334 288.444 154.29C288.388 154.246 288.342 154.194 288.306 154.134L288.096 153.756ZM296.066 159.096C295.574 159.096 295.194 158.958 294.926 158.682C294.662 158.406 294.53 158.012 294.53 157.5V153.852H293.822C293.754 153.852 293.696 153.832 293.648 153.792C293.604 153.748 293.582 153.684 293.582 153.6V153.126L294.572 152.988L294.836 151.17C294.852 151.102 294.882 151.05 294.926 151.014C294.974 150.974 295.034 150.954 295.106 150.954H295.7V153H297.428V153.852H295.7V157.422C295.7 157.662 295.758 157.842 295.874 157.962C295.994 158.078 296.146 158.136 296.33 158.136C296.438 158.136 296.53 158.122 296.606 158.094C296.686 158.066 296.754 158.036 296.81 158.004C296.866 157.968 296.914 157.936 296.954 157.908C296.994 157.88 297.03 157.866 297.062 157.866C297.102 157.866 297.132 157.876 297.152 157.896C297.176 157.912 297.2 157.94 297.224 157.98L297.572 158.544C297.38 158.72 297.152 158.856 296.888 158.952C296.624 159.048 296.35 159.096 296.066 159.096ZM302.508 155.274C302.508 155.042 302.474 154.828 302.406 154.632C302.342 154.436 302.246 154.266 302.118 154.122C301.99 153.978 301.834 153.866 301.65 153.786C301.466 153.706 301.254 153.666 301.014 153.666C300.522 153.666 300.134 153.808 299.85 154.092C299.57 154.376 299.392 154.77 299.316 155.274H302.508ZM303.474 158.13C303.33 158.298 303.164 158.444 302.976 158.568C302.788 158.688 302.588 158.786 302.376 158.862C302.164 158.938 301.944 158.994 301.716 159.03C301.492 159.066 301.27 159.084 301.05 159.084C300.63 159.084 300.24 159.014 299.88 158.874C299.524 158.73 299.214 158.522 298.95 158.25C298.69 157.974 298.486 157.634 298.338 157.23C298.194 156.822 298.122 156.354 298.122 155.826C298.122 155.402 298.188 155.008 298.32 154.644C298.452 154.276 298.64 153.956 298.884 153.684C299.132 153.412 299.434 153.198 299.79 153.042C300.146 152.886 300.546 152.808 300.99 152.808C301.362 152.808 301.704 152.87 302.016 152.994C302.332 153.114 302.604 153.29 302.832 153.522C303.06 153.754 303.238 154.04 303.366 154.38C303.498 154.72 303.564 155.108 303.564 155.544C303.564 155.724 303.544 155.846 303.504 155.91C303.464 155.97 303.39 156 303.282 156H299.286C299.298 156.364 299.35 156.682 299.442 156.954C299.534 157.222 299.66 157.446 299.82 157.626C299.984 157.806 300.178 157.94 300.402 158.028C300.626 158.116 300.876 158.16 301.152 158.16C301.412 158.16 301.636 158.13 301.824 158.07C302.016 158.01 302.18 157.946 302.316 157.878C302.456 157.806 302.572 157.74 302.664 157.68C302.76 157.62 302.844 157.59 302.916 157.59C303.012 157.59 303.086 157.626 303.138 157.698L303.474 158.13Z" fill="#666666"/>
<path d="M186.869 177.359L185.373 173.27C185.3 173.089 185.223 172.874 185.144 172.624C185.065 172.375 184.985 172.106 184.906 171.817C184.832 172.106 184.756 172.378 184.676 172.633C184.597 172.882 184.521 173.1 184.447 173.287L182.959 177.359H186.869ZM190.907 182H189.139C188.941 182 188.779 181.952 188.654 181.855C188.53 181.753 188.436 181.629 188.374 181.481L187.456 178.974H182.364L181.446 181.481C181.401 181.612 181.313 181.731 181.183 181.838C181.053 181.946 180.891 182 180.698 182H178.913L183.75 169.709H186.079L190.907 182ZM199.162 173.279V182H197.879C197.601 182 197.425 181.872 197.352 181.617L197.207 180.92C196.85 181.283 196.456 181.578 196.026 181.804C195.595 182.025 195.088 182.136 194.504 182.136C194.028 182.136 193.606 182.057 193.238 181.898C192.875 181.734 192.569 181.504 192.32 181.209C192.07 180.915 191.881 180.566 191.75 180.164C191.626 179.756 191.563 179.308 191.563 178.821V173.279H193.663V178.821C193.663 179.354 193.785 179.767 194.028 180.062C194.278 180.351 194.649 180.495 195.142 180.495C195.504 180.495 195.844 180.416 196.162 180.257C196.479 180.093 196.779 179.869 197.063 179.586V173.279H199.162ZM204.432 177.427C204.692 177.427 204.919 177.393 205.112 177.325C205.304 177.251 205.463 177.152 205.588 177.027C205.718 176.903 205.814 176.753 205.877 176.577C205.945 176.401 205.979 176.209 205.979 175.999C205.979 175.568 205.848 175.228 205.588 174.979C205.333 174.724 204.947 174.596 204.432 174.596C203.916 174.596 203.528 174.724 203.267 174.979C203.012 175.228 202.885 175.568 202.885 175.999C202.885 176.203 202.916 176.393 202.978 176.568C203.046 176.744 203.142 176.897 203.267 177.027C203.397 177.152 203.559 177.251 203.752 177.325C203.95 177.393 204.177 177.427 204.432 177.427ZM206.803 182.391C206.803 182.221 206.752 182.082 206.65 181.974C206.548 181.867 206.409 181.785 206.234 181.728C206.058 181.666 205.851 181.62 205.613 181.592C205.381 181.564 205.131 181.544 204.865 181.532C204.604 181.515 204.332 181.501 204.049 181.49C203.771 181.479 203.499 181.456 203.233 181.422C203.001 181.552 202.811 181.705 202.664 181.881C202.522 182.057 202.451 182.261 202.451 182.493C202.451 182.646 202.488 182.788 202.562 182.918C202.641 183.054 202.763 183.17 202.927 183.267C203.097 183.363 203.315 183.437 203.582 183.488C203.848 183.544 204.174 183.573 204.559 183.573C204.95 183.573 205.287 183.541 205.571 183.479C205.854 183.422 206.086 183.34 206.268 183.233C206.455 183.131 206.591 183.006 206.676 182.859C206.761 182.717 206.803 182.561 206.803 182.391ZM208.894 173.576V174.358C208.894 174.608 208.744 174.761 208.444 174.817L207.662 174.962C207.781 175.262 207.84 175.591 207.84 175.948C207.84 176.379 207.752 176.77 207.577 177.121C207.407 177.467 207.169 177.761 206.863 178.005C206.557 178.249 206.194 178.438 205.775 178.574C205.361 178.705 204.913 178.77 204.432 178.77C204.262 178.77 204.097 178.761 203.939 178.744C203.78 178.727 203.624 178.705 203.471 178.676C203.199 178.841 203.063 179.025 203.063 179.229C203.063 179.405 203.142 179.535 203.301 179.62C203.465 179.699 203.681 179.756 203.947 179.79C204.213 179.824 204.517 179.847 204.857 179.858C205.197 179.864 205.545 179.881 205.902 179.909C206.259 179.937 206.608 179.988 206.948 180.062C207.288 180.13 207.591 180.24 207.857 180.393C208.123 180.546 208.336 180.756 208.495 181.022C208.659 181.283 208.741 181.62 208.741 182.034C208.741 182.419 208.645 182.793 208.452 183.156C208.265 183.519 207.99 183.842 207.628 184.125C207.271 184.408 206.829 184.635 206.302 184.805C205.78 184.981 205.185 185.069 204.517 185.069C203.859 185.069 203.287 185.003 202.8 184.873C202.312 184.748 201.907 184.578 201.584 184.363C201.261 184.153 201.02 183.91 200.862 183.632C200.703 183.354 200.624 183.065 200.624 182.765C200.624 182.357 200.745 182.017 200.989 181.745C201.238 181.467 201.578 181.246 202.009 181.082C201.777 180.963 201.593 180.804 201.457 180.606C201.321 180.408 201.253 180.147 201.253 179.824C201.253 179.694 201.275 179.56 201.321 179.424C201.372 179.283 201.442 179.144 201.533 179.008C201.629 178.872 201.748 178.744 201.89 178.625C202.032 178.501 202.199 178.39 202.392 178.294C201.95 178.056 201.601 177.739 201.346 177.342C201.097 176.945 200.972 176.481 200.972 175.948C200.972 175.517 201.057 175.129 201.227 174.783C201.403 174.432 201.644 174.135 201.95 173.891C202.261 173.642 202.627 173.452 203.046 173.321C203.471 173.191 203.933 173.126 204.432 173.126C204.806 173.126 205.157 173.166 205.486 173.245C205.814 173.319 206.115 173.429 206.387 173.576H208.894ZM217.739 173.279V182H216.456C216.178 182 216.003 181.872 215.929 181.617L215.784 180.92C215.427 181.283 215.034 181.578 214.603 181.804C214.172 182.025 213.665 182.136 213.081 182.136C212.605 182.136 212.183 182.057 211.815 181.898C211.452 181.734 211.146 181.504 210.897 181.209C210.648 180.915 210.458 180.566 210.327 180.164C210.203 179.756 210.14 179.308 210.14 178.821V173.279H212.24V178.821C212.24 179.354 212.362 179.767 212.605 180.062C212.855 180.351 213.226 180.495 213.719 180.495C214.082 180.495 214.422 180.416 214.739 180.257C215.056 180.093 215.357 179.869 215.64 179.586V173.279H217.739ZM225.142 174.979C225.086 175.07 225.026 175.135 224.964 175.174C224.901 175.208 224.822 175.225 224.726 175.225C224.624 175.225 224.513 175.197 224.394 175.14C224.281 175.084 224.148 175.021 223.995 174.953C223.842 174.88 223.666 174.815 223.468 174.758C223.275 174.701 223.046 174.673 222.779 174.673C222.366 174.673 222.04 174.761 221.802 174.936C221.569 175.112 221.453 175.342 221.453 175.625C221.453 175.812 221.513 175.971 221.632 176.101C221.756 176.226 221.918 176.336 222.116 176.432C222.32 176.529 222.55 176.617 222.805 176.696C223.06 176.77 223.318 176.852 223.578 176.942C223.845 177.033 224.105 177.138 224.36 177.257C224.615 177.37 224.842 177.518 225.04 177.699C225.244 177.875 225.406 178.087 225.525 178.336C225.649 178.586 225.712 178.886 225.712 179.237C225.712 179.657 225.635 180.045 225.482 180.402C225.335 180.753 225.114 181.059 224.819 181.32C224.525 181.575 224.159 181.776 223.723 181.923C223.292 182.065 222.793 182.136 222.227 182.136C221.926 182.136 221.632 182.108 221.343 182.051C221.059 182 220.785 181.926 220.518 181.83C220.258 181.734 220.014 181.62 219.787 181.49C219.566 181.36 219.371 181.218 219.201 181.065L219.685 180.266C219.748 180.17 219.821 180.096 219.906 180.045C219.991 179.994 220.099 179.968 220.229 179.968C220.36 179.968 220.481 180.005 220.595 180.079C220.714 180.153 220.85 180.232 221.003 180.317C221.156 180.402 221.334 180.481 221.538 180.555C221.748 180.629 222.011 180.665 222.329 180.665C222.578 180.665 222.791 180.637 222.966 180.58C223.148 180.518 223.295 180.439 223.408 180.342C223.527 180.246 223.612 180.136 223.663 180.011C223.72 179.881 223.748 179.747 223.748 179.611C223.748 179.407 223.686 179.24 223.561 179.11C223.442 178.98 223.281 178.866 223.077 178.77C222.878 178.674 222.649 178.589 222.388 178.515C222.133 178.436 221.87 178.351 221.598 178.26C221.331 178.169 221.068 178.064 220.807 177.945C220.552 177.821 220.323 177.665 220.119 177.478C219.92 177.291 219.759 177.061 219.634 176.789C219.515 176.517 219.456 176.189 219.456 175.803C219.456 175.446 219.527 175.106 219.668 174.783C219.81 174.46 220.017 174.18 220.289 173.942C220.566 173.698 220.909 173.506 221.317 173.364C221.731 173.217 222.207 173.143 222.745 173.143C223.346 173.143 223.893 173.242 224.386 173.44C224.879 173.639 225.29 173.899 225.618 174.222L225.142 174.979ZM230.199 182.136C229.44 182.136 228.856 181.923 228.448 181.498C228.046 181.068 227.844 180.476 227.844 179.722V174.851H226.952C226.839 174.851 226.742 174.815 226.663 174.741C226.584 174.667 226.544 174.557 226.544 174.409V173.576L227.946 173.347L228.388 170.967C228.417 170.854 228.471 170.766 228.55 170.703C228.629 170.641 228.731 170.61 228.856 170.61H229.944V173.355H232.273V174.851H229.944V179.577C229.944 179.849 230.009 180.062 230.139 180.215C230.275 180.368 230.46 180.444 230.692 180.444C230.822 180.444 230.93 180.43 231.015 180.402C231.106 180.368 231.182 180.334 231.244 180.3C231.312 180.266 231.372 180.235 231.423 180.206C231.474 180.172 231.525 180.155 231.576 180.155C231.638 180.155 231.689 180.172 231.729 180.206C231.769 180.235 231.811 180.28 231.856 180.342L232.485 181.362C232.179 181.617 231.828 181.81 231.431 181.94C231.035 182.071 230.624 182.136 230.199 182.136ZM245.052 180.045C245.279 180.045 245.458 180.11 245.588 180.24C245.724 180.365 245.792 180.532 245.792 180.742V182H237.36V181.303C237.36 181.161 237.388 181.014 237.445 180.861C237.507 180.702 237.604 180.561 237.734 180.436L241.465 176.696C241.777 176.379 242.055 176.075 242.298 175.786C242.548 175.497 242.755 175.211 242.919 174.928C243.083 174.645 243.208 174.358 243.293 174.069C243.384 173.775 243.429 173.466 243.429 173.143C243.429 172.848 243.386 172.59 243.301 172.369C243.216 172.143 243.095 171.953 242.936 171.8C242.783 171.647 242.596 171.534 242.375 171.46C242.16 171.381 241.916 171.341 241.644 171.341C241.395 171.341 241.162 171.378 240.947 171.451C240.737 171.519 240.55 171.619 240.386 171.749C240.222 171.874 240.083 172.021 239.969 172.191C239.856 172.361 239.771 172.548 239.714 172.752C239.618 173.013 239.493 173.185 239.34 173.27C239.187 173.355 238.966 173.375 238.677 173.33L237.572 173.134C237.657 172.545 237.822 172.029 238.065 171.587C238.309 171.14 238.612 170.769 238.975 170.474C239.343 170.174 239.763 169.95 240.233 169.802C240.709 169.649 241.219 169.573 241.763 169.573C242.33 169.573 242.848 169.658 243.318 169.828C243.789 169.992 244.191 170.227 244.525 170.533C244.86 170.839 245.12 171.208 245.307 171.638C245.494 172.069 245.588 172.548 245.588 173.075C245.588 173.528 245.52 173.948 245.384 174.333C245.254 174.718 245.075 175.087 244.848 175.438C244.627 175.789 244.367 176.129 244.066 176.458C243.766 176.787 243.452 177.121 243.123 177.461L240.352 180.291C240.618 180.212 240.882 180.153 241.142 180.113C241.409 180.068 241.661 180.045 241.899 180.045H245.052ZM247.493 173.134C247.578 172.545 247.743 172.029 247.986 171.587C248.23 171.14 248.533 170.769 248.896 170.474C249.264 170.174 249.683 169.95 250.154 169.802C250.63 169.649 251.14 169.573 251.684 169.573C252.25 169.573 252.76 169.655 253.214 169.819C253.673 169.978 254.064 170.202 254.387 170.491C254.71 170.774 254.956 171.109 255.126 171.494C255.302 171.879 255.39 172.296 255.39 172.743C255.39 173.134 255.344 173.48 255.254 173.78C255.169 174.075 255.044 174.333 254.88 174.554C254.715 174.775 254.511 174.962 254.268 175.115C254.024 175.268 253.749 175.395 253.443 175.497C254.18 175.73 254.73 176.084 255.092 176.56C255.455 177.036 255.636 177.634 255.636 178.353C255.636 178.965 255.523 179.507 255.296 179.977C255.07 180.447 254.764 180.844 254.378 181.167C253.993 181.484 253.545 181.725 253.035 181.889C252.531 182.054 251.995 182.136 251.429 182.136C250.811 182.136 250.273 182.065 249.814 181.923C249.355 181.782 248.955 181.572 248.615 181.294C248.275 181.017 247.986 180.677 247.748 180.274C247.51 179.872 247.306 179.407 247.136 178.88L248.063 178.498C248.306 178.396 248.533 178.37 248.743 178.421C248.958 178.467 249.114 178.58 249.21 178.761C249.312 178.96 249.423 179.155 249.542 179.348C249.666 179.541 249.814 179.713 249.984 179.866C250.154 180.014 250.352 180.136 250.579 180.232C250.811 180.323 251.086 180.368 251.403 180.368C251.76 180.368 252.072 180.311 252.338 180.198C252.605 180.079 252.826 179.926 253.001 179.739C253.183 179.552 253.316 179.345 253.401 179.118C253.491 178.886 253.537 178.654 253.537 178.421C253.537 178.127 253.506 177.86 253.443 177.622C253.381 177.379 253.251 177.172 253.052 177.002C252.854 176.832 252.568 176.699 252.194 176.602C251.825 176.506 251.33 176.458 250.706 176.458V174.962C251.222 174.956 251.65 174.908 251.99 174.817C252.33 174.727 252.599 174.602 252.797 174.443C253.001 174.279 253.143 174.084 253.222 173.857C253.302 173.63 253.341 173.381 253.341 173.109C253.341 172.531 253.18 172.092 252.857 171.791C252.534 171.491 252.103 171.341 251.565 171.341C251.315 171.341 251.086 171.378 250.876 171.451C250.667 171.519 250.477 171.619 250.307 171.749C250.142 171.874 250.004 172.021 249.89 172.191C249.777 172.361 249.692 172.548 249.635 172.752C249.539 173.013 249.411 173.185 249.253 173.27C249.1 173.355 248.882 173.375 248.598 173.33L247.493 173.134ZM257.44 184.083C257.338 183.998 257.287 183.893 257.287 183.768C257.287 183.723 257.301 183.672 257.329 183.615C257.363 183.558 257.403 183.507 257.448 183.462C257.51 183.394 257.587 183.309 257.678 183.207C257.768 183.111 257.859 182.997 257.95 182.867C258.04 182.742 258.122 182.604 258.196 182.451C258.275 182.303 258.335 182.145 258.375 181.974C258.193 181.974 258.029 181.943 257.882 181.881C257.734 181.813 257.607 181.722 257.499 181.609C257.397 181.496 257.315 181.362 257.253 181.209C257.196 181.056 257.168 180.889 257.168 180.708C257.168 180.549 257.196 180.402 257.253 180.266C257.315 180.124 257.4 180.002 257.508 179.9C257.615 179.793 257.746 179.711 257.899 179.654C258.052 179.592 258.219 179.56 258.4 179.56C258.615 179.56 258.802 179.6 258.961 179.679C259.125 179.753 259.259 179.858 259.361 179.994C259.468 180.124 259.548 180.277 259.599 180.453C259.655 180.623 259.684 180.804 259.684 180.997C259.684 181.269 259.641 181.555 259.556 181.855C259.477 182.156 259.358 182.456 259.199 182.757C259.04 183.057 258.842 183.349 258.604 183.632C258.372 183.915 258.105 184.176 257.805 184.414L257.44 184.083ZM272.893 180.045C273.12 180.045 273.298 180.11 273.429 180.24C273.565 180.365 273.633 180.532 273.633 180.742V182H265.201V181.303C265.201 181.161 265.229 181.014 265.286 180.861C265.348 180.702 265.444 180.561 265.575 180.436L269.306 176.696C269.618 176.379 269.896 176.075 270.139 175.786C270.389 175.497 270.595 175.211 270.76 174.928C270.924 174.645 271.049 174.358 271.134 174.069C271.224 173.775 271.27 173.466 271.27 173.143C271.27 172.848 271.227 172.59 271.142 172.369C271.057 172.143 270.935 171.953 270.777 171.8C270.624 171.647 270.437 171.534 270.216 171.46C270 171.381 269.757 171.341 269.485 171.341C269.235 171.341 269.003 171.378 268.788 171.451C268.578 171.519 268.391 171.619 268.227 171.749C268.062 171.874 267.924 172.021 267.81 172.191C267.697 172.361 267.612 172.548 267.555 172.752C267.459 173.013 267.334 173.185 267.181 173.27C267.028 173.355 266.807 173.375 266.518 173.33L265.413 173.134C265.498 172.545 265.663 172.029 265.906 171.587C266.15 171.14 266.453 170.769 266.816 170.474C267.184 170.174 267.603 169.95 268.074 169.802C268.55 169.649 269.06 169.573 269.604 169.573C270.17 169.573 270.689 169.658 271.159 169.828C271.63 169.992 272.032 170.227 272.366 170.533C272.701 170.839 272.961 171.208 273.148 171.638C273.335 172.069 273.429 172.548 273.429 173.075C273.429 173.528 273.361 173.948 273.225 174.333C273.094 174.718 272.916 175.087 272.689 175.438C272.468 175.789 272.208 176.129 271.907 176.458C271.607 176.787 271.292 177.121 270.964 177.461L268.193 180.291C268.459 180.212 268.723 180.153 268.983 180.113C269.25 180.068 269.502 180.045 269.74 180.045H272.893ZM283.851 175.854C283.851 176.925 283.735 177.858 283.503 178.651C283.276 179.439 282.959 180.09 282.551 180.606C282.148 181.122 281.669 181.507 281.114 181.762C280.564 182.011 279.969 182.136 279.329 182.136C278.689 182.136 278.094 182.011 277.544 181.762C277 181.507 276.527 181.122 276.125 180.606C275.722 180.09 275.408 179.439 275.181 178.651C274.954 177.858 274.841 176.925 274.841 175.854C274.841 174.778 274.954 173.846 275.181 173.058C275.408 172.27 275.722 171.619 276.125 171.103C276.527 170.587 277 170.205 277.544 169.955C278.094 169.7 278.689 169.573 279.329 169.573C279.969 169.573 280.564 169.7 281.114 169.955C281.669 170.205 282.148 170.587 282.551 171.103C282.959 171.619 283.276 172.27 283.503 173.058C283.735 173.846 283.851 174.778 283.851 175.854ZM281.684 175.854C281.684 174.965 281.618 174.228 281.488 173.644C281.358 173.061 281.182 172.596 280.961 172.25C280.746 171.905 280.496 171.664 280.213 171.528C279.93 171.386 279.635 171.315 279.329 171.315C279.029 171.315 278.737 171.386 278.454 171.528C278.176 171.664 277.929 171.905 277.714 172.25C277.499 172.596 277.326 173.061 277.196 173.644C277.071 174.228 277.009 174.965 277.009 175.854C277.009 176.744 277.071 177.481 277.196 178.064C277.326 178.648 277.499 179.113 277.714 179.458C277.929 179.804 278.176 180.048 278.454 180.189C278.737 180.325 279.029 180.393 279.329 180.393C279.635 180.393 279.93 180.325 280.213 180.189C280.496 180.048 280.746 179.804 280.961 179.458C281.182 179.113 281.358 178.648 281.488 178.064C281.618 177.481 281.684 176.744 281.684 175.854ZM292.616 180.045C292.843 180.045 293.021 180.11 293.151 180.24C293.287 180.365 293.355 180.532 293.355 180.742V182H284.923V181.303C284.923 181.161 284.952 181.014 285.008 180.861C285.071 180.702 285.167 180.561 285.297 180.436L289.029 176.696C289.341 176.379 289.618 176.075 289.862 175.786C290.111 175.497 290.318 175.211 290.482 174.928C290.647 174.645 290.771 174.358 290.856 174.069C290.947 173.775 290.992 173.466 290.992 173.143C290.992 172.848 290.95 172.59 290.865 172.369C290.78 172.143 290.658 171.953 290.499 171.8C290.346 171.647 290.159 171.534 289.938 171.46C289.723 171.381 289.479 171.341 289.207 171.341C288.958 171.341 288.726 171.378 288.51 171.451C288.301 171.519 288.114 171.619 287.949 171.749C287.785 171.874 287.646 172.021 287.533 172.191C287.42 172.361 287.335 172.548 287.278 172.752C287.182 173.013 287.057 173.185 286.904 173.27C286.751 173.355 286.53 173.375 286.241 173.33L285.136 173.134C285.221 172.545 285.385 172.029 285.629 171.587C285.873 171.14 286.176 170.769 286.538 170.474C286.907 170.174 287.326 169.95 287.796 169.802C288.272 169.649 288.782 169.573 289.326 169.573C289.893 169.573 290.412 169.658 290.882 169.828C291.352 169.992 291.755 170.227 292.089 170.533C292.423 170.839 292.684 171.208 292.871 171.638C293.058 172.069 293.151 172.548 293.151 173.075C293.151 173.528 293.083 173.948 292.947 174.333C292.817 174.718 292.639 175.087 292.412 175.438C292.191 175.789 291.93 176.129 291.63 176.458C291.33 176.787 291.015 177.121 290.686 177.461L287.915 180.291C288.182 180.212 288.445 180.153 288.706 180.113C288.972 180.068 289.224 180.045 289.462 180.045H292.616ZM303.574 175.854C303.574 176.925 303.458 177.858 303.225 178.651C302.999 179.439 302.681 180.09 302.273 180.606C301.871 181.122 301.392 181.507 300.837 181.762C300.287 182.011 299.692 182.136 299.052 182.136C298.411 182.136 297.816 182.011 297.267 181.762C296.723 181.507 296.25 181.122 295.847 180.606C295.445 180.09 295.13 179.439 294.904 178.651C294.677 177.858 294.564 176.925 294.564 175.854C294.564 174.778 294.677 173.846 294.904 173.058C295.13 172.27 295.445 171.619 295.847 171.103C296.25 170.587 296.723 170.205 297.267 169.955C297.816 169.7 298.411 169.573 299.052 169.573C299.692 169.573 300.287 169.7 300.837 169.955C301.392 170.205 301.871 170.587 302.273 171.103C302.681 171.619 302.999 172.27 303.225 173.058C303.458 173.846 303.574 174.778 303.574 175.854ZM301.406 175.854C301.406 174.965 301.341 174.228 301.211 173.644C301.08 173.061 300.905 172.596 300.684 172.25C300.468 171.905 300.219 171.664 299.936 171.528C299.652 171.386 299.358 171.315 299.052 171.315C298.751 171.315 298.46 171.386 298.176 171.528C297.899 171.664 297.652 171.905 297.437 172.25C297.221 172.596 297.049 173.061 296.918 173.644C296.794 174.228 296.731 174.965 296.731 175.854C296.731 176.744 296.794 177.481 296.918 178.064C297.049 178.648 297.221 179.113 297.437 179.458C297.652 179.804 297.899 180.048 298.176 180.189C298.46 180.325 298.751 180.393 299.052 180.393C299.358 180.393 299.652 180.325 299.936 180.189C300.219 180.048 300.468 179.804 300.684 179.458C300.905 179.113 301.08 178.648 301.211 178.064C301.341 177.481 301.406 176.744 301.406 175.854Z" fill="#33334B"/>
<path d="M309 114H310V180H309V114Z" fill="#C4C4C4"/>
<circle cx="310" cy="121" r="4.5" fill="white" stroke="#17B573" stroke-width="3"/>
<defs>
<filter id="filter0_d" x="0" y="0" width="351" height="211" filterUnits="userSpaceOnUse" color-interpolation-filters="sRGB">
<feFlood flood-opacity="0" result="BackgroundImageFix"/>
<feColorMatrix in="SourceAlpha" type="matrix" values="0 0 0 0 0 0 0 0 0 0 0 0 0 0 0 0 0 0 127 0"/>
<feOffset dy="1"/>
<feGaussianBlur stdDeviation="2"/>
<feColorMatrix type="matrix" values="0 0 0 0 0 0 0 0 0 0 0 0 0 0 0 0 0 0 0.12 0"/>
<feBlend mode="normal" in2="BackgroundImageFix" result="effect1_dropShadow"/>
<feBlend mode="normal" in="SourceGraphic" in2="effect1_dropShadow" result="shape"/>
</filter>
</defs>
</svg>
