<svg width="725" height="156" viewBox="0 0 725 156" fill="none" xmlns="http://www.w3.org/2000/svg">
<g filter="url(#filter0_d)">
<path d="M4 7C4 4.79086 5.79086 3 8 3H717C719.209 3 721 4.79086 721 7V147C721 149.209 719.209 151 717 151H8.00001C5.79087 151 4 149.209 4 147V7Z" fill="white"/>
</g>
<path d="M46.881 46.469C47.0203 46.469 47.1413 46.524 47.244 46.634L48.267 47.745C47.6217 48.5223 46.8297 49.1237 45.891 49.549C44.9523 49.967 43.8303 50.176 42.525 50.176C41.3663 50.176 40.3177 49.978 39.379 49.582C38.4477 49.1787 37.652 48.6213 36.992 47.91C36.332 47.1913 35.8223 46.337 35.463 45.347C35.111 44.357 34.935 43.268 34.935 42.08C34.935 40.892 35.122 39.803 35.496 38.813C35.8773 37.8157 36.409 36.9613 37.091 36.25C37.7803 35.5313 38.6017 34.974 39.555 34.578C40.5157 34.182 41.5717 33.984 42.723 33.984C43.867 33.984 44.8753 34.171 45.748 34.545C46.628 34.9117 47.3907 35.403 48.036 36.019L47.189 37.218C47.1303 37.2987 47.0607 37.3683 46.98 37.427C46.8993 37.4857 46.7893 37.515 46.65 37.515C46.5033 37.515 46.3347 37.449 46.144 37.317C45.9607 37.1777 45.7223 37.0273 45.429 36.866C45.143 36.6973 44.78 36.547 44.34 36.415C43.9073 36.2757 43.3647 36.206 42.712 36.206C41.9567 36.206 41.2637 36.338 40.633 36.602C40.0023 36.866 39.4597 37.251 39.005 37.757C38.5503 38.263 38.1947 38.879 37.938 39.605C37.6887 40.331 37.564 41.156 37.564 42.08C37.564 43.0113 37.696 43.8437 37.96 44.577C38.224 45.303 38.587 45.919 39.049 46.425C39.511 46.9237 40.0537 47.305 40.677 47.569C41.3003 47.833 41.9713 47.965 42.69 47.965C43.13 47.965 43.5223 47.943 43.867 47.899C44.219 47.8477 44.5417 47.7707 44.835 47.668C45.1283 47.558 45.4033 47.4223 45.66 47.261C45.924 47.0997 46.1843 46.9017 46.441 46.667C46.5877 46.535 46.7343 46.469 46.881 46.469ZM54.665 38.604C55.4937 38.604 56.2417 38.7397 56.909 39.011C57.5837 39.2823 58.1557 39.6673 58.625 40.166C59.1017 40.6647 59.4684 41.2697 59.725 41.981C59.9817 42.6923 60.11 43.4917 60.11 44.379C60.11 45.2663 59.9817 46.0657 59.725 46.777C59.4684 47.4883 59.1017 48.097 58.625 48.603C58.1557 49.1017 57.5837 49.4867 56.909 49.758C56.2417 50.0293 55.4937 50.165 54.665 50.165C53.829 50.165 53.0737 50.0293 52.399 49.758C51.7317 49.4867 51.1597 49.1017 50.683 48.603C50.2064 48.097 49.8397 47.4883 49.583 46.777C49.3264 46.0657 49.198 45.2663 49.198 44.379C49.198 43.4917 49.3264 42.6923 49.583 41.981C49.8397 41.2697 50.2064 40.6647 50.683 40.166C51.1597 39.6673 51.7317 39.2823 52.399 39.011C53.0737 38.7397 53.829 38.604 54.665 38.604ZM54.665 48.317C55.677 48.317 56.4287 47.9797 56.92 47.305C57.4187 46.623 57.668 45.6513 57.668 44.39C57.668 43.1287 57.4187 42.157 56.92 41.475C56.4287 40.7857 55.677 40.441 54.665 40.441C53.6384 40.441 52.8757 40.7857 52.377 41.475C51.8784 42.157 51.629 43.1287 51.629 44.39C51.629 45.6513 51.8784 46.623 52.377 47.305C52.8757 47.9797 53.6384 48.317 54.665 48.317ZM64.6154 40.859C64.9674 40.1477 65.3927 39.5903 65.8914 39.187C66.3901 38.7763 66.9877 38.571 67.6844 38.571C67.9264 38.571 68.1537 38.6003 68.3664 38.659C68.5791 38.7103 68.7697 38.791 68.9384 38.901L68.7734 40.683C68.7441 40.8077 68.6964 40.8957 68.6304 40.947C68.5717 40.991 68.4911 41.013 68.3884 41.013C68.2784 41.013 68.1207 40.9947 67.9154 40.958C67.7101 40.914 67.4937 40.892 67.2664 40.892C66.9364 40.892 66.6431 40.9397 66.3864 41.035C66.1371 41.1303 65.9097 41.2697 65.7044 41.453C65.5064 41.6363 65.3304 41.86 65.1764 42.124C65.0224 42.388 64.8794 42.6887 64.7474 43.026V50H62.3824V38.78H63.7574C64.0067 38.78 64.1791 38.8277 64.2744 38.923C64.3697 39.011 64.4357 39.1687 64.4724 39.396L64.6154 40.859ZM77.4758 43.125C77.4758 42.729 77.4171 42.3623 77.2998 42.025C77.1898 41.6803 77.0248 41.3833 76.8048 41.134C76.5848 40.8773 76.3098 40.6793 75.9798 40.54C75.6571 40.3933 75.2831 40.32 74.8578 40.32C73.9998 40.32 73.3251 40.5657 72.8338 41.057C72.3424 41.5483 72.0308 42.2377 71.8988 43.125H77.4758ZM71.8328 44.577C71.8621 45.215 71.9611 45.7687 72.1298 46.238C72.2984 46.7 72.5221 47.085 72.8008 47.393C73.0868 47.701 73.4241 47.932 73.8128 48.086C74.2088 48.2327 74.6488 48.306 75.1328 48.306C75.5948 48.306 75.9944 48.2547 76.3318 48.152C76.6691 48.042 76.9624 47.9247 77.2118 47.8C77.4611 47.668 77.6738 47.5507 77.8498 47.448C78.0258 47.338 78.1871 47.283 78.3338 47.283C78.5244 47.283 78.6711 47.3563 78.7738 47.503L79.4448 48.372C79.1661 48.702 78.8508 48.9807 78.4988 49.208C78.1468 49.4353 77.7728 49.6223 77.3768 49.769C76.9808 49.9083 76.5738 50.0073 76.1558 50.066C75.7378 50.132 75.3308 50.165 74.9348 50.165C74.1574 50.165 73.4351 50.0367 72.7678 49.78C72.1078 49.516 71.5321 49.131 71.0408 48.625C70.5568 48.119 70.1754 47.492 69.8968 46.744C69.6254 45.996 69.4898 45.1343 69.4898 44.159C69.4898 43.3817 69.6108 42.6557 69.8528 41.981C70.1021 41.3063 70.4541 40.7197 70.9088 40.221C71.3708 39.7223 71.9281 39.33 72.5808 39.044C73.2408 38.7507 73.9851 38.604 74.8138 38.604C75.5031 38.604 76.1411 38.7177 76.7278 38.945C77.3144 39.165 77.8204 39.4913 78.2458 39.924C78.6711 40.3567 79.0011 40.8883 79.2358 41.519C79.4778 42.1423 79.5988 42.8537 79.5988 43.653C79.5988 44.0197 79.5584 44.2653 79.4778 44.39C79.3971 44.5147 79.2504 44.577 79.0378 44.577H71.8328ZM90.8798 50.176C89.9485 50.176 89.2298 49.9157 88.7238 49.395C88.2251 48.867 87.9758 48.1263 87.9758 47.173V40.639H86.7438C86.6118 40.639 86.4981 40.5987 86.4028 40.518C86.3075 40.43 86.2598 40.3017 86.2598 40.133V39.176L88.0748 38.912L88.5918 35.667C88.6285 35.5423 88.6908 35.4433 88.7788 35.37C88.8668 35.2893 88.9841 35.249 89.1308 35.249H90.3408V38.934H93.4538V40.639H90.3408V47.008C90.3408 47.4113 90.4398 47.7193 90.6378 47.932C90.8358 48.1447 91.0998 48.251 91.4298 48.251C91.6131 48.251 91.7708 48.229 91.9028 48.185C92.0348 48.1337 92.1485 48.0823 92.2438 48.031C92.3391 47.9723 92.4198 47.921 92.4858 47.877C92.5591 47.8257 92.6288 47.8 92.6948 47.8C92.8268 47.8 92.9331 47.8733 93.0138 48.02L93.7178 49.175C93.3511 49.4977 92.9185 49.747 92.4198 49.923C91.9211 50.0917 91.4078 50.176 90.8798 50.176ZM101.313 45.094C100.47 45.1233 99.7583 45.193 99.179 45.303C98.5996 45.4057 98.1303 45.5413 97.771 45.71C97.4116 45.8713 97.1513 46.0657 96.99 46.293C96.836 46.5203 96.759 46.7697 96.759 47.041C96.759 47.305 96.7993 47.5323 96.88 47.723C96.968 47.9063 97.0853 48.0603 97.232 48.185C97.386 48.3023 97.562 48.3903 97.76 48.449C97.9653 48.5003 98.189 48.526 98.431 48.526C99.047 48.526 99.575 48.4123 100.015 48.185C100.462 47.9503 100.895 47.613 101.313 47.173V45.094ZM95.043 40.342C96.3116 39.1613 97.8223 38.571 99.575 38.571C100.22 38.571 100.792 38.6773 101.291 38.89C101.797 39.0953 102.219 39.3887 102.556 39.77C102.901 40.1513 103.161 40.606 103.337 41.134C103.52 41.6547 103.612 42.234 103.612 42.872V50H102.556C102.329 50 102.156 49.967 102.039 49.901C101.922 49.8277 101.823 49.6847 101.742 49.472L101.511 48.559C101.225 48.8157 100.943 49.0467 100.664 49.252C100.385 49.45 100.096 49.6187 99.795 49.758C99.5016 49.8973 99.1826 50 98.838 50.066C98.5006 50.1393 98.1266 50.176 97.716 50.176C97.2613 50.176 96.836 50.1137 96.44 49.989C96.0513 49.8643 95.714 49.6773 95.428 49.428C95.142 49.1713 94.9146 48.856 94.746 48.482C94.5846 48.108 94.504 47.668 94.504 47.162C94.504 46.7293 94.6176 46.3077 94.845 45.897C95.0796 45.4863 95.461 45.1197 95.989 44.797C96.5243 44.467 97.2246 44.1957 98.09 43.983C98.9626 43.7703 100.037 43.6493 101.313 43.62V42.872C101.313 42.0653 101.141 41.464 100.796 41.068C100.451 40.672 99.9453 40.474 99.278 40.474C98.8233 40.474 98.442 40.5327 98.134 40.65C97.826 40.76 97.5583 40.881 97.331 41.013C97.1036 41.145 96.902 41.2697 96.726 41.387C96.55 41.497 96.363 41.552 96.165 41.552C96.0036 41.552 95.8643 41.5117 95.747 41.431C95.637 41.343 95.5453 41.2367 95.472 41.112L95.043 40.342ZM113.081 40.815C113.023 40.9177 112.957 40.991 112.883 41.035C112.81 41.079 112.718 41.101 112.608 41.101C112.484 41.101 112.348 41.0643 112.201 40.991C112.055 40.9103 111.882 40.8223 111.684 40.727C111.486 40.6317 111.252 40.5473 110.98 40.474C110.716 40.3933 110.405 40.353 110.045 40.353C109.752 40.353 109.484 40.3897 109.242 40.463C109.008 40.529 108.806 40.628 108.637 40.76C108.476 40.8847 108.351 41.035 108.263 41.211C108.175 41.3797 108.131 41.563 108.131 41.761C108.131 42.025 108.212 42.245 108.373 42.421C108.535 42.597 108.747 42.751 109.011 42.883C109.275 43.0077 109.576 43.1213 109.913 43.224C110.251 43.3267 110.595 43.4367 110.947 43.554C111.299 43.6713 111.644 43.807 111.981 43.961C112.319 44.115 112.619 44.3057 112.883 44.533C113.147 44.753 113.36 45.0243 113.521 45.347C113.683 45.6623 113.763 46.0473 113.763 46.502C113.763 47.03 113.668 47.5177 113.477 47.965C113.287 48.4123 113.008 48.801 112.641 49.131C112.275 49.461 111.816 49.7177 111.266 49.901C110.724 50.0843 110.1 50.176 109.396 50.176C109.008 50.176 108.63 50.1393 108.263 50.066C107.904 50 107.559 49.9083 107.229 49.791C106.907 49.6663 106.602 49.5197 106.316 49.351C106.038 49.1823 105.788 48.999 105.568 48.801L106.118 47.899C106.184 47.789 106.265 47.7047 106.36 47.646C106.463 47.58 106.588 47.547 106.734 47.547C106.888 47.547 107.039 47.5983 107.185 47.701C107.339 47.7963 107.515 47.9027 107.713 48.02C107.919 48.1373 108.164 48.2473 108.45 48.35C108.736 48.4453 109.092 48.493 109.517 48.493C109.869 48.493 110.174 48.4527 110.43 48.372C110.687 48.284 110.9 48.1667 111.068 48.02C111.237 47.8733 111.362 47.7083 111.442 47.525C111.523 47.3343 111.563 47.1327 111.563 46.92C111.563 46.634 111.483 46.3993 111.321 46.216C111.16 46.0327 110.944 45.875 110.672 45.743C110.408 45.611 110.104 45.4937 109.759 45.391C109.422 45.2883 109.077 45.1783 108.725 45.061C108.373 44.9437 108.025 44.808 107.68 44.654C107.343 44.5 107.039 44.3057 106.767 44.071C106.503 43.829 106.291 43.5393 106.129 43.202C105.968 42.8573 105.887 42.4393 105.887 41.948C105.887 41.5007 105.975 41.0753 106.151 40.672C106.335 40.2687 106.599 39.913 106.943 39.605C107.295 39.297 107.724 39.055 108.23 38.879C108.744 38.6957 109.334 38.604 110.001 38.604C110.757 38.604 111.442 38.725 112.058 38.967C112.674 39.209 113.191 39.539 113.609 39.957L113.081 40.815ZM118.351 33.72V43.158H118.857C119.018 43.158 119.15 43.136 119.253 43.092C119.356 43.048 119.462 42.9563 119.572 42.817L122.718 39.22C122.828 39.0733 122.949 38.9633 123.081 38.89C123.213 38.8167 123.382 38.78 123.587 38.78H125.732L121.948 43.048C121.728 43.334 121.486 43.5613 121.222 43.73C121.369 43.8327 121.497 43.95 121.607 44.082C121.717 44.2067 121.823 44.3497 121.926 44.511L125.963 50H123.851C123.66 50 123.495 49.9707 123.356 49.912C123.224 49.846 123.107 49.7287 123.004 49.56L119.759 45.16C119.649 44.9913 119.539 44.885 119.429 44.841C119.319 44.7897 119.154 44.764 118.934 44.764H118.351V50H115.986V33.72H118.351ZM127.304 48.636C127.304 48.4233 127.341 48.2253 127.414 48.042C127.495 47.8513 127.601 47.6863 127.733 47.547C127.872 47.4077 128.034 47.2977 128.217 47.217C128.408 47.1363 128.609 47.096 128.822 47.096C129.035 47.096 129.233 47.1363 129.416 47.217C129.607 47.2977 129.772 47.4077 129.911 47.547C130.05 47.6863 130.16 47.8513 130.241 48.042C130.322 48.2253 130.362 48.4233 130.362 48.636C130.362 48.856 130.322 49.0577 130.241 49.241C130.16 49.4243 130.05 49.5857 129.911 49.725C129.772 49.8643 129.607 49.9707 129.416 50.044C129.233 50.1247 129.035 50.165 128.822 50.165C128.609 50.165 128.408 50.1247 128.217 50.044C128.034 49.9707 127.872 49.8643 127.733 49.725C127.601 49.5857 127.495 49.4243 127.414 49.241C127.341 49.0577 127.304 48.856 127.304 48.636ZM127.304 40.617C127.304 40.4043 127.341 40.2063 127.414 40.023C127.495 39.8323 127.601 39.6673 127.733 39.528C127.872 39.3887 128.034 39.2787 128.217 39.198C128.408 39.1173 128.609 39.077 128.822 39.077C129.035 39.077 129.233 39.1173 129.416 39.198C129.607 39.2787 129.772 39.3887 129.911 39.528C130.05 39.6673 130.16 39.8323 130.241 40.023C130.322 40.2063 130.362 40.4043 130.362 40.617C130.362 40.837 130.322 41.0387 130.241 41.222C130.16 41.4053 130.05 41.5667 129.911 41.706C129.772 41.8453 129.607 41.9553 129.416 42.036C129.233 42.1093 129.035 42.146 128.822 42.146C128.609 42.146 128.408 42.1093 128.217 42.036C128.034 41.9553 127.872 41.8453 127.733 41.706C127.601 41.5667 127.495 41.4053 127.414 41.222C127.341 41.0387 127.304 40.837 127.304 40.617ZM145.035 44.148V38.362C145.035 37.9 145.068 37.394 145.134 36.844L139.81 44.148H145.035ZM149.281 44.148V45.512C149.281 45.644 149.237 45.7577 149.149 45.853C149.068 45.9483 148.943 45.996 148.775 45.996H147.092V50H145.035V45.996H138.182C138.013 45.996 137.866 45.9483 137.742 45.853C137.624 45.7503 137.547 45.6257 137.511 45.479L137.269 44.269L144.87 34.149H147.092V44.148H149.281ZM160.689 47.767C160.946 47.767 161.148 47.844 161.294 47.998C161.441 48.1447 161.514 48.3353 161.514 48.57V50H150.8V49.197C150.8 49.0357 150.833 48.867 150.899 48.691C150.965 48.515 151.072 48.3537 151.218 48.207L156.146 43.268C156.564 42.85 156.935 42.4503 157.257 42.069C157.587 41.6877 157.866 41.3063 158.093 40.925C158.328 40.5437 158.504 40.1587 158.621 39.77C158.746 39.374 158.808 38.9597 158.808 38.527C158.808 38.109 158.742 37.7423 158.61 37.427C158.486 37.1043 158.31 36.8403 158.082 36.635C157.862 36.4223 157.595 36.2647 157.279 36.162C156.971 36.052 156.63 35.997 156.256 35.997C155.897 35.997 155.563 36.0483 155.255 36.151C154.955 36.2537 154.683 36.3967 154.441 36.58C154.207 36.7633 154.009 36.9833 153.847 37.24C153.693 37.4893 153.58 37.7643 153.506 38.065C153.396 38.3657 153.253 38.5673 153.077 38.67C152.909 38.7727 152.659 38.7947 152.329 38.736L151.086 38.516C151.196 37.768 151.402 37.1117 151.702 36.547C152.01 35.9823 152.395 35.513 152.857 35.139C153.319 34.7577 153.847 34.4717 154.441 34.281C155.043 34.083 155.692 33.984 156.388 33.984C157.092 33.984 157.738 34.0903 158.324 34.303C158.918 34.5083 159.428 34.8053 159.853 35.194C160.286 35.5753 160.623 36.041 160.865 36.591C161.107 37.141 161.228 37.7607 161.228 38.45C161.228 39.0367 161.14 39.5793 160.964 40.078C160.796 40.5767 160.565 41.0533 160.271 41.508C159.978 41.9627 159.633 42.4063 159.237 42.839C158.849 43.2643 158.438 43.697 158.005 44.137L154.177 48.053C154.493 47.965 154.808 47.8953 155.123 47.844C155.446 47.7927 155.75 47.767 156.036 47.767H160.689Z" fill="#0B0B14"/>
<path d="M34 94C34 85.1634 41.1634 78 50 78H675C683.837 78 691 85.1634 691 94V94C691 102.837 683.837 110 675 110H50C41.1635 110 34 102.837 34 94V94Z" fill="#E8E8E8"/>
<path d="M150 94C150 85.1634 157.163 78 166 78H447V110H166C157.163 110 150 102.837 150 94V94Z" fill="#3282FA"/>
<path d="M34 94C34 85.1634 41.1634 78 50 78H370V110H50C41.1634 110 34 102.837 34 94V94Z" fill="#17B573"/>
<path d="M58.81 98.7C59.0767 98.7 59.2867 98.7767 59.44 98.93C59.6 99.0767 59.68 99.2733 59.68 99.52V101H49.76V100.18C49.76 100.013 49.7933 99.84 49.86 99.66C49.9333 99.4733 50.0467 99.3067 50.2 99.16L54.59 94.76C54.9567 94.3867 55.2833 94.03 55.57 93.69C55.8633 93.35 56.1067 93.0133 56.3 92.68C56.4933 92.3467 56.64 92.01 56.74 91.67C56.8467 91.3233 56.9 90.96 56.9 90.58C56.9 90.2333 56.85 89.93 56.75 89.67C56.65 89.4033 56.5067 89.18 56.32 89C56.14 88.82 55.92 88.6867 55.66 88.6C55.4067 88.5067 55.12 88.46 54.8 88.46C54.5067 88.46 54.2333 88.5033 53.98 88.59C53.7333 88.67 53.5133 88.7867 53.32 88.94C53.1267 89.0867 52.9633 89.26 52.83 89.46C52.6967 89.66 52.5967 89.88 52.53 90.12C52.4167 90.4267 52.27 90.63 52.09 90.73C51.91 90.83 51.65 90.8533 51.31 90.8L50.01 90.57C50.11 89.8767 50.3033 89.27 50.59 88.75C50.8767 88.2233 51.2333 87.7867 51.66 87.44C52.0933 87.0867 52.5867 86.8233 53.14 86.65C53.7 86.47 54.3 86.38 54.94 86.38C55.6067 86.38 56.2167 86.48 56.77 86.68C57.3233 86.8733 57.7967 87.15 58.19 87.51C58.5833 87.87 58.89 88.3033 59.11 88.81C59.33 89.3167 59.44 89.88 59.44 90.5C59.44 91.0333 59.36 91.5267 59.2 91.98C59.0467 92.4333 58.8367 92.8667 58.57 93.28C58.31 93.6933 58.0033 94.0933 57.65 94.48C57.2967 94.8667 56.9267 95.26 56.54 95.66L53.28 98.99C53.5933 98.8967 53.9033 98.8267 54.21 98.78C54.5233 98.7267 54.82 98.7 55.1 98.7H58.81ZM66.4016 99.23C66.8082 99.23 67.1649 99.1733 67.4716 99.06C67.7782 98.94 68.0349 98.7767 68.2416 98.57C68.4549 98.3633 68.6149 98.1167 68.7216 97.83C68.8282 97.5433 68.8816 97.2333 68.8816 96.9C68.8816 96.1067 68.6616 95.5067 68.2216 95.1C67.7816 94.6933 67.1749 94.49 66.4016 94.49C65.6282 94.49 65.0216 94.6933 64.5816 95.1C64.1416 95.5067 63.9216 96.1067 63.9216 96.9C63.9216 97.2333 63.9749 97.5433 64.0816 97.83C64.1882 98.1167 64.3449 98.3633 64.5516 98.57C64.7649 98.7767 65.0249 98.94 65.3316 99.06C65.6382 99.1733 65.9949 99.23 66.4016 99.23ZM66.4016 88.24C66.0349 88.24 65.7182 88.2967 65.4516 88.41C65.1849 88.5233 64.9616 88.6767 64.7816 88.87C64.6082 89.0567 64.4782 89.2733 64.3916 89.52C64.3116 89.7667 64.2716 90.0267 64.2716 90.3C64.2716 90.5867 64.3049 90.8667 64.3716 91.14C64.4449 91.4067 64.5649 91.6467 64.7316 91.86C64.8982 92.0667 65.1182 92.2333 65.3916 92.36C65.6649 92.4867 66.0016 92.55 66.4016 92.55C66.8016 92.55 67.1382 92.4867 67.4116 92.36C67.6849 92.2333 67.9049 92.0667 68.0716 91.86C68.2382 91.6467 68.3549 91.4067 68.4216 91.14C68.4949 90.8667 68.5316 90.5867 68.5316 90.3C68.5316 90.0267 68.4882 89.7667 68.4016 89.52C68.3149 89.2733 68.1849 89.0567 68.0116 88.87C67.8382 88.6767 67.6182 88.5233 67.3516 88.41C67.0849 88.2967 66.7682 88.24 66.4016 88.24ZM68.8416 93.46C69.7216 93.7467 70.3716 94.1867 70.7916 94.78C71.2116 95.3667 71.4216 96.0867 71.4216 96.94C71.4216 97.58 71.2982 98.16 71.0516 98.68C70.8116 99.2 70.4716 99.6433 70.0316 100.01C69.5916 100.377 69.0616 100.66 68.4416 100.86C67.8282 101.06 67.1482 101.16 66.4016 101.16C65.6549 101.16 64.9716 101.06 64.3516 100.86C63.7382 100.66 63.2116 100.377 62.7716 100.01C62.3316 99.6433 61.9882 99.2 61.7416 98.68C61.5016 98.16 61.3816 97.58 61.3816 96.94C61.3816 96.0867 61.5916 95.3667 62.0116 94.78C62.4316 94.1867 63.0816 93.7467 63.9616 93.46C63.2616 93.1667 62.7349 92.75 62.3816 92.21C62.0349 91.67 61.8616 91.02 61.8616 90.26C61.8616 89.7133 61.9716 89.2033 62.1916 88.73C62.4182 88.2567 62.7316 87.8467 63.1316 87.5C63.5316 87.1467 64.0082 86.8733 64.5616 86.68C65.1216 86.48 65.7349 86.38 66.4016 86.38C67.0682 86.38 67.6782 86.48 68.2316 86.68C68.7916 86.8733 69.2716 87.1467 69.6716 87.5C70.0716 87.8467 70.3816 88.2567 70.6016 88.73C70.8282 89.2033 70.9416 89.7133 70.9416 90.26C70.9416 91.02 70.7649 91.67 70.4116 92.21C70.0649 92.75 69.5416 93.1667 68.8416 93.46ZM82.4284 95.652C82.2324 95.414 82.0177 95.246 81.7844 95.148C81.5557 95.05 81.3084 95.001 81.0424 95.001C80.7811 95.001 80.5454 95.05 80.3354 95.148C80.1254 95.246 79.9457 95.3953 79.7964 95.596C79.6471 95.792 79.5327 96.044 79.4534 96.352C79.3741 96.6553 79.3344 97.0147 79.3344 97.43C79.3344 97.85 79.3671 98.207 79.4324 98.501C79.5024 98.7903 79.6004 99.0283 79.7264 99.215C79.8524 99.397 80.0064 99.53 80.1884 99.614C80.3704 99.6933 80.5734 99.733 80.7974 99.733C81.1567 99.733 81.4624 99.6583 81.7144 99.509C81.9664 99.3597 82.2044 99.1473 82.4284 98.872V95.652ZM84.1574 90.598V101H83.1004C82.8717 101 82.7271 100.895 82.6664 100.685L82.5194 99.992C82.2301 100.323 81.8964 100.592 81.5184 100.797C81.1451 101.002 80.7087 101.105 80.2094 101.105C79.8174 101.105 79.4581 101.023 79.1314 100.86C78.8047 100.697 78.5224 100.461 78.2844 100.153C78.0511 99.8403 77.8691 99.4553 77.7384 98.998C77.6124 98.5407 77.5494 98.018 77.5494 97.43C77.5494 96.898 77.6217 96.4033 77.7664 95.946C77.9111 95.4887 78.1187 95.092 78.3894 94.756C78.6601 94.42 78.9844 94.1587 79.3624 93.972C79.7404 93.7807 80.1651 93.685 80.6364 93.685C81.0377 93.685 81.3807 93.748 81.6654 93.874C81.9501 94 82.2044 94.1703 82.4284 94.385V90.598H84.1574ZM89.0418 93.706C89.5738 93.706 90.0568 93.7923 90.4908 93.965C90.9294 94.1377 91.3028 94.3827 91.6108 94.7C91.9234 95.0173 92.1638 95.4047 92.3318 95.862C92.4998 96.3193 92.5838 96.8303 92.5838 97.395C92.5838 97.9643 92.4998 98.4777 92.3318 98.935C92.1638 99.3923 91.9234 99.782 91.6108 100.104C91.3028 100.426 90.9294 100.673 90.4908 100.846C90.0568 101.019 89.5738 101.105 89.0418 101.105C88.5051 101.105 88.0174 101.019 87.5788 100.846C87.1401 100.673 86.7644 100.426 86.4518 100.104C86.1438 99.782 85.9034 99.3923 85.7308 98.935C85.5628 98.4777 85.4788 97.9643 85.4788 97.395C85.4788 96.8303 85.5628 96.3193 85.7308 95.862C85.9034 95.4047 86.1438 95.0173 86.4518 94.7C86.7644 94.3827 87.1401 94.1377 87.5788 93.965C88.0174 93.7923 88.5051 93.706 89.0418 93.706ZM89.0418 99.775C89.6391 99.775 90.0801 99.5743 90.3648 99.173C90.6541 98.7717 90.7988 98.1837 90.7988 97.409C90.7988 96.6343 90.6541 96.044 90.3648 95.638C90.0801 95.232 89.6391 95.029 89.0418 95.029C88.4351 95.029 87.9848 95.2343 87.6908 95.645C87.4014 96.051 87.2568 96.639 87.2568 97.409C87.2568 98.179 87.4014 98.767 87.6908 99.173C87.9848 99.5743 88.4351 99.775 89.0418 99.775ZM95.5198 94.7C95.6645 94.5553 95.8162 94.4223 95.9748 94.301C96.1382 94.175 96.3085 94.07 96.4858 93.986C96.6678 93.8973 96.8615 93.8297 97.0668 93.783C97.2722 93.7317 97.4962 93.706 97.7388 93.706C98.1308 93.706 98.4785 93.7737 98.7818 93.909C99.0852 94.0397 99.3372 94.2263 99.5378 94.469C99.7432 94.707 99.8972 94.994 99.9998 95.33C100.107 95.6613 100.161 96.0277 100.161 96.429V101H98.4318V96.429C98.4318 95.9903 98.3315 95.652 98.1308 95.414C97.9302 95.1713 97.6245 95.05 97.2138 95.05C96.9152 95.05 96.6352 95.1177 96.3738 95.253C96.1125 95.3883 95.8652 95.5727 95.6318 95.806V101H93.9028V93.818H94.9598C95.1838 93.818 95.3308 93.923 95.4008 94.133L95.5198 94.7ZM106.432 96.583C106.432 96.359 106.4 96.149 106.334 95.953C106.274 95.7523 106.18 95.5773 106.054 95.428C105.928 95.2787 105.767 95.162 105.571 95.078C105.38 94.9893 105.156 94.945 104.899 94.945C104.4 94.945 104.006 95.0873 103.716 95.372C103.432 95.6567 103.25 96.0603 103.17 96.583H106.432ZM103.135 97.626C103.163 97.9947 103.229 98.3143 103.331 98.585C103.434 98.851 103.569 99.0727 103.737 99.25C103.905 99.4227 104.104 99.5533 104.332 99.642C104.566 99.726 104.822 99.768 105.102 99.768C105.382 99.768 105.623 99.7353 105.823 99.67C106.029 99.6047 106.206 99.5323 106.355 99.453C106.509 99.3737 106.642 99.3013 106.754 99.236C106.871 99.1707 106.983 99.138 107.09 99.138C107.235 99.138 107.342 99.1917 107.412 99.299L107.909 99.929C107.718 100.153 107.503 100.342 107.265 100.496C107.027 100.645 106.778 100.767 106.516 100.86C106.26 100.949 105.996 101.012 105.725 101.049C105.459 101.086 105.2 101.105 104.948 101.105C104.449 101.105 103.985 101.023 103.555 100.86C103.126 100.692 102.753 100.447 102.435 100.125C102.118 99.7983 101.868 99.397 101.686 98.921C101.504 98.4403 101.413 97.885 101.413 97.255C101.413 96.765 101.493 96.3053 101.651 95.876C101.81 95.442 102.036 95.0663 102.33 94.749C102.629 94.427 102.991 94.1727 103.415 93.986C103.845 93.7993 104.328 93.706 104.864 93.706C105.317 93.706 105.735 93.7783 106.117 93.923C106.5 94.0677 106.829 94.28 107.104 94.56C107.38 94.8353 107.594 95.176 107.748 95.582C107.907 95.9833 107.986 96.443 107.986 96.961C107.986 97.2223 107.958 97.3997 107.902 97.493C107.846 97.5817 107.739 97.626 107.58 97.626H103.135Z" fill="white"/>
<path d="M392.92 86.54V87.61C392.92 87.93 392.887 88.19 392.82 88.39C392.753 88.5833 392.687 88.7467 392.62 88.88L387.14 100.16C387.027 100.393 386.867 100.593 386.66 100.76C386.453 100.92 386.177 101 385.83 101H384.04L389.63 89.95C389.757 89.7233 389.88 89.5167 390 89.33C390.127 89.1367 390.267 88.9533 390.42 88.78H383.5C383.347 88.78 383.213 88.7233 383.1 88.61C382.987 88.4967 382.93 88.3633 382.93 88.21V86.54H392.92ZM401.111 93.818V101H399.375V93.818H401.111ZM401.349 91.725C401.349 91.8743 401.319 92.0143 401.258 92.145C401.197 92.2757 401.116 92.39 401.013 92.488C400.915 92.586 400.798 92.6653 400.663 92.726C400.528 92.782 400.383 92.81 400.229 92.81C400.08 92.81 399.937 92.782 399.802 92.726C399.671 92.6653 399.557 92.586 399.459 92.488C399.361 92.39 399.282 92.2757 399.221 92.145C399.165 92.0143 399.137 91.8743 399.137 91.725C399.137 91.571 399.165 91.4263 399.221 91.291C399.282 91.1557 399.361 91.039 399.459 90.941C399.557 90.843 399.671 90.766 399.802 90.71C399.937 90.6493 400.08 90.619 400.229 90.619C400.383 90.619 400.528 90.6493 400.663 90.71C400.798 90.766 400.915 90.843 401.013 90.941C401.116 91.039 401.197 91.1557 401.258 91.291C401.319 91.4263 401.349 91.571 401.349 91.725ZM404.491 94.7C404.635 94.5553 404.787 94.4223 404.946 94.301C405.109 94.175 405.279 94.07 405.457 93.986C405.639 93.8973 405.832 93.8297 406.038 93.783C406.243 93.7317 406.467 93.706 406.71 93.706C407.102 93.706 407.449 93.7737 407.753 93.909C408.056 94.0397 408.308 94.2263 408.509 94.469C408.714 94.707 408.868 94.994 408.971 95.33C409.078 95.6613 409.132 96.0277 409.132 96.429V101H407.403V96.429C407.403 95.9903 407.302 95.652 407.102 95.414C406.901 95.1713 406.595 95.05 406.185 95.05C405.886 95.05 405.606 95.1177 405.345 95.253C405.083 95.3883 404.836 95.5727 404.603 95.806V101H402.874V93.818H403.931C404.155 93.818 404.302 93.923 404.372 94.133L404.491 94.7ZM415.909 99.138C416.105 99.376 416.318 99.544 416.546 99.642C416.78 99.74 417.032 99.789 417.302 99.789C417.564 99.789 417.799 99.74 418.009 99.642C418.219 99.544 418.397 99.3947 418.541 99.194C418.691 98.9933 418.805 98.7413 418.884 98.438C418.964 98.13 419.003 97.7683 419.003 97.353C419.003 96.933 418.968 96.5783 418.898 96.289C418.833 95.995 418.737 95.757 418.611 95.575C418.485 95.393 418.331 95.26 418.149 95.176C417.972 95.092 417.769 95.05 417.54 95.05C417.181 95.05 416.875 95.127 416.623 95.281C416.371 95.4303 416.133 95.6427 415.909 95.918V99.138ZM415.818 94.798C416.112 94.4667 416.446 94.1983 416.819 93.993C417.193 93.7877 417.631 93.685 418.135 93.685C418.527 93.685 418.884 93.7667 419.206 93.93C419.533 94.0933 419.813 94.3313 420.046 94.644C420.284 94.952 420.466 95.3347 420.592 95.792C420.723 96.2447 420.788 96.765 420.788 97.353C420.788 97.8897 420.716 98.3867 420.571 98.844C420.427 99.3013 420.219 99.698 419.948 100.034C419.682 100.37 419.358 100.634 418.975 100.825C418.597 101.012 418.173 101.105 417.701 101.105C417.3 101.105 416.957 101.044 416.672 100.923C416.388 100.797 416.133 100.624 415.909 100.405V103.345H414.18V93.818H415.237C415.461 93.818 415.608 93.923 415.678 94.133L415.818 94.798ZM423.768 95.064C423.992 94.6347 424.258 94.2987 424.566 94.056C424.874 93.8087 425.238 93.685 425.658 93.685C425.99 93.685 426.256 93.7573 426.456 93.902L426.344 95.197C426.321 95.281 426.286 95.3417 426.239 95.379C426.197 95.4117 426.139 95.428 426.064 95.428C425.994 95.428 425.889 95.4163 425.749 95.393C425.614 95.3697 425.481 95.358 425.35 95.358C425.159 95.358 424.989 95.386 424.839 95.442C424.69 95.498 424.555 95.5797 424.433 95.687C424.317 95.7897 424.212 95.9157 424.118 96.065C424.03 96.2143 423.946 96.3847 423.866 96.576V101H422.137V93.818H423.152C423.33 93.818 423.453 93.8507 423.523 93.916C423.593 93.9767 423.64 94.0887 423.663 94.252L423.768 95.064ZM430.333 93.706C430.865 93.706 431.348 93.7923 431.782 93.965C432.22 94.1377 432.594 94.3827 432.902 94.7C433.214 95.0173 433.455 95.4047 433.623 95.862C433.791 96.3193 433.875 96.8303 433.875 97.395C433.875 97.9643 433.791 98.4777 433.623 98.935C433.455 99.3923 433.214 99.782 432.902 100.104C432.594 100.426 432.22 100.673 431.782 100.846C431.348 101.019 430.865 101.105 430.333 101.105C429.796 101.105 429.308 101.019 428.87 100.846C428.431 100.673 428.055 100.426 427.743 100.104C427.435 99.782 427.194 99.3923 427.022 98.935C426.854 98.4777 426.77 97.9643 426.77 97.395C426.77 96.8303 426.854 96.3193 427.022 95.862C427.194 95.4047 427.435 95.0173 427.743 94.7C428.055 94.3827 428.431 94.1377 428.87 93.965C429.308 93.7923 429.796 93.706 430.333 93.706ZM430.333 99.775C430.93 99.775 431.371 99.5743 431.656 99.173C431.945 98.7717 432.09 98.1837 432.09 97.409C432.09 96.6343 431.945 96.044 431.656 95.638C431.371 95.232 430.93 95.029 430.333 95.029C429.726 95.029 429.276 95.2343 428.982 95.645C428.692 96.051 428.548 96.639 428.548 97.409C428.548 98.179 428.692 98.767 428.982 99.173C429.276 99.5743 429.726 99.775 430.333 99.775ZM437.764 97.234C437.979 97.234 438.165 97.206 438.324 97.15C438.483 97.0893 438.613 97.0077 438.716 96.905C438.823 96.8023 438.903 96.6787 438.954 96.534C439.01 96.3893 439.038 96.2307 439.038 96.058C439.038 95.7033 438.931 95.4233 438.716 95.218C438.506 95.008 438.189 94.903 437.764 94.903C437.339 94.903 437.02 95.008 436.805 95.218C436.595 95.4233 436.49 95.7033 436.49 96.058C436.49 96.226 436.516 96.3823 436.567 96.527C436.623 96.6717 436.702 96.7977 436.805 96.905C436.912 97.0077 437.045 97.0893 437.204 97.15C437.367 97.206 437.554 97.234 437.764 97.234ZM439.717 101.322C439.717 101.182 439.675 101.068 439.591 100.979C439.507 100.89 439.393 100.823 439.248 100.776C439.103 100.725 438.933 100.687 438.737 100.664C438.546 100.641 438.34 100.624 438.121 100.615C437.906 100.601 437.682 100.589 437.449 100.58C437.22 100.571 436.996 100.552 436.777 100.524C436.586 100.631 436.429 100.757 436.308 100.902C436.191 101.047 436.133 101.215 436.133 101.406C436.133 101.532 436.163 101.649 436.224 101.756C436.289 101.868 436.39 101.964 436.525 102.043C436.665 102.122 436.845 102.183 437.064 102.225C437.283 102.272 437.552 102.295 437.869 102.295C438.191 102.295 438.469 102.269 438.702 102.218C438.935 102.171 439.127 102.104 439.276 102.015C439.43 101.931 439.542 101.828 439.612 101.707C439.682 101.59 439.717 101.462 439.717 101.322ZM441.439 94.063V94.707C441.439 94.9123 441.315 95.0383 441.068 95.085L440.424 95.204C440.522 95.4513 440.571 95.722 440.571 96.016C440.571 96.3707 440.499 96.6927 440.354 96.982C440.214 97.2667 440.018 97.5093 439.766 97.71C439.514 97.9107 439.215 98.067 438.87 98.179C438.529 98.2863 438.161 98.34 437.764 98.34C437.624 98.34 437.489 98.333 437.358 98.319C437.227 98.305 437.099 98.2863 436.973 98.263C436.749 98.3983 436.637 98.55 436.637 98.718C436.637 98.8627 436.702 98.97 436.833 99.04C436.968 99.1053 437.146 99.152 437.365 99.18C437.584 99.208 437.834 99.2267 438.114 99.236C438.394 99.2407 438.681 99.2547 438.975 99.278C439.269 99.3013 439.556 99.3433 439.836 99.404C440.116 99.46 440.366 99.551 440.585 99.677C440.804 99.803 440.979 99.9757 441.11 100.195C441.245 100.41 441.313 100.687 441.313 101.028C441.313 101.345 441.234 101.653 441.075 101.952C440.921 102.251 440.695 102.517 440.396 102.75C440.102 102.983 439.738 103.17 439.304 103.31C438.875 103.455 438.385 103.527 437.834 103.527C437.293 103.527 436.821 103.473 436.42 103.366C436.019 103.263 435.685 103.123 435.419 102.946C435.153 102.773 434.955 102.573 434.824 102.344C434.693 102.115 434.628 101.877 434.628 101.63C434.628 101.294 434.728 101.014 434.929 100.79C435.134 100.561 435.414 100.379 435.769 100.244C435.578 100.146 435.426 100.015 435.314 99.852C435.202 99.6887 435.146 99.474 435.146 99.208C435.146 99.1007 435.165 98.991 435.202 98.879C435.244 98.7623 435.302 98.648 435.377 98.536C435.456 98.424 435.554 98.319 435.671 98.221C435.788 98.1183 435.925 98.0273 436.084 97.948C435.72 97.752 435.433 97.4907 435.223 97.164C435.018 96.8373 434.915 96.4547 434.915 96.016C434.915 95.6613 434.985 95.3417 435.125 95.057C435.27 94.7677 435.468 94.5227 435.72 94.322C435.977 94.1167 436.278 93.9603 436.623 93.853C436.973 93.7457 437.353 93.692 437.764 93.692C438.072 93.692 438.361 93.7247 438.632 93.79C438.903 93.8507 439.15 93.9417 439.374 94.063H441.439ZM444.167 95.064C444.391 94.6347 444.657 94.2987 444.965 94.056C445.273 93.8087 445.637 93.685 446.057 93.685C446.388 93.685 446.654 93.7573 446.855 93.902L446.743 95.197C446.719 95.281 446.684 95.3417 446.638 95.379C446.596 95.4117 446.537 95.428 446.463 95.428C446.393 95.428 446.288 95.4163 446.148 95.393C446.012 95.3697 445.879 95.358 445.749 95.358C445.557 95.358 445.387 95.386 445.238 95.442C445.088 95.498 444.953 95.5797 444.832 95.687C444.715 95.7897 444.61 95.9157 444.517 96.065C444.428 96.2143 444.344 96.3847 444.265 96.576V101H442.536V93.818H443.551C443.728 93.818 443.852 93.8507 443.922 93.916C443.992 93.9767 444.038 94.0887 444.062 94.252L444.167 95.064ZM452.18 96.583C452.18 96.359 452.148 96.149 452.082 95.953C452.022 95.7523 451.928 95.5773 451.802 95.428C451.676 95.2787 451.515 95.162 451.319 95.078C451.128 94.9893 450.904 94.945 450.647 94.945C450.148 94.945 449.754 95.0873 449.464 95.372C449.18 95.6567 448.998 96.0603 448.918 96.583H452.18ZM448.883 97.626C448.911 97.9947 448.977 98.3143 449.079 98.585C449.182 98.851 449.317 99.0727 449.485 99.25C449.653 99.4227 449.852 99.5533 450.08 99.642C450.314 99.726 450.57 99.768 450.85 99.768C451.13 99.768 451.371 99.7353 451.571 99.67C451.777 99.6047 451.954 99.5323 452.103 99.453C452.257 99.3737 452.39 99.3013 452.502 99.236C452.619 99.1707 452.731 99.138 452.838 99.138C452.983 99.138 453.09 99.1917 453.16 99.299L453.657 99.929C453.466 100.153 453.251 100.342 453.013 100.496C452.775 100.645 452.526 100.767 452.264 100.86C452.008 100.949 451.744 101.012 451.473 101.049C451.207 101.086 450.948 101.105 450.696 101.105C450.197 101.105 449.733 101.023 449.303 100.86C448.874 100.692 448.501 100.447 448.183 100.125C447.866 99.7983 447.616 99.397 447.434 98.921C447.252 98.4403 447.161 97.885 447.161 97.255C447.161 96.765 447.241 96.3053 447.399 95.876C447.558 95.442 447.784 95.0663 448.078 94.749C448.377 94.427 448.739 94.1727 449.163 93.986C449.593 93.7993 450.076 93.706 450.612 93.706C451.065 93.706 451.483 93.7783 451.865 93.923C452.248 94.0677 452.577 94.28 452.852 94.56C453.128 94.8353 453.342 95.176 453.496 95.582C453.655 95.9833 453.734 96.443 453.734 96.961C453.734 97.2223 453.706 97.3997 453.65 97.493C453.594 97.5817 453.487 97.626 453.328 97.626H448.883ZM459.414 95.218C459.367 95.2927 459.318 95.3463 459.267 95.379C459.215 95.407 459.15 95.421 459.071 95.421C458.987 95.421 458.896 95.3977 458.798 95.351C458.704 95.3043 458.595 95.253 458.469 95.197C458.343 95.1363 458.198 95.0827 458.035 95.036C457.876 94.9893 457.687 94.966 457.468 94.966C457.127 94.966 456.859 95.0383 456.663 95.183C456.471 95.3277 456.376 95.5167 456.376 95.75C456.376 95.904 456.425 96.0347 456.523 96.142C456.625 96.2447 456.758 96.3357 456.922 96.415C457.09 96.4943 457.279 96.5667 457.489 96.632C457.699 96.6927 457.911 96.7603 458.126 96.835C458.345 96.9097 458.56 96.996 458.77 97.094C458.98 97.1873 459.166 97.3087 459.33 97.458C459.498 97.6027 459.631 97.7777 459.729 97.983C459.831 98.1883 459.883 98.4357 459.883 98.725C459.883 99.0703 459.82 99.39 459.694 99.684C459.572 99.9733 459.39 100.225 459.148 100.44C458.905 100.65 458.604 100.816 458.245 100.937C457.89 101.054 457.479 101.112 457.013 101.112C456.765 101.112 456.523 101.089 456.285 101.042C456.051 101 455.825 100.939 455.606 100.86C455.391 100.781 455.19 100.687 455.004 100.58C454.822 100.473 454.661 100.356 454.521 100.23L454.92 99.572C454.971 99.4927 455.032 99.432 455.102 99.39C455.172 99.348 455.26 99.327 455.368 99.327C455.475 99.327 455.575 99.3573 455.669 99.418C455.767 99.4787 455.879 99.544 456.005 99.614C456.131 99.684 456.278 99.7493 456.446 99.81C456.618 99.8707 456.835 99.901 457.097 99.901C457.302 99.901 457.477 99.8777 457.622 99.831C457.771 99.7797 457.892 99.7143 457.986 99.635C458.084 99.5557 458.154 99.4647 458.196 99.362C458.242 99.2547 458.266 99.145 458.266 99.033C458.266 98.865 458.214 98.7273 458.112 98.62C458.014 98.5127 457.881 98.4193 457.713 98.34C457.549 98.2607 457.36 98.1907 457.146 98.13C456.936 98.0647 456.719 97.9947 456.495 97.92C456.275 97.8453 456.058 97.759 455.844 97.661C455.634 97.5583 455.445 97.43 455.277 97.276C455.113 97.122 454.98 96.933 454.878 96.709C454.78 96.485 454.731 96.2143 454.731 95.897C454.731 95.603 454.789 95.323 454.906 95.057C455.022 94.791 455.193 94.56 455.417 94.364C455.645 94.1633 455.928 94.0047 456.264 93.888C456.604 93.7667 456.996 93.706 457.44 93.706C457.934 93.706 458.385 93.7877 458.791 93.951C459.197 94.1143 459.535 94.329 459.806 94.595L459.414 95.218ZM465.566 95.218C465.519 95.2927 465.47 95.3463 465.419 95.379C465.368 95.407 465.302 95.421 465.223 95.421C465.139 95.421 465.048 95.3977 464.95 95.351C464.857 95.3043 464.747 95.253 464.621 95.197C464.495 95.1363 464.35 95.0827 464.187 95.036C464.028 94.9893 463.839 94.966 463.62 94.966C463.279 94.966 463.011 95.0383 462.815 95.183C462.624 95.3277 462.528 95.5167 462.528 95.75C462.528 95.904 462.577 96.0347 462.675 96.142C462.778 96.2447 462.911 96.3357 463.074 96.415C463.242 96.4943 463.431 96.5667 463.641 96.632C463.851 96.6927 464.063 96.7603 464.278 96.835C464.497 96.9097 464.712 96.996 464.922 97.094C465.132 97.1873 465.319 97.3087 465.482 97.458C465.65 97.6027 465.783 97.7777 465.881 97.983C465.984 98.1883 466.035 98.4357 466.035 98.725C466.035 99.0703 465.972 99.39 465.846 99.684C465.725 99.9733 465.543 100.225 465.3 100.44C465.057 100.65 464.756 100.816 464.397 100.937C464.042 101.054 463.632 101.112 463.165 101.112C462.918 101.112 462.675 101.089 462.437 101.042C462.204 101 461.977 100.939 461.758 100.86C461.543 100.781 461.343 100.687 461.156 100.58C460.974 100.473 460.813 100.356 460.673 100.23L461.072 99.572C461.123 99.4927 461.184 99.432 461.254 99.39C461.324 99.348 461.413 99.327 461.52 99.327C461.627 99.327 461.728 99.3573 461.821 99.418C461.919 99.4787 462.031 99.544 462.157 99.614C462.283 99.684 462.43 99.7493 462.598 99.81C462.771 99.8707 462.988 99.901 463.249 99.901C463.454 99.901 463.629 99.8777 463.774 99.831C463.923 99.7797 464.045 99.7143 464.138 99.635C464.236 99.5557 464.306 99.4647 464.348 99.362C464.395 99.2547 464.418 99.145 464.418 99.033C464.418 98.865 464.367 98.7273 464.264 98.62C464.166 98.5127 464.033 98.4193 463.865 98.34C463.702 98.2607 463.513 98.1907 463.298 98.13C463.088 98.0647 462.871 97.9947 462.647 97.92C462.428 97.8453 462.211 97.759 461.996 97.661C461.786 97.5583 461.597 97.43 461.429 97.276C461.266 97.122 461.133 96.933 461.03 96.709C460.932 96.485 460.883 96.2143 460.883 95.897C460.883 95.603 460.941 95.323 461.058 95.057C461.175 94.791 461.345 94.56 461.569 94.364C461.798 94.1633 462.08 94.0047 462.416 93.888C462.757 93.7667 463.149 93.706 463.592 93.706C464.087 93.706 464.537 93.7877 464.943 93.951C465.349 94.1143 465.687 94.329 465.958 94.595L465.566 95.218Z" fill="white"/>
<defs>
<filter id="filter0_d" x="0" y="0" width="725" height="156" filterUnits="userSpaceOnUse" color-interpolation-filters="sRGB">
<feFlood flood-opacity="0" result="BackgroundImageFix"/>
<feColorMatrix in="SourceAlpha" type="matrix" values="0 0 0 0 0 0 0 0 0 0 0 0 0 0 0 0 0 0 127 0"/>
<feOffset dy="1"/>
<feGaussianBlur stdDeviation="2"/>
<feColorMatrix type="matrix" values="0 0 0 0 0 0 0 0 0 0 0 0 0 0 0 0 0 0 0.12 0"/>
<feBlend mode="normal" in2="BackgroundImageFix" result="effect1_dropShadow"/>
<feBlend mode="normal" in="SourceGraphic" in2="effect1_dropShadow" result="shape"/>
</filter>
</defs>
</svg>
