<svg width="351" height="168" viewBox="0 0 351 168" fill="none" xmlns="http://www.w3.org/2000/svg">
<g filter="url(#filter0_d)">
<path d="M4 7C4 4.79086 5.79086 3 8 3H343C345.209 3 347 4.79086 347 7V159C347 161.209 345.209 163 343 163H8.00001C5.79087 163 4 161.209 4 159V7Z" fill="white"/>
</g>
<path d="M34.539 38.111C34.653 38.111 34.752 38.156 34.836 38.246L35.673 39.155C35.145 39.791 34.497 40.283 33.729 40.631C32.961 40.973 32.043 41.144 30.975 41.144C30.027 41.144 29.169 40.982 28.401 40.658C27.639 40.328 26.988 39.872 26.448 39.29C25.908 38.702 25.491 38.003 25.197 37.193C24.909 36.383 24.765 35.492 24.765 34.52C24.765 33.548 24.918 32.657 25.224 31.847C25.536 31.031 25.971 30.332 26.529 29.75C27.093 29.162 27.765 28.706 28.545 28.382C29.331 28.058 30.195 27.896 31.137 27.896C32.073 27.896 32.898 28.049 33.612 28.355C34.332 28.655 34.956 29.057 35.484 29.561L34.791 30.542C34.743 30.608 34.686 30.665 34.62 30.713C34.554 30.761 34.464 30.785 34.35 30.785C34.23 30.785 34.092 30.731 33.936 30.623C33.786 30.509 33.591 30.386 33.351 30.254C33.117 30.116 32.82 29.993 32.46 29.885C32.106 29.771 31.662 29.714 31.128 29.714C30.51 29.714 29.943 29.822 29.427 30.038C28.911 30.254 28.467 30.569 28.095 30.983C27.723 31.397 27.432 31.901 27.222 32.495C27.018 33.089 26.916 33.764 26.916 34.52C26.916 35.282 27.024 35.963 27.24 36.563C27.456 37.157 27.753 37.661 28.131 38.075C28.509 38.483 28.953 38.795 29.463 39.011C29.973 39.227 30.522 39.335 31.11 39.335C31.47 39.335 31.791 39.317 32.073 39.281C32.361 39.239 32.625 39.176 32.865 39.092C33.105 39.002 33.33 38.891 33.54 38.759C33.756 38.627 33.969 38.465 34.179 38.273C34.299 38.165 34.419 38.111 34.539 38.111ZM40.9078 31.676C41.5858 31.676 42.1978 31.787 42.7438 32.009C43.2958 32.231 43.7638 32.546 44.1478 32.954C44.5378 33.362 44.8378 33.857 45.0478 34.439C45.2578 35.021 45.3628 35.675 45.3628 36.401C45.3628 37.127 45.2578 37.781 45.0478 38.363C44.8378 38.945 44.5378 39.443 44.1478 39.857C43.7638 40.265 43.2958 40.58 42.7438 40.802C42.1978 41.024 41.5858 41.135 40.9078 41.135C40.2238 41.135 39.6058 41.024 39.0538 40.802C38.5078 40.58 38.0398 40.265 37.6498 39.857C37.2598 39.443 36.9598 38.945 36.7498 38.363C36.5398 37.781 36.4348 37.127 36.4348 36.401C36.4348 35.675 36.5398 35.021 36.7498 34.439C36.9598 33.857 37.2598 33.362 37.6498 32.954C38.0398 32.546 38.5078 32.231 39.0538 32.009C39.6058 31.787 40.2238 31.676 40.9078 31.676ZM40.9078 39.623C41.7358 39.623 42.3508 39.347 42.7528 38.795C43.1608 38.237 43.3648 37.442 43.3648 36.41C43.3648 35.378 43.1608 34.583 42.7528 34.025C42.3508 33.461 41.7358 33.179 40.9078 33.179C40.0678 33.179 39.4438 33.461 39.0358 34.025C38.6278 34.583 38.4238 35.378 38.4238 36.41C38.4238 37.442 38.6278 38.237 39.0358 38.795C39.4438 39.347 40.0678 39.623 40.9078 39.623ZM49.049 33.521C49.337 32.939 49.685 32.483 50.093 32.153C50.501 31.817 50.99 31.649 51.56 31.649C51.758 31.649 51.944 31.673 52.118 31.721C52.292 31.763 52.448 31.829 52.586 31.919L52.451 33.377C52.427 33.479 52.388 33.551 52.334 33.593C52.286 33.629 52.22 33.647 52.136 33.647C52.046 33.647 51.917 33.632 51.749 33.602C51.581 33.566 51.404 33.548 51.218 33.548C50.948 33.548 50.708 33.587 50.498 33.665C50.294 33.743 50.108 33.857 49.94 34.007C49.778 34.157 49.634 34.34 49.508 34.556C49.382 34.772 49.265 35.018 49.157 35.294V41H47.222V31.82H48.347C48.551 31.82 48.692 31.859 48.77 31.937C48.848 32.009 48.902 32.138 48.932 32.324L49.049 33.521ZM59.5711 35.375C59.5711 35.051 59.5231 34.751 59.4271 34.475C59.3371 34.193 59.2021 33.95 59.0221 33.746C58.8421 33.536 58.6171 33.374 58.3471 33.26C58.0831 33.14 57.7771 33.08 57.4291 33.08C56.7271 33.08 56.1751 33.281 55.7731 33.683C55.3711 34.085 55.1161 34.649 55.0081 35.375H59.5711ZM54.9541 36.563C54.9781 37.085 55.0591 37.538 55.1971 37.922C55.3351 38.3 55.5181 38.615 55.7461 38.867C55.9801 39.119 56.2561 39.308 56.5741 39.434C56.8981 39.554 57.2581 39.614 57.6541 39.614C58.0321 39.614 58.3591 39.572 58.6351 39.488C58.9111 39.398 59.1511 39.302 59.3551 39.2C59.5591 39.092 59.7331 38.996 59.8771 38.912C60.0211 38.822 60.1531 38.777 60.2731 38.777C60.4291 38.777 60.5491 38.837 60.6331 38.957L61.1821 39.668C60.9541 39.938 60.6961 40.166 60.4081 40.352C60.1201 40.538 59.8141 40.691 59.4901 40.811C59.1661 40.925 58.8331 41.006 58.4911 41.054C58.1491 41.108 57.8161 41.135 57.4921 41.135C56.8561 41.135 56.2651 41.03 55.7191 40.82C55.1791 40.604 54.7081 40.289 54.3061 39.875C53.9101 39.461 53.5981 38.948 53.3701 38.336C53.1481 37.724 53.0371 37.019 53.0371 36.221C53.0371 35.585 53.1361 34.991 53.3341 34.439C53.5381 33.887 53.8261 33.407 54.1981 32.999C54.5761 32.591 55.0321 32.27 55.5661 32.036C56.1061 31.796 56.7151 31.676 57.3931 31.676C57.9571 31.676 58.4791 31.769 58.9591 31.955C59.4391 32.135 59.8531 32.402 60.2011 32.756C60.5491 33.11 60.8191 33.545 61.0111 34.061C61.2091 34.571 61.3081 35.153 61.3081 35.807C61.3081 36.107 61.2751 36.308 61.2091 36.41C61.1431 36.512 61.0231 36.563 60.8491 36.563H54.9541ZM70.538 41.144C69.776 41.144 69.188 40.931 68.774 40.505C68.366 40.073 68.162 39.467 68.162 38.687V33.341H67.154C67.046 33.341 66.953 33.308 66.875 33.242C66.797 33.17 66.758 33.065 66.758 32.927V32.144L68.243 31.928L68.666 29.273C68.696 29.171 68.747 29.09 68.819 29.03C68.891 28.964 68.987 28.931 69.107 28.931H70.097V31.946H72.644V33.341H70.097V38.552C70.097 38.882 70.178 39.134 70.34 39.308C70.502 39.482 70.718 39.569 70.988 39.569C71.138 39.569 71.267 39.551 71.375 39.515C71.483 39.473 71.576 39.431 71.654 39.389C71.732 39.341 71.798 39.299 71.852 39.263C71.912 39.221 71.969 39.2 72.023 39.2C72.131 39.2 72.218 39.26 72.284 39.38L72.86 40.325C72.56 40.589 72.206 40.793 71.798 40.937C71.39 41.075 70.97 41.144 70.538 41.144ZM79.0742 36.986C78.3842 37.01 77.8022 37.067 77.3282 37.157C76.8542 37.241 76.4702 37.352 76.1762 37.49C75.8822 37.622 75.6692 37.781 75.5372 37.967C75.4112 38.153 75.3482 38.357 75.3482 38.579C75.3482 38.795 75.3812 38.981 75.4472 39.137C75.5192 39.287 75.6152 39.413 75.7352 39.515C75.8612 39.611 76.0052 39.683 76.1672 39.731C76.3352 39.773 76.5182 39.794 76.7162 39.794C77.2202 39.794 77.6522 39.701 78.0122 39.515C78.3782 39.323 78.7322 39.047 79.0742 38.687V36.986ZM73.9442 33.098C74.9822 32.132 76.2182 31.649 77.6522 31.649C78.1802 31.649 78.6482 31.736 79.0562 31.91C79.4702 32.078 79.8152 32.318 80.0912 32.63C80.3732 32.942 80.5862 33.314 80.7302 33.746C80.8802 34.172 80.9552 34.646 80.9552 35.168V41H80.0912C79.9052 41 79.7642 40.973 79.6682 40.919C79.5722 40.859 79.4912 40.742 79.4252 40.568L79.2362 39.821C79.0022 40.031 78.7712 40.22 78.5432 40.388C78.3152 40.55 78.0782 40.688 77.8322 40.802C77.5922 40.916 77.3312 41 77.0492 41.054C76.7732 41.114 76.4672 41.144 76.1312 41.144C75.7592 41.144 75.4112 41.093 75.0872 40.991C74.7692 40.889 74.4932 40.736 74.2592 40.532C74.0252 40.322 73.8392 40.064 73.7012 39.758C73.5692 39.452 73.5032 39.092 73.5032 38.678C73.5032 38.324 73.5962 37.979 73.7822 37.643C73.9742 37.307 74.2862 37.007 74.7182 36.743C75.1562 36.473 75.7292 36.251 76.4372 36.077C77.1512 35.903 78.0302 35.804 79.0742 35.78V35.168C79.0742 34.508 78.9332 34.016 78.6512 33.692C78.3692 33.368 77.9552 33.206 77.4092 33.206C77.0372 33.206 76.7252 33.254 76.4732 33.35C76.2212 33.44 76.0022 33.539 75.8162 33.647C75.6302 33.755 75.4652 33.857 75.3212 33.953C75.1772 34.043 75.0242 34.088 74.8622 34.088C74.7302 34.088 74.6162 34.055 74.5202 33.989C74.4302 33.917 74.3552 33.83 74.2952 33.728L73.9442 33.098ZM88.703 33.485C88.655 33.569 88.601 33.629 88.541 33.665C88.481 33.701 88.406 33.719 88.316 33.719C88.214 33.719 88.103 33.689 87.983 33.629C87.863 33.563 87.722 33.491 87.56 33.413C87.398 33.335 87.206 33.266 86.984 33.206C86.768 33.14 86.513 33.107 86.219 33.107C85.979 33.107 85.76 33.137 85.562 33.197C85.37 33.251 85.205 33.332 85.067 33.44C84.935 33.542 84.833 33.665 84.761 33.809C84.689 33.947 84.653 34.097 84.653 34.259C84.653 34.475 84.719 34.655 84.851 34.799C84.983 34.943 85.157 35.069 85.373 35.177C85.589 35.279 85.835 35.372 86.111 35.456C86.387 35.54 86.669 35.63 86.957 35.726C87.245 35.822 87.527 35.933 87.803 36.059C88.079 36.185 88.325 36.341 88.541 36.527C88.757 36.707 88.931 36.929 89.063 37.193C89.195 37.451 89.261 37.766 89.261 38.138C89.261 38.57 89.183 38.969 89.027 39.335C88.871 39.701 88.643 40.019 88.343 40.289C88.043 40.559 87.668 40.769 87.218 40.919C86.774 41.069 86.264 41.144 85.688 41.144C85.37 41.144 85.061 41.114 84.761 41.054C84.467 41 84.185 40.925 83.915 40.829C83.651 40.727 83.402 40.607 83.168 40.469C82.94 40.331 82.736 40.181 82.556 40.019L83.006 39.281C83.06 39.191 83.126 39.122 83.204 39.074C83.288 39.02 83.39 38.993 83.51 38.993C83.636 38.993 83.759 39.035 83.879 39.119C84.005 39.197 84.149 39.284 84.311 39.38C84.479 39.476 84.68 39.566 84.914 39.65C85.148 39.728 85.439 39.767 85.787 39.767C86.075 39.767 86.324 39.734 86.534 39.668C86.744 39.596 86.918 39.5 87.056 39.38C87.194 39.26 87.296 39.125 87.362 38.975C87.428 38.819 87.461 38.654 87.461 38.48C87.461 38.246 87.395 38.054 87.263 37.904C87.131 37.754 86.954 37.625 86.732 37.517C86.516 37.409 86.267 37.313 85.985 37.229C85.709 37.145 85.427 37.055 85.139 36.959C84.851 36.863 84.566 36.752 84.284 36.626C84.008 36.5 83.759 36.341 83.537 36.149C83.321 35.951 83.147 35.714 83.015 35.438C82.883 35.156 82.817 34.814 82.817 34.412C82.817 34.046 82.889 33.698 83.033 33.368C83.183 33.038 83.399 32.747 83.681 32.495C83.969 32.243 84.32 32.045 84.734 31.901C85.154 31.751 85.637 31.676 86.183 31.676C86.801 31.676 87.362 31.775 87.866 31.973C88.37 32.171 88.793 32.441 89.135 32.783L88.703 33.485ZM93.0144 27.68V35.402H93.4284C93.5604 35.402 93.6684 35.384 93.7524 35.348C93.8364 35.312 93.9234 35.237 94.0134 35.123L96.5874 32.18C96.6774 32.06 96.7764 31.97 96.8844 31.91C96.9924 31.85 97.1304 31.82 97.2984 31.82H99.0534L95.9574 35.312C95.7774 35.546 95.5794 35.732 95.3634 35.87C95.4834 35.954 95.5884 36.05 95.6784 36.158C95.7684 36.26 95.8554 36.377 95.9394 36.509L99.2424 41H97.5144C97.3584 41 97.2234 40.976 97.1094 40.928C97.0014 40.874 96.9054 40.778 96.8214 40.64L94.1664 37.04C94.0764 36.902 93.9864 36.815 93.8964 36.779C93.8064 36.737 93.6714 36.716 93.4914 36.716H93.0144V41H91.0794V27.68H93.0144ZM100.34 39.884C100.34 39.71 100.37 39.548 100.43 39.398C100.496 39.242 100.583 39.107 100.691 38.993C100.805 38.879 100.937 38.789 101.087 38.723C101.243 38.657 101.408 38.624 101.582 38.624C101.756 38.624 101.918 38.657 102.068 38.723C102.224 38.789 102.359 38.879 102.473 38.993C102.587 39.107 102.677 39.242 102.743 39.398C102.809 39.548 102.842 39.71 102.842 39.884C102.842 40.064 102.809 40.229 102.743 40.379C102.677 40.529 102.587 40.661 102.473 40.775C102.359 40.889 102.224 40.976 102.068 41.036C101.918 41.102 101.756 41.135 101.582 41.135C101.408 41.135 101.243 41.102 101.087 41.036C100.937 40.976 100.805 40.889 100.691 40.775C100.583 40.661 100.496 40.529 100.43 40.379C100.37 40.229 100.34 40.064 100.34 39.884ZM100.34 33.323C100.34 33.149 100.37 32.987 100.43 32.837C100.496 32.681 100.583 32.546 100.691 32.432C100.805 32.318 100.937 32.228 101.087 32.162C101.243 32.096 101.408 32.063 101.582 32.063C101.756 32.063 101.918 32.096 102.068 32.162C102.224 32.228 102.359 32.318 102.473 32.432C102.587 32.546 102.677 32.681 102.743 32.837C102.809 32.987 102.842 33.149 102.842 33.323C102.842 33.503 102.809 33.668 102.743 33.818C102.677 33.968 102.587 34.1 102.473 34.214C102.359 34.328 102.224 34.418 102.068 34.484C101.918 34.544 101.756 34.574 101.582 34.574C101.408 34.574 101.243 34.544 101.087 34.484C100.937 34.418 100.805 34.328 100.691 34.214C100.583 34.1 100.496 33.968 100.43 33.818C100.37 33.668 100.34 33.503 100.34 33.323ZM114.846 36.212V31.478C114.846 31.1 114.873 30.686 114.927 30.236L110.571 36.212H114.846ZM118.32 36.212V37.328C118.32 37.436 118.284 37.529 118.212 37.607C118.146 37.685 118.044 37.724 117.906 37.724H116.529V41H114.846V37.724H109.239C109.101 37.724 108.981 37.685 108.879 37.607C108.783 37.523 108.72 37.421 108.69 37.301L108.492 36.311L114.711 28.031H116.529V36.212H118.32ZM127.655 39.173C127.865 39.173 128.03 39.236 128.15 39.362C128.27 39.482 128.33 39.638 128.33 39.83V41H119.564V40.343C119.564 40.211 119.591 40.073 119.645 39.929C119.699 39.785 119.786 39.653 119.906 39.533L123.938 35.492C124.28 35.15 124.583 34.823 124.847 34.511C125.117 34.199 125.345 33.887 125.531 33.575C125.723 33.263 125.867 32.948 125.963 32.63C126.065 32.306 126.116 31.967 126.116 31.613C126.116 31.271 126.062 30.971 125.954 30.713C125.852 30.449 125.708 30.233 125.522 30.065C125.342 29.891 125.123 29.762 124.865 29.678C124.613 29.588 124.334 29.543 124.028 29.543C123.734 29.543 123.461 29.585 123.209 29.669C122.963 29.753 122.741 29.87 122.543 30.02C122.351 30.17 122.189 30.35 122.057 30.56C121.931 30.764 121.838 30.989 121.778 31.235C121.688 31.481 121.571 31.646 121.427 31.73C121.289 31.814 121.085 31.832 120.815 31.784L119.798 31.604C119.888 30.992 120.056 30.455 120.302 29.993C120.554 29.531 120.869 29.147 121.247 28.841C121.625 28.529 122.057 28.295 122.543 28.139C123.035 27.977 123.566 27.896 124.136 27.896C124.712 27.896 125.24 27.983 125.72 28.157C126.206 28.325 126.623 28.568 126.971 28.886C127.325 29.198 127.601 29.579 127.799 30.029C127.997 30.479 128.096 30.986 128.096 31.55C128.096 32.03 128.024 32.474 127.88 32.882C127.742 33.29 127.553 33.68 127.313 34.052C127.073 34.424 126.791 34.787 126.467 35.141C126.149 35.489 125.813 35.843 125.459 36.203L122.327 39.407C122.585 39.335 122.843 39.278 123.101 39.236C123.365 39.194 123.614 39.173 123.848 39.173H127.655Z" fill="#0B0B14"/>
<path d="M24 81C24 72.1634 31.1634 65 40 65H311C319.837 65 327 72.1634 327 81C327 89.8366 319.837 97 311 97H40C31.1635 97 24 89.8366 24 81Z" fill="#E8E8E8"/>
<path d="M79 81C79 72.1634 86.1634 65 95 65H205V97H95C86.1634 97 79 89.8366 79 81Z" fill="#3282FA"/>
<path d="M24 81C24 72.1634 31.1634 65 40 65H165V97H40C31.1634 97 24 89.8366 24 81Z" fill="#17B573"/>
<path d="M43.81 85.7C44.0767 85.7 44.2867 85.7767 44.44 85.93C44.6 86.0767 44.68 86.2733 44.68 86.52V88H34.76V87.18C34.76 87.0133 34.7933 86.84 34.86 86.66C34.9333 86.4733 35.0467 86.3067 35.2 86.16L39.59 81.76C39.9567 81.3867 40.2833 81.03 40.57 80.69C40.8633 80.35 41.1067 80.0133 41.3 79.68C41.4933 79.3467 41.64 79.01 41.74 78.67C41.8467 78.3233 41.9 77.96 41.9 77.58C41.9 77.2333 41.85 76.93 41.75 76.67C41.65 76.4033 41.5067 76.18 41.32 76C41.14 75.82 40.92 75.6867 40.66 75.6C40.4067 75.5067 40.12 75.46 39.8 75.46C39.5067 75.46 39.2333 75.5033 38.98 75.59C38.7333 75.67 38.5133 75.7867 38.32 75.94C38.1267 76.0867 37.9633 76.26 37.83 76.46C37.6967 76.66 37.5967 76.88 37.53 77.12C37.4167 77.4267 37.27 77.63 37.09 77.73C36.91 77.83 36.65 77.8533 36.31 77.8L35.01 77.57C35.11 76.8767 35.3033 76.27 35.59 75.75C35.8767 75.2233 36.2333 74.7867 36.66 74.44C37.0933 74.0867 37.5867 73.8233 38.14 73.65C38.7 73.47 39.3 73.38 39.94 73.38C40.6067 73.38 41.2167 73.48 41.77 73.68C42.3233 73.8733 42.7967 74.15 43.19 74.51C43.5833 74.87 43.89 75.3033 44.11 75.81C44.33 76.3167 44.44 76.88 44.44 77.5C44.44 78.0333 44.36 78.5267 44.2 78.98C44.0467 79.4333 43.8367 79.8667 43.57 80.28C43.31 80.6933 43.0033 81.0933 42.65 81.48C42.2967 81.8667 41.9267 82.26 41.54 82.66L38.28 85.99C38.5933 85.8967 38.9033 85.8267 39.21 85.78C39.5233 85.7267 39.82 85.7 40.1 85.7H43.81ZM51.4016 86.23C51.8082 86.23 52.1649 86.1733 52.4716 86.06C52.7782 85.94 53.0349 85.7767 53.2416 85.57C53.4549 85.3633 53.6149 85.1167 53.7216 84.83C53.8282 84.5433 53.8816 84.2333 53.8816 83.9C53.8816 83.1067 53.6616 82.5067 53.2216 82.1C52.7816 81.6933 52.1749 81.49 51.4016 81.49C50.6282 81.49 50.0216 81.6933 49.5816 82.1C49.1416 82.5067 48.9216 83.1067 48.9216 83.9C48.9216 84.2333 48.9749 84.5433 49.0816 84.83C49.1882 85.1167 49.3449 85.3633 49.5516 85.57C49.7649 85.7767 50.0249 85.94 50.3316 86.06C50.6382 86.1733 50.9949 86.23 51.4016 86.23ZM51.4016 75.24C51.0349 75.24 50.7182 75.2967 50.4516 75.41C50.1849 75.5233 49.9616 75.6767 49.7816 75.87C49.6082 76.0567 49.4782 76.2733 49.3916 76.52C49.3116 76.7667 49.2716 77.0267 49.2716 77.3C49.2716 77.5867 49.3049 77.8667 49.3716 78.14C49.4449 78.4067 49.5649 78.6467 49.7316 78.86C49.8982 79.0667 50.1182 79.2333 50.3916 79.36C50.6649 79.4867 51.0016 79.55 51.4016 79.55C51.8016 79.55 52.1382 79.4867 52.4116 79.36C52.6849 79.2333 52.9049 79.0667 53.0716 78.86C53.2382 78.6467 53.3549 78.4067 53.4216 78.14C53.4949 77.8667 53.5316 77.5867 53.5316 77.3C53.5316 77.0267 53.4882 76.7667 53.4016 76.52C53.3149 76.2733 53.1849 76.0567 53.0116 75.87C52.8382 75.6767 52.6182 75.5233 52.3516 75.41C52.0849 75.2967 51.7682 75.24 51.4016 75.24ZM53.8416 80.46C54.7216 80.7467 55.3716 81.1867 55.7916 81.78C56.2116 82.3667 56.4216 83.0867 56.4216 83.94C56.4216 84.58 56.2982 85.16 56.0516 85.68C55.8116 86.2 55.4716 86.6433 55.0316 87.01C54.5916 87.3767 54.0616 87.66 53.4416 87.86C52.8282 88.06 52.1482 88.16 51.4016 88.16C50.6549 88.16 49.9716 88.06 49.3516 87.86C48.7382 87.66 48.2116 87.3767 47.7716 87.01C47.3316 86.6433 46.9882 86.2 46.7416 85.68C46.5016 85.16 46.3816 84.58 46.3816 83.94C46.3816 83.0867 46.5916 82.3667 47.0116 81.78C47.4316 81.1867 48.0816 80.7467 48.9616 80.46C48.2616 80.1667 47.7349 79.75 47.3816 79.21C47.0349 78.67 46.8616 78.02 46.8616 77.26C46.8616 76.7133 46.9716 76.2033 47.1916 75.73C47.4182 75.2567 47.7316 74.8467 48.1316 74.5C48.5316 74.1467 49.0082 73.8733 49.5616 73.68C50.1216 73.48 50.7349 73.38 51.4016 73.38C52.0682 73.38 52.6782 73.48 53.2316 73.68C53.7916 73.8733 54.2716 74.1467 54.6716 74.5C55.0716 74.8467 55.3816 75.2567 55.6016 75.73C55.8282 76.2033 55.9416 76.7133 55.9416 77.26C55.9416 78.02 55.7649 78.67 55.4116 79.21C55.0649 79.75 54.5416 80.1667 53.8416 80.46ZM67.4284 82.652C67.2324 82.414 67.0177 82.246 66.7844 82.148C66.5557 82.05 66.3084 82.001 66.0424 82.001C65.7811 82.001 65.5454 82.05 65.3354 82.148C65.1254 82.246 64.9457 82.3953 64.7964 82.596C64.6471 82.792 64.5327 83.044 64.4534 83.352C64.3741 83.6553 64.3344 84.0147 64.3344 84.43C64.3344 84.85 64.3671 85.207 64.4324 85.501C64.5024 85.7903 64.6004 86.0283 64.7264 86.215C64.8524 86.397 65.0064 86.53 65.1884 86.614C65.3704 86.6933 65.5734 86.733 65.7974 86.733C66.1567 86.733 66.4624 86.6583 66.7144 86.509C66.9664 86.3597 67.2044 86.1473 67.4284 85.872V82.652ZM69.1574 77.598V88H68.1004C67.8717 88 67.7271 87.895 67.6664 87.685L67.5194 86.992C67.2301 87.3233 66.8964 87.5917 66.5184 87.797C66.1451 88.0023 65.7087 88.105 65.2094 88.105C64.8174 88.105 64.4581 88.0233 64.1314 87.86C63.8047 87.6967 63.5224 87.461 63.2844 87.153C63.0511 86.8403 62.8691 86.4553 62.7384 85.998C62.6124 85.5407 62.5494 85.018 62.5494 84.43C62.5494 83.898 62.6217 83.4033 62.7664 82.946C62.9111 82.4887 63.1187 82.092 63.3894 81.756C63.6601 81.42 63.9844 81.1587 64.3624 80.972C64.7404 80.7807 65.1651 80.685 65.6364 80.685C66.0377 80.685 66.3807 80.748 66.6654 80.874C66.9501 81 67.2044 81.1703 67.4284 81.385V77.598H69.1574ZM74.0418 80.706C74.5738 80.706 75.0568 80.7923 75.4908 80.965C75.9294 81.1377 76.3028 81.3827 76.6108 81.7C76.9234 82.0173 77.1638 82.4047 77.3318 82.862C77.4998 83.3193 77.5838 83.8303 77.5838 84.395C77.5838 84.9643 77.4998 85.4777 77.3318 85.935C77.1638 86.3923 76.9234 86.782 76.6108 87.104C76.3028 87.426 75.9294 87.6733 75.4908 87.846C75.0568 88.0187 74.5738 88.105 74.0418 88.105C73.5051 88.105 73.0174 88.0187 72.5788 87.846C72.1401 87.6733 71.7644 87.426 71.4518 87.104C71.1438 86.782 70.9034 86.3923 70.7308 85.935C70.5628 85.4777 70.4788 84.9643 70.4788 84.395C70.4788 83.8303 70.5628 83.3193 70.7308 82.862C70.9034 82.4047 71.1438 82.0173 71.4518 81.7C71.7644 81.3827 72.1401 81.1377 72.5788 80.965C73.0174 80.7923 73.5051 80.706 74.0418 80.706ZM74.0418 86.775C74.6391 86.775 75.0801 86.5743 75.3648 86.173C75.6541 85.7717 75.7988 85.1837 75.7988 84.409C75.7988 83.6343 75.6541 83.044 75.3648 82.638C75.0801 82.232 74.6391 82.029 74.0418 82.029C73.4351 82.029 72.9848 82.2343 72.6908 82.645C72.4014 83.051 72.2568 83.639 72.2568 84.409C72.2568 85.179 72.4014 85.767 72.6908 86.173C72.9848 86.5743 73.4351 86.775 74.0418 86.775ZM80.5198 81.7C80.6645 81.5553 80.8162 81.4223 80.9748 81.301C81.1382 81.175 81.3085 81.07 81.4858 80.986C81.6678 80.8973 81.8615 80.8297 82.0668 80.783C82.2722 80.7317 82.4962 80.706 82.7388 80.706C83.1308 80.706 83.4785 80.7737 83.7818 80.909C84.0852 81.0397 84.3372 81.2263 84.5378 81.469C84.7432 81.707 84.8972 81.994 84.9998 82.33C85.1072 82.6613 85.1608 83.0277 85.1608 83.429V88H83.4318V83.429C83.4318 82.9903 83.3315 82.652 83.1308 82.414C82.9302 82.1713 82.6245 82.05 82.2138 82.05C81.9152 82.05 81.6352 82.1177 81.3738 82.253C81.1125 82.3883 80.8652 82.5727 80.6318 82.806V88H78.9028V80.818H79.9598C80.1838 80.818 80.3308 80.923 80.4008 81.133L80.5198 81.7ZM91.4322 83.583C91.4322 83.359 91.3995 83.149 91.3342 82.953C91.2735 82.7523 91.1802 82.5773 91.0542 82.428C90.9282 82.2787 90.7672 82.162 90.5712 82.078C90.3798 81.9893 90.1558 81.945 89.8992 81.945C89.3998 81.945 89.0055 82.0873 88.7162 82.372C88.4315 82.6567 88.2495 83.0603 88.1702 83.583H91.4322ZM88.1352 84.626C88.1632 84.9947 88.2285 85.3143 88.3312 85.585C88.4338 85.851 88.5692 86.0727 88.7372 86.25C88.9052 86.4227 89.1035 86.5533 89.3322 86.642C89.5655 86.726 89.8222 86.768 90.1022 86.768C90.3822 86.768 90.6225 86.7353 90.8232 86.67C91.0285 86.6047 91.2058 86.5323 91.3552 86.453C91.5092 86.3737 91.6422 86.3013 91.7542 86.236C91.8708 86.1707 91.9828 86.138 92.0902 86.138C92.2348 86.138 92.3422 86.1917 92.4122 86.299L92.9092 86.929C92.7178 87.153 92.5032 87.342 92.2652 87.496C92.0272 87.6453 91.7775 87.7667 91.5162 87.86C91.2595 87.9487 90.9958 88.0117 90.7252 88.049C90.4592 88.0863 90.2002 88.105 89.9482 88.105C89.4488 88.105 88.9845 88.0233 88.5552 87.86C88.1258 87.692 87.7525 87.447 87.4352 87.125C87.1178 86.7983 86.8682 86.397 86.6862 85.921C86.5042 85.4403 86.4132 84.885 86.4132 84.255C86.4132 83.765 86.4925 83.3053 86.6512 82.876C86.8098 82.442 87.0362 82.0663 87.3302 81.749C87.6288 81.427 87.9905 81.1727 88.4152 80.986C88.8445 80.7993 89.3275 80.706 89.8642 80.706C90.3168 80.706 90.7345 80.7783 91.1172 80.923C91.4998 81.0677 91.8288 81.28 92.1042 81.56C92.3795 81.8353 92.5942 82.176 92.7482 82.582C92.9068 82.9833 92.9862 83.443 92.9862 83.961C92.9862 84.2223 92.9582 84.3997 92.9022 84.493C92.8462 84.5817 92.7388 84.626 92.5802 84.626H88.1352Z" fill="white"/>
<path d="M182.92 73.54V74.61C182.92 74.93 182.887 75.19 182.82 75.39C182.753 75.5833 182.687 75.7467 182.62 75.88L177.14 87.16C177.027 87.3933 176.867 87.5933 176.66 87.76C176.453 87.92 176.177 88 175.83 88H174.04L179.63 76.95C179.757 76.7233 179.88 76.5167 180 76.33C180.127 76.1367 180.267 75.9533 180.42 75.78H173.5C173.347 75.78 173.213 75.7233 173.1 75.61C172.987 75.4967 172.93 75.3633 172.93 75.21V73.54H182.92ZM191.111 80.818V88H189.375V80.818H191.111ZM191.349 78.725C191.349 78.8743 191.319 79.0143 191.258 79.145C191.197 79.2757 191.116 79.39 191.013 79.488C190.915 79.586 190.798 79.6653 190.663 79.726C190.528 79.782 190.383 79.81 190.229 79.81C190.08 79.81 189.937 79.782 189.802 79.726C189.671 79.6653 189.557 79.586 189.459 79.488C189.361 79.39 189.282 79.2757 189.221 79.145C189.165 79.0143 189.137 78.8743 189.137 78.725C189.137 78.571 189.165 78.4263 189.221 78.291C189.282 78.1557 189.361 78.039 189.459 77.941C189.557 77.843 189.671 77.766 189.802 77.71C189.937 77.6493 190.08 77.619 190.229 77.619C190.383 77.619 190.528 77.6493 190.663 77.71C190.798 77.766 190.915 77.843 191.013 77.941C191.116 78.039 191.197 78.1557 191.258 78.291C191.319 78.4263 191.349 78.571 191.349 78.725ZM194.491 81.7C194.635 81.5553 194.787 81.4223 194.946 81.301C195.109 81.175 195.279 81.07 195.457 80.986C195.639 80.8973 195.832 80.8297 196.038 80.783C196.243 80.7317 196.467 80.706 196.71 80.706C197.102 80.706 197.449 80.7737 197.753 80.909C198.056 81.0397 198.308 81.2263 198.509 81.469C198.714 81.707 198.868 81.994 198.971 82.33C199.078 82.6613 199.132 83.0277 199.132 83.429V88H197.403V83.429C197.403 82.9903 197.302 82.652 197.102 82.414C196.901 82.1713 196.595 82.05 196.185 82.05C195.886 82.05 195.606 82.1177 195.345 82.253C195.083 82.3883 194.836 82.5727 194.603 82.806V88H192.874V80.818H193.931C194.155 80.818 194.302 80.923 194.372 81.133L194.491 81.7ZM205.909 86.138C206.105 86.376 206.318 86.544 206.546 86.642C206.78 86.74 207.032 86.789 207.302 86.789C207.564 86.789 207.799 86.74 208.009 86.642C208.219 86.544 208.397 86.3947 208.541 86.194C208.691 85.9933 208.805 85.7413 208.884 85.438C208.964 85.13 209.003 84.7683 209.003 84.353C209.003 83.933 208.968 83.5783 208.898 83.289C208.833 82.995 208.737 82.757 208.611 82.575C208.485 82.393 208.331 82.26 208.149 82.176C207.972 82.092 207.769 82.05 207.54 82.05C207.181 82.05 206.875 82.127 206.623 82.281C206.371 82.4303 206.133 82.6427 205.909 82.918V86.138ZM205.818 81.798C206.112 81.4667 206.446 81.1983 206.819 80.993C207.193 80.7877 207.631 80.685 208.135 80.685C208.527 80.685 208.884 80.7667 209.206 80.93C209.533 81.0933 209.813 81.3313 210.046 81.644C210.284 81.952 210.466 82.3347 210.592 82.792C210.723 83.2447 210.788 83.765 210.788 84.353C210.788 84.8897 210.716 85.3867 210.571 85.844C210.427 86.3013 210.219 86.698 209.948 87.034C209.682 87.37 209.358 87.6337 208.975 87.825C208.597 88.0117 208.173 88.105 207.701 88.105C207.3 88.105 206.957 88.0443 206.672 87.923C206.388 87.797 206.133 87.6243 205.909 87.405V90.345H204.18V80.818H205.237C205.461 80.818 205.608 80.923 205.678 81.133L205.818 81.798ZM213.768 82.064C213.992 81.6347 214.258 81.2987 214.566 81.056C214.874 80.8087 215.238 80.685 215.658 80.685C215.99 80.685 216.256 80.7573 216.456 80.902L216.344 82.197C216.321 82.281 216.286 82.3417 216.239 82.379C216.197 82.4117 216.139 82.428 216.064 82.428C215.994 82.428 215.889 82.4163 215.749 82.393C215.614 82.3697 215.481 82.358 215.35 82.358C215.159 82.358 214.989 82.386 214.839 82.442C214.69 82.498 214.555 82.5797 214.433 82.687C214.317 82.7897 214.212 82.9157 214.118 83.065C214.03 83.2143 213.946 83.3847 213.866 83.576V88H212.137V80.818H213.152C213.33 80.818 213.453 80.8507 213.523 80.916C213.593 80.9767 213.64 81.0887 213.663 81.252L213.768 82.064ZM220.333 80.706C220.865 80.706 221.348 80.7923 221.782 80.965C222.22 81.1377 222.594 81.3827 222.902 81.7C223.214 82.0173 223.455 82.4047 223.623 82.862C223.791 83.3193 223.875 83.8303 223.875 84.395C223.875 84.9643 223.791 85.4777 223.623 85.935C223.455 86.3923 223.214 86.782 222.902 87.104C222.594 87.426 222.22 87.6733 221.782 87.846C221.348 88.0187 220.865 88.105 220.333 88.105C219.796 88.105 219.308 88.0187 218.87 87.846C218.431 87.6733 218.055 87.426 217.743 87.104C217.435 86.782 217.194 86.3923 217.022 85.935C216.854 85.4777 216.77 84.9643 216.77 84.395C216.77 83.8303 216.854 83.3193 217.022 82.862C217.194 82.4047 217.435 82.0173 217.743 81.7C218.055 81.3827 218.431 81.1377 218.87 80.965C219.308 80.7923 219.796 80.706 220.333 80.706ZM220.333 86.775C220.93 86.775 221.371 86.5743 221.656 86.173C221.945 85.7717 222.09 85.1837 222.09 84.409C222.09 83.6343 221.945 83.044 221.656 82.638C221.371 82.232 220.93 82.029 220.333 82.029C219.726 82.029 219.276 82.2343 218.982 82.645C218.692 83.051 218.548 83.639 218.548 84.409C218.548 85.179 218.692 85.767 218.982 86.173C219.276 86.5743 219.726 86.775 220.333 86.775ZM227.764 84.234C227.979 84.234 228.165 84.206 228.324 84.15C228.483 84.0893 228.613 84.0077 228.716 83.905C228.823 83.8023 228.903 83.6787 228.954 83.534C229.01 83.3893 229.038 83.2307 229.038 83.058C229.038 82.7033 228.931 82.4233 228.716 82.218C228.506 82.008 228.189 81.903 227.764 81.903C227.339 81.903 227.02 82.008 226.805 82.218C226.595 82.4233 226.49 82.7033 226.49 83.058C226.49 83.226 226.516 83.3823 226.567 83.527C226.623 83.6717 226.702 83.7977 226.805 83.905C226.912 84.0077 227.045 84.0893 227.204 84.15C227.367 84.206 227.554 84.234 227.764 84.234ZM229.717 88.322C229.717 88.182 229.675 88.0677 229.591 87.979C229.507 87.8903 229.393 87.8227 229.248 87.776C229.103 87.7247 228.933 87.6873 228.737 87.664C228.546 87.6407 228.34 87.6243 228.121 87.615C227.906 87.601 227.682 87.5893 227.449 87.58C227.22 87.5707 226.996 87.552 226.777 87.524C226.586 87.6313 226.429 87.7573 226.308 87.902C226.191 88.0467 226.133 88.2147 226.133 88.406C226.133 88.532 226.163 88.6487 226.224 88.756C226.289 88.868 226.39 88.9637 226.525 89.043C226.665 89.1223 226.845 89.183 227.064 89.225C227.283 89.2717 227.552 89.295 227.869 89.295C228.191 89.295 228.469 89.2693 228.702 89.218C228.935 89.1713 229.127 89.1037 229.276 89.015C229.43 88.931 229.542 88.8283 229.612 88.707C229.682 88.5903 229.717 88.462 229.717 88.322ZM231.439 81.063V81.707C231.439 81.9123 231.315 82.0383 231.068 82.085L230.424 82.204C230.522 82.4513 230.571 82.722 230.571 83.016C230.571 83.3707 230.499 83.6927 230.354 83.982C230.214 84.2667 230.018 84.5093 229.766 84.71C229.514 84.9107 229.215 85.067 228.87 85.179C228.529 85.2863 228.161 85.34 227.764 85.34C227.624 85.34 227.489 85.333 227.358 85.319C227.227 85.305 227.099 85.2863 226.973 85.263C226.749 85.3983 226.637 85.55 226.637 85.718C226.637 85.8627 226.702 85.97 226.833 86.04C226.968 86.1053 227.146 86.152 227.365 86.18C227.584 86.208 227.834 86.2267 228.114 86.236C228.394 86.2407 228.681 86.2547 228.975 86.278C229.269 86.3013 229.556 86.3433 229.836 86.404C230.116 86.46 230.366 86.551 230.585 86.677C230.804 86.803 230.979 86.9757 231.11 87.195C231.245 87.4097 231.313 87.6873 231.313 88.028C231.313 88.3453 231.234 88.6533 231.075 88.952C230.921 89.2507 230.695 89.5167 230.396 89.75C230.102 89.9833 229.738 90.17 229.304 90.31C228.875 90.4547 228.385 90.527 227.834 90.527C227.293 90.527 226.821 90.4733 226.42 90.366C226.019 90.2633 225.685 90.1233 225.419 89.946C225.153 89.7733 224.955 89.5727 224.824 89.344C224.693 89.1153 224.628 88.8773 224.628 88.63C224.628 88.294 224.728 88.014 224.929 87.79C225.134 87.5613 225.414 87.3793 225.769 87.244C225.578 87.146 225.426 87.0153 225.314 86.852C225.202 86.6887 225.146 86.474 225.146 86.208C225.146 86.1007 225.165 85.991 225.202 85.879C225.244 85.7623 225.302 85.648 225.377 85.536C225.456 85.424 225.554 85.319 225.671 85.221C225.788 85.1183 225.925 85.0273 226.084 84.948C225.72 84.752 225.433 84.4907 225.223 84.164C225.018 83.8373 224.915 83.4547 224.915 83.016C224.915 82.6613 224.985 82.3417 225.125 82.057C225.27 81.7677 225.468 81.5227 225.72 81.322C225.977 81.1167 226.278 80.9603 226.623 80.853C226.973 80.7457 227.353 80.692 227.764 80.692C228.072 80.692 228.361 80.7247 228.632 80.79C228.903 80.8507 229.15 80.9417 229.374 81.063H231.439ZM234.167 82.064C234.391 81.6347 234.657 81.2987 234.965 81.056C235.273 80.8087 235.637 80.685 236.057 80.685C236.388 80.685 236.654 80.7573 236.855 80.902L236.743 82.197C236.719 82.281 236.684 82.3417 236.638 82.379C236.596 82.4117 236.537 82.428 236.463 82.428C236.393 82.428 236.288 82.4163 236.148 82.393C236.012 82.3697 235.879 82.358 235.749 82.358C235.557 82.358 235.387 82.386 235.238 82.442C235.088 82.498 234.953 82.5797 234.832 82.687C234.715 82.7897 234.61 82.9157 234.517 83.065C234.428 83.2143 234.344 83.3847 234.265 83.576V88H232.536V80.818H233.551C233.728 80.818 233.852 80.8507 233.922 80.916C233.992 80.9767 234.038 81.0887 234.062 81.252L234.167 82.064ZM242.18 83.583C242.18 83.359 242.148 83.149 242.082 82.953C242.022 82.7523 241.928 82.5773 241.802 82.428C241.676 82.2787 241.515 82.162 241.319 82.078C241.128 81.9893 240.904 81.945 240.647 81.945C240.148 81.945 239.754 82.0873 239.464 82.372C239.18 82.6567 238.998 83.0603 238.918 83.583H242.18ZM238.883 84.626C238.911 84.9947 238.977 85.3143 239.079 85.585C239.182 85.851 239.317 86.0727 239.485 86.25C239.653 86.4227 239.852 86.5533 240.08 86.642C240.314 86.726 240.57 86.768 240.85 86.768C241.13 86.768 241.371 86.7353 241.571 86.67C241.777 86.6047 241.954 86.5323 242.103 86.453C242.257 86.3737 242.39 86.3013 242.502 86.236C242.619 86.1707 242.731 86.138 242.838 86.138C242.983 86.138 243.09 86.1917 243.16 86.299L243.657 86.929C243.466 87.153 243.251 87.342 243.013 87.496C242.775 87.6453 242.526 87.7667 242.264 87.86C242.008 87.9487 241.744 88.0117 241.473 88.049C241.207 88.0863 240.948 88.105 240.696 88.105C240.197 88.105 239.733 88.0233 239.303 87.86C238.874 87.692 238.501 87.447 238.183 87.125C237.866 86.7983 237.616 86.397 237.434 85.921C237.252 85.4403 237.161 84.885 237.161 84.255C237.161 83.765 237.241 83.3053 237.399 82.876C237.558 82.442 237.784 82.0663 238.078 81.749C238.377 81.427 238.739 81.1727 239.163 80.986C239.593 80.7993 240.076 80.706 240.612 80.706C241.065 80.706 241.483 80.7783 241.865 80.923C242.248 81.0677 242.577 81.28 242.852 81.56C243.128 81.8353 243.342 82.176 243.496 82.582C243.655 82.9833 243.734 83.443 243.734 83.961C243.734 84.2223 243.706 84.3997 243.65 84.493C243.594 84.5817 243.487 84.626 243.328 84.626H238.883ZM249.414 82.218C249.367 82.2927 249.318 82.3463 249.267 82.379C249.215 82.407 249.15 82.421 249.071 82.421C248.987 82.421 248.896 82.3977 248.798 82.351C248.704 82.3043 248.595 82.253 248.469 82.197C248.343 82.1363 248.198 82.0827 248.035 82.036C247.876 81.9893 247.687 81.966 247.468 81.966C247.127 81.966 246.859 82.0383 246.663 82.183C246.471 82.3277 246.376 82.5167 246.376 82.75C246.376 82.904 246.425 83.0347 246.523 83.142C246.625 83.2447 246.758 83.3357 246.922 83.415C247.09 83.4943 247.279 83.5667 247.489 83.632C247.699 83.6927 247.911 83.7603 248.126 83.835C248.345 83.9097 248.56 83.996 248.77 84.094C248.98 84.1873 249.166 84.3087 249.33 84.458C249.498 84.6027 249.631 84.7777 249.729 84.983C249.831 85.1883 249.883 85.4357 249.883 85.725C249.883 86.0703 249.82 86.39 249.694 86.684C249.572 86.9733 249.39 87.2253 249.148 87.44C248.905 87.65 248.604 87.8157 248.245 87.937C247.89 88.0537 247.479 88.112 247.013 88.112C246.765 88.112 246.523 88.0887 246.285 88.042C246.051 88 245.825 87.9393 245.606 87.86C245.391 87.7807 245.19 87.6873 245.004 87.58C244.822 87.4727 244.661 87.356 244.521 87.23L244.92 86.572C244.971 86.4927 245.032 86.432 245.102 86.39C245.172 86.348 245.26 86.327 245.368 86.327C245.475 86.327 245.575 86.3573 245.669 86.418C245.767 86.4787 245.879 86.544 246.005 86.614C246.131 86.684 246.278 86.7493 246.446 86.81C246.618 86.8707 246.835 86.901 247.097 86.901C247.302 86.901 247.477 86.8777 247.622 86.831C247.771 86.7797 247.892 86.7143 247.986 86.635C248.084 86.5557 248.154 86.4647 248.196 86.362C248.242 86.2547 248.266 86.145 248.266 86.033C248.266 85.865 248.214 85.7273 248.112 85.62C248.014 85.5127 247.881 85.4193 247.713 85.34C247.549 85.2607 247.36 85.1907 247.146 85.13C246.936 85.0647 246.719 84.9947 246.495 84.92C246.275 84.8453 246.058 84.759 245.844 84.661C245.634 84.5583 245.445 84.43 245.277 84.276C245.113 84.122 244.98 83.933 244.878 83.709C244.78 83.485 244.731 83.2143 244.731 82.897C244.731 82.603 244.789 82.323 244.906 82.057C245.022 81.791 245.193 81.56 245.417 81.364C245.645 81.1633 245.928 81.0047 246.264 80.888C246.604 80.7667 246.996 80.706 247.44 80.706C247.934 80.706 248.385 80.7877 248.791 80.951C249.197 81.1143 249.535 81.329 249.806 81.595L249.414 82.218ZM255.566 82.218C255.519 82.2927 255.47 82.3463 255.419 82.379C255.368 82.407 255.302 82.421 255.223 82.421C255.139 82.421 255.048 82.3977 254.95 82.351C254.857 82.3043 254.747 82.253 254.621 82.197C254.495 82.1363 254.35 82.0827 254.187 82.036C254.028 81.9893 253.839 81.966 253.62 81.966C253.279 81.966 253.011 82.0383 252.815 82.183C252.624 82.3277 252.528 82.5167 252.528 82.75C252.528 82.904 252.577 83.0347 252.675 83.142C252.778 83.2447 252.911 83.3357 253.074 83.415C253.242 83.4943 253.431 83.5667 253.641 83.632C253.851 83.6927 254.063 83.7603 254.278 83.835C254.497 83.9097 254.712 83.996 254.922 84.094C255.132 84.1873 255.319 84.3087 255.482 84.458C255.65 84.6027 255.783 84.7777 255.881 84.983C255.984 85.1883 256.035 85.4357 256.035 85.725C256.035 86.0703 255.972 86.39 255.846 86.684C255.725 86.9733 255.543 87.2253 255.3 87.44C255.057 87.65 254.756 87.8157 254.397 87.937C254.042 88.0537 253.632 88.112 253.165 88.112C252.918 88.112 252.675 88.0887 252.437 88.042C252.204 88 251.977 87.9393 251.758 87.86C251.543 87.7807 251.343 87.6873 251.156 87.58C250.974 87.4727 250.813 87.356 250.673 87.23L251.072 86.572C251.123 86.4927 251.184 86.432 251.254 86.39C251.324 86.348 251.413 86.327 251.52 86.327C251.627 86.327 251.728 86.3573 251.821 86.418C251.919 86.4787 252.031 86.544 252.157 86.614C252.283 86.684 252.43 86.7493 252.598 86.81C252.771 86.8707 252.988 86.901 253.249 86.901C253.454 86.901 253.629 86.8777 253.774 86.831C253.923 86.7797 254.045 86.7143 254.138 86.635C254.236 86.5557 254.306 86.4647 254.348 86.362C254.395 86.2547 254.418 86.145 254.418 86.033C254.418 85.865 254.367 85.7273 254.264 85.62C254.166 85.5127 254.033 85.4193 253.865 85.34C253.702 85.2607 253.513 85.1907 253.298 85.13C253.088 85.0647 252.871 84.9947 252.647 84.92C252.428 84.8453 252.211 84.759 251.996 84.661C251.786 84.5583 251.597 84.43 251.429 84.276C251.266 84.122 251.133 83.933 251.03 83.709C250.932 83.485 250.883 83.2143 250.883 82.897C250.883 82.603 250.941 82.323 251.058 82.057C251.175 81.791 251.345 81.56 251.569 81.364C251.798 81.1633 252.08 81.0047 252.416 80.888C252.757 80.7667 253.149 80.706 253.592 80.706C254.087 80.706 254.537 80.7877 254.943 80.951C255.349 81.1143 255.687 81.329 255.958 81.595L255.566 82.218Z" fill="white"/>
<defs>
<filter id="filter0_d" x="0" y="0" width="351" height="168" filterUnits="userSpaceOnUse" color-interpolation-filters="sRGB">
<feFlood flood-opacity="0" result="BackgroundImageFix"/>
<feColorMatrix in="SourceAlpha" type="matrix" values="0 0 0 0 0 0 0 0 0 0 0 0 0 0 0 0 0 0 127 0"/>
<feOffset dy="1"/>
<feGaussianBlur stdDeviation="2"/>
<feColorMatrix type="matrix" values="0 0 0 0 0 0 0 0 0 0 0 0 0 0 0 0 0 0 0.12 0"/>
<feBlend mode="normal" in2="BackgroundImageFix" result="effect1_dropShadow"/>
<feBlend mode="normal" in="SourceGraphic" in2="effect1_dropShadow" result="shape"/>
</filter>
</defs>
</svg>
