<svg width="725" height="188" viewBox="0 0 725 188" fill="none" xmlns="http://www.w3.org/2000/svg">
<g filter="url(#filter0_d)">
<path d="M4 7C4 4.79086 5.79086 3 8 3H717C719.209 3 721 4.79086 721 7V179C721 181.209 719.209 183 717 183H8.00001C5.79087 183 4 181.209 4 179V7Z" fill="white"/>
</g>
<path d="M44.263 44.06L42.085 38.274C41.909 37.8267 41.7293 37.2583 41.546 36.569C41.4653 36.9137 41.3773 37.2327 41.282 37.526C41.1867 37.812 41.0987 38.065 41.018 38.285L38.84 44.06H44.263ZM49.136 50H47.145C46.9177 50 46.7343 49.945 46.595 49.835C46.4557 49.7177 46.3493 49.5747 46.276 49.406L44.956 45.908H38.136L36.816 49.406C36.7573 49.5527 36.6547 49.6883 36.508 49.813C36.3613 49.9377 36.178 50 35.958 50H33.967L40.248 34.16H42.855L49.136 50ZM52.9105 33.72V50H50.5455V33.72H52.9105ZM58.1947 47.184C58.5247 47.6093 58.884 47.91 59.2727 48.086C59.6687 48.2547 60.105 48.339 60.5817 48.339C61.5057 48.339 62.2243 48.0017 62.7377 47.327C63.2583 46.6523 63.5187 45.6477 63.5187 44.313C63.5187 43.6237 63.46 43.037 63.3427 42.553C63.2253 42.0617 63.0567 41.662 62.8367 41.354C62.6167 41.046 62.349 40.8223 62.0337 40.683C61.7183 40.5437 61.3627 40.474 60.9667 40.474C60.3653 40.474 59.8447 40.606 59.4047 40.87C58.972 41.1267 58.5687 41.497 58.1947 41.981V47.184ZM58.0737 40.408C58.543 39.858 59.0747 39.4143 59.6687 39.077C60.27 38.7397 60.9667 38.571 61.7587 38.571C62.3893 38.571 62.9613 38.6993 63.4747 38.956C63.988 39.2053 64.428 39.572 64.7947 40.056C65.1613 40.54 65.4437 41.1413 65.6417 41.86C65.847 42.5713 65.9497 43.389 65.9497 44.313C65.9497 45.1417 65.836 45.9153 65.6087 46.634C65.3887 47.3453 65.0697 47.965 64.6517 48.493C64.2337 49.0137 63.7277 49.4243 63.1337 49.725C62.5397 50.0183 61.8687 50.165 61.1207 50.165C60.4607 50.165 59.8997 50.0587 59.4377 49.846C58.983 49.6333 58.5687 49.34 58.1947 48.966V53.729H55.8297V38.78H57.2597C57.5823 38.78 57.7877 38.9303 57.8757 39.231L58.0737 40.408ZM70.6126 40.111C71.0746 39.6563 71.5806 39.2933 72.1306 39.022C72.6806 38.7433 73.3223 38.604 74.0556 38.604C74.6716 38.604 75.2106 38.7067 75.6726 38.912C76.142 39.1173 76.5343 39.407 76.8496 39.781C77.1723 40.155 77.4143 40.606 77.5756 41.134C77.737 41.6547 77.8176 42.2303 77.8176 42.861V50H75.4636V42.861C75.4636 42.1057 75.2876 41.519 74.9356 41.101C74.591 40.683 74.063 40.474 73.3516 40.474C72.8236 40.474 72.3323 40.595 71.8776 40.837C71.4303 41.079 71.0086 41.409 70.6126 41.827V50H68.2476V33.72H70.6126V40.111ZM86.5747 45.094C85.7313 45.1233 85.02 45.193 84.4407 45.303C83.8613 45.4057 83.392 45.5413 83.0327 45.71C82.6733 45.8713 82.413 46.0657 82.2517 46.293C82.0977 46.5203 82.0207 46.7697 82.0207 47.041C82.0207 47.305 82.061 47.5323 82.1417 47.723C82.2297 47.9063 82.347 48.0603 82.4937 48.185C82.6477 48.3023 82.8237 48.3903 83.0217 48.449C83.227 48.5003 83.4507 48.526 83.6927 48.526C84.3087 48.526 84.8367 48.4123 85.2767 48.185C85.724 47.9503 86.1567 47.613 86.5747 47.173V45.094ZM80.3047 40.342C81.5733 39.1613 83.084 38.571 84.8367 38.571C85.482 38.571 86.054 38.6773 86.5527 38.89C87.0587 39.0953 87.4803 39.3887 87.8177 39.77C88.1623 40.1513 88.4227 40.606 88.5987 41.134C88.782 41.6547 88.8737 42.234 88.8737 42.872V50H87.8177C87.5903 50 87.418 49.967 87.3007 49.901C87.1833 49.8277 87.0843 49.6847 87.0037 49.472L86.7727 48.559C86.4867 48.8157 86.2043 49.0467 85.9257 49.252C85.647 49.45 85.3573 49.6187 85.0567 49.758C84.7633 49.8973 84.4443 50 84.0997 50.066C83.7623 50.1393 83.3883 50.176 82.9777 50.176C82.523 50.176 82.0977 50.1137 81.7017 49.989C81.313 49.8643 80.9757 49.6773 80.6897 49.428C80.4037 49.1713 80.1763 48.856 80.0077 48.482C79.8463 48.108 79.7657 47.668 79.7657 47.162C79.7657 46.7293 79.8793 46.3077 80.1067 45.897C80.3413 45.4863 80.7227 45.1197 81.2507 44.797C81.786 44.467 82.4863 44.1957 83.3517 43.983C84.2243 43.7703 85.2987 43.6493 86.5747 43.62V42.872C86.5747 42.0653 86.4023 41.464 86.0577 41.068C85.713 40.672 85.207 40.474 84.5397 40.474C84.085 40.474 83.7037 40.5327 83.3957 40.65C83.0877 40.76 82.82 40.881 82.5927 41.013C82.3653 41.145 82.1637 41.2697 81.9877 41.387C81.8117 41.497 81.6247 41.552 81.4267 41.552C81.2653 41.552 81.126 41.5117 81.0087 41.431C80.8987 41.343 80.807 41.2367 80.7337 41.112L80.3047 40.342ZM106.979 48.207V50H98.3436V48.207H101.644V38.285C101.644 37.933 101.655 37.5737 101.677 37.207L99.1356 39.352C99.0256 39.44 98.912 39.4987 98.7946 39.528C98.6846 39.55 98.5783 39.55 98.4756 39.528C98.3803 39.506 98.2923 39.473 98.2116 39.429C98.1383 39.3777 98.0796 39.3227 98.0356 39.264L97.2986 38.23L102.073 34.127H103.998V48.207H106.979ZM109.521 48.636C109.521 48.4233 109.558 48.2253 109.631 48.042C109.712 47.8513 109.818 47.6863 109.95 47.547C110.09 47.4077 110.251 47.2977 110.434 47.217C110.625 47.1363 110.827 47.096 111.039 47.096C111.252 47.096 111.45 47.1363 111.633 47.217C111.824 47.2977 111.989 47.4077 112.128 47.547C112.268 47.6863 112.378 47.8513 112.458 48.042C112.539 48.2253 112.579 48.4233 112.579 48.636C112.579 48.856 112.539 49.0577 112.458 49.241C112.378 49.4243 112.268 49.5857 112.128 49.725C111.989 49.8643 111.824 49.9707 111.633 50.044C111.45 50.1247 111.252 50.165 111.039 50.165C110.827 50.165 110.625 50.1247 110.434 50.044C110.251 49.9707 110.09 49.8643 109.95 49.725C109.818 49.5857 109.712 49.4243 109.631 49.241C109.558 49.0577 109.521 48.856 109.521 48.636ZM124.94 48.207V50H116.305V48.207H119.605V38.285C119.605 37.933 119.616 37.5737 119.638 37.207L117.097 39.352C116.987 39.44 116.873 39.4987 116.756 39.528C116.646 39.55 116.539 39.55 116.437 39.528C116.341 39.506 116.253 39.473 116.173 39.429C116.099 39.3777 116.041 39.3227 115.997 39.264L115.26 38.23L120.034 34.127H121.959V48.207H124.94Z" fill="#0B0B14"/>
<path d="M34 94C34 85.1634 41.1634 78 50 78H675C683.837 78 691 85.1634 691 94V94C691 102.837 683.837 110 675 110H50C41.1635 110 34 102.837 34 94V94Z" fill="#E8E8E8"/>
<path d="M34 94C34 85.1634 41.1634 78 50 78H315.375V110H50C41.1634 110 34 102.837 34 94V94Z" fill="#17B573"/>
<path d="M56.12 95.55V90.82C56.12 90.3733 56.15 89.88 56.21 89.34L51.72 95.55H56.12ZM60.09 95.55V96.98C60.09 97.1133 60.0467 97.23 59.96 97.33C59.8733 97.4233 59.75 97.47 59.59 97.47H58.27V101H56.12V97.47H50.02C49.8533 97.47 49.7067 97.42 49.58 97.32C49.4533 97.2133 49.3733 97.0833 49.34 96.93L49.08 95.68L55.93 86.53H58.27V95.55H60.09ZM71.7016 93.77C71.7016 95.03 71.5649 96.1267 71.2916 97.06C71.0249 97.9867 70.6516 98.7533 70.1716 99.36C69.6982 99.9667 69.1349 100.42 68.4816 100.72C67.8349 101.013 67.1349 101.16 66.3816 101.16C65.6282 101.16 64.9282 101.013 64.2816 100.72C63.6416 100.42 63.0849 99.9667 62.6116 99.36C62.1382 98.7533 61.7682 97.9867 61.5016 97.06C61.2349 96.1267 61.1016 95.03 61.1016 93.77C61.1016 92.5033 61.2349 91.4067 61.5016 90.48C61.7682 89.5533 62.1382 88.7867 62.6116 88.18C63.0849 87.5733 63.6416 87.1233 64.2816 86.83C64.9282 86.53 65.6282 86.38 66.3816 86.38C67.1349 86.38 67.8349 86.53 68.4816 86.83C69.1349 87.1233 69.6982 87.5733 70.1716 88.18C70.6516 88.7867 71.0249 89.5533 71.2916 90.48C71.5649 91.4067 71.7016 92.5033 71.7016 93.77ZM69.1516 93.77C69.1516 92.7233 69.0749 91.8567 68.9216 91.17C68.7682 90.4833 68.5616 89.9367 68.3016 89.53C68.0482 89.1233 67.7549 88.84 67.4216 88.68C67.0882 88.5133 66.7416 88.43 66.3816 88.43C66.0282 88.43 65.6849 88.5133 65.3516 88.68C65.0249 88.84 64.7349 89.1233 64.4816 89.53C64.2282 89.9367 64.0249 90.4833 63.8716 91.17C63.7249 91.8567 63.6516 92.7233 63.6516 93.77C63.6516 94.8167 63.7249 95.6833 63.8716 96.37C64.0249 97.0567 64.2282 97.6033 64.4816 98.01C64.7349 98.4167 65.0249 98.7033 65.3516 98.87C65.6849 99.03 66.0282 99.11 66.3816 99.11C66.7416 99.11 67.0882 99.03 67.4216 98.87C67.7549 98.7033 68.0482 98.4167 68.3016 98.01C68.5616 97.6033 68.7682 97.0567 68.9216 96.37C69.0749 95.6833 69.1516 94.8167 69.1516 93.77ZM79.6531 90.04C79.6531 90.5867 79.5598 91.08 79.3731 91.52C79.1931 91.96 78.9498 92.3367 78.6431 92.65C78.3365 92.9567 77.9798 93.1933 77.5731 93.36C77.1665 93.5267 76.7431 93.61 76.3031 93.61C75.8231 93.61 75.3798 93.5267 74.9731 93.36C74.5665 93.1933 74.2131 92.9567 73.9131 92.65C73.6198 92.3367 73.3898 91.96 73.2231 91.52C73.0565 91.08 72.9731 90.5867 72.9731 90.04C72.9731 89.48 73.0565 88.9733 73.2231 88.52C73.3898 88.0667 73.6198 87.6833 73.9131 87.37C74.2131 87.0567 74.5665 86.8167 74.9731 86.65C75.3798 86.4767 75.8231 86.39 76.3031 86.39C76.7831 86.39 77.2265 86.4767 77.6331 86.65C78.0465 86.8167 78.4031 87.0567 78.7031 87.37C79.0031 87.6833 79.2365 88.0667 79.4031 88.52C79.5698 88.9733 79.6531 89.48 79.6531 90.04ZM77.7531 90.04C77.7531 89.6533 77.7131 89.33 77.6331 89.07C77.5598 88.81 77.4565 88.6 77.3231 88.44C77.1965 88.28 77.0431 88.1667 76.8631 88.1C76.6898 88.0267 76.5031 87.99 76.3031 87.99C76.1031 87.99 75.9165 88.0267 75.7431 88.1C75.5698 88.1667 75.4198 88.28 75.2931 88.44C75.1731 88.6 75.0765 88.81 75.0031 89.07C74.9298 89.33 74.8931 89.6533 74.8931 90.04C74.8931 90.4133 74.9298 90.7267 75.0031 90.98C75.0765 91.2267 75.1731 91.4267 75.2931 91.58C75.4198 91.7333 75.5698 91.8433 75.7431 91.91C75.9165 91.9767 76.1031 92.01 76.3031 92.01C76.5031 92.01 76.6898 91.9767 76.8631 91.91C77.0431 91.8433 77.1965 91.7333 77.3231 91.58C77.4565 91.4267 77.5598 91.2267 77.6331 90.98C77.7131 90.7267 77.7531 90.4133 77.7531 90.04ZM84.4631 86.93C84.5498 86.83 84.6498 86.74 84.7631 86.66C84.8831 86.58 85.0498 86.54 85.2631 86.54H87.0631L76.3231 100.63C76.2365 100.737 76.1331 100.827 76.0131 100.9C75.8931 100.967 75.7465 101 75.5731 101H73.7331L84.4631 86.93ZM87.8231 97.6C87.8231 98.1467 87.7298 98.64 87.5431 99.08C87.3631 99.52 87.1198 99.8967 86.8131 100.21C86.5065 100.517 86.1498 100.757 85.7431 100.93C85.3365 101.097 84.9131 101.18 84.4731 101.18C83.9931 101.18 83.5498 101.097 83.1431 100.93C82.7365 100.757 82.3831 100.517 82.0831 100.21C81.7898 99.8967 81.5598 99.52 81.3931 99.08C81.2265 98.64 81.1431 98.1467 81.1431 97.6C81.1431 97.04 81.2265 96.5333 81.3931 96.08C81.5598 95.6267 81.7898 95.2433 82.0831 94.93C82.3831 94.6167 82.7365 94.3767 83.1431 94.21C83.5498 94.0367 83.9931 93.95 84.4731 93.95C84.9531 93.95 85.3965 94.0367 85.8031 94.21C86.2165 94.3767 86.5698 94.6167 86.8631 94.93C87.1631 95.2433 87.3965 95.6267 87.5631 96.08C87.7365 96.5333 87.8231 97.04 87.8231 97.6ZM85.9131 97.6C85.9131 97.2133 85.8765 96.89 85.8031 96.63C85.7298 96.37 85.6265 96.16 85.4931 96C85.3665 95.84 85.2131 95.7267 85.0331 95.66C84.8598 95.5867 84.6731 95.55 84.4731 95.55C84.2731 95.55 84.0865 95.5867 83.9131 95.66C83.7398 95.7267 83.5898 95.84 83.4631 96C83.3365 96.16 83.2365 96.37 83.1631 96.63C83.0965 96.89 83.0631 97.2133 83.0631 97.6C83.0631 97.9733 83.0965 98.2867 83.1631 98.54C83.2365 98.7933 83.3365 98.9967 83.4631 99.15C83.5898 99.3033 83.7398 99.4133 83.9131 99.48C84.0865 99.5467 84.2731 99.58 84.4731 99.58C84.6731 99.58 84.8598 99.5467 85.0331 99.48C85.2131 99.4133 85.3665 99.3033 85.4931 99.15C85.6265 98.9967 85.7298 98.7933 85.8031 98.54C85.8765 98.2867 85.9131 97.9733 85.9131 97.6Z" fill="white"/>
<path d="M577.818 33.962L577.812 35H572.472V26.384H577.812V27.422H573.756V30.152H577.02V31.154H573.756V33.962H577.818ZM582.658 29.954C582.626 30.006 582.592 30.044 582.556 30.068C582.52 30.088 582.474 30.098 582.418 30.098C582.354 30.098 582.282 30.076 582.202 30.032C582.126 29.988 582.032 29.94 581.92 29.888C581.812 29.836 581.684 29.788 581.536 29.744C581.388 29.7 581.212 29.678 581.008 29.678C580.84 29.678 580.686 29.7 580.546 29.744C580.41 29.784 580.294 29.842 580.198 29.918C580.102 29.99 580.028 30.078 579.976 30.182C579.924 30.282 579.898 30.39 579.898 30.506C579.898 30.658 579.942 30.784 580.03 30.884C580.122 30.984 580.24 31.07 580.384 31.142C580.532 31.214 580.698 31.28 580.882 31.34C581.07 31.396 581.26 31.456 581.452 31.52C581.648 31.584 581.838 31.658 582.022 31.742C582.21 31.822 582.376 31.924 582.52 32.048C582.668 32.168 582.786 32.314 582.874 32.486C582.966 32.658 583.012 32.868 583.012 33.116C583.012 33.4 582.96 33.664 582.856 33.908C582.756 34.148 582.606 34.356 582.406 34.532C582.21 34.708 581.966 34.846 581.674 34.946C581.382 35.046 581.048 35.096 580.672 35.096C580.252 35.096 579.864 35.026 579.508 34.886C579.152 34.746 578.854 34.568 578.614 34.352L578.89 33.902C578.922 33.846 578.962 33.804 579.01 33.776C579.058 33.744 579.122 33.728 579.202 33.728C579.278 33.728 579.356 33.756 579.436 33.812C579.516 33.868 579.612 33.93 579.724 33.998C579.836 34.062 579.972 34.122 580.132 34.178C580.292 34.23 580.492 34.256 580.732 34.256C580.932 34.256 581.106 34.232 581.254 34.184C581.402 34.132 581.524 34.064 581.62 33.98C581.72 33.892 581.794 33.792 581.842 33.68C581.89 33.568 581.914 33.45 581.914 33.326C581.914 33.166 581.868 33.034 581.776 32.93C581.688 32.822 581.57 32.73 581.422 32.654C581.278 32.578 581.112 32.512 580.924 32.456C580.736 32.4 580.544 32.34 580.348 32.276C580.152 32.212 579.96 32.138 579.772 32.054C579.584 31.97 579.416 31.864 579.268 31.736C579.124 31.608 579.006 31.452 578.914 31.268C578.826 31.084 578.782 30.86 578.782 30.596C578.782 30.36 578.83 30.134 578.926 29.918C579.026 29.702 579.168 29.512 579.352 29.348C579.54 29.184 579.77 29.054 580.042 28.958C580.318 28.858 580.632 28.808 580.984 28.808C581.388 28.808 581.752 28.872 582.076 29C582.404 29.128 582.684 29.304 582.916 29.528L582.658 29.954ZM590.057 35H588.881V29.852H585.821V33.422C585.821 33.662 585.879 33.842 585.995 33.962C586.115 34.078 586.267 34.136 586.451 34.136C586.559 34.136 586.651 34.122 586.727 34.094C586.807 34.066 586.875 34.036 586.931 34.004C586.987 33.968 587.035 33.936 587.075 33.908C587.115 33.88 587.151 33.866 587.183 33.866C587.223 33.866 587.253 33.876 587.273 33.896C587.297 33.912 587.321 33.94 587.345 33.98L587.693 34.544C587.501 34.72 587.273 34.856 587.009 34.952C586.745 35.048 586.471 35.096 586.187 35.096C585.695 35.096 585.315 34.958 585.047 34.682C584.783 34.406 584.651 34.012 584.651 33.5V29.852H583.943C583.875 29.852 583.817 29.832 583.769 29.792C583.725 29.748 583.703 29.684 583.703 29.6V29.126L584.699 28.988L584.957 27.17C584.973 27.102 585.003 27.05 585.047 27.014C585.095 26.974 585.155 26.954 585.227 26.954H585.821V29H590.057V35ZM590.321 26.984C590.321 27.092 590.299 27.196 590.255 27.296C590.211 27.392 590.151 27.478 590.075 27.554C590.003 27.626 589.917 27.684 589.817 27.728C589.717 27.768 589.613 27.788 589.505 27.788C589.397 27.788 589.295 27.768 589.199 27.728C589.103 27.684 589.017 27.626 588.941 27.554C588.869 27.478 588.811 27.392 588.767 27.296C588.727 27.196 588.707 27.092 588.707 26.984C588.707 26.872 588.727 26.766 588.767 26.666C588.811 26.566 588.869 26.48 588.941 26.408C589.017 26.332 589.103 26.274 589.199 26.234C589.295 26.19 589.397 26.168 589.505 26.168C589.613 26.168 589.717 26.19 589.817 26.234C589.917 26.274 590.003 26.332 590.075 26.408C590.151 26.48 590.211 26.566 590.255 26.666C590.299 26.766 590.321 26.872 590.321 26.984ZM591.756 35V28.904H592.458C592.622 28.904 592.724 28.982 592.764 29.138L592.848 29.72C593.072 29.452 593.32 29.234 593.592 29.066C593.868 28.894 594.19 28.808 594.558 28.808C594.962 28.808 595.29 28.92 595.542 29.144C595.794 29.364 595.978 29.664 596.094 30.044C596.182 29.828 596.296 29.642 596.436 29.486C596.576 29.33 596.732 29.202 596.904 29.102C597.076 29.002 597.258 28.928 597.45 28.88C597.646 28.832 597.844 28.808 598.044 28.808C598.368 28.808 598.656 28.86 598.908 28.964C599.164 29.064 599.38 29.212 599.556 29.408C599.732 29.604 599.866 29.846 599.958 30.134C600.05 30.422 600.096 30.75 600.096 31.118V35H598.92V31.118C598.92 30.662 598.82 30.318 598.62 30.086C598.424 29.854 598.136 29.738 597.756 29.738C597.588 29.738 597.428 29.768 597.276 29.828C597.124 29.884 596.99 29.97 596.874 30.086C596.762 30.202 596.672 30.346 596.604 30.518C596.54 30.69 596.508 30.89 596.508 31.118V35H595.332V31.118C595.332 30.646 595.238 30.298 595.05 30.074C594.862 29.85 594.586 29.738 594.222 29.738C593.97 29.738 593.736 29.804 593.52 29.936C593.304 30.068 593.106 30.248 592.926 30.476V35H591.756ZM604.946 32.294C604.47 32.31 604.066 32.348 603.734 32.408C603.402 32.464 603.132 32.54 602.924 32.636C602.716 32.732 602.566 32.846 602.474 32.978C602.382 33.106 602.336 33.25 602.336 33.41C602.336 33.562 602.36 33.694 602.408 33.806C602.46 33.914 602.528 34.004 602.612 34.076C602.7 34.144 602.802 34.194 602.918 34.226C603.034 34.258 603.16 34.274 603.296 34.274C603.476 34.274 603.64 34.256 603.788 34.22C603.94 34.184 604.082 34.134 604.214 34.07C604.346 34.002 604.472 33.92 604.592 33.824C604.712 33.728 604.83 33.618 604.946 33.494V32.294ZM601.514 29.756C601.854 29.432 602.222 29.19 602.618 29.03C603.018 28.87 603.456 28.79 603.932 28.79C604.28 28.79 604.588 28.848 604.856 28.964C605.124 29.076 605.35 29.234 605.534 29.438C605.718 29.642 605.856 29.886 605.948 30.17C606.044 30.454 606.092 30.768 606.092 31.112V35H605.57C605.454 35 605.366 34.982 605.306 34.946C605.246 34.906 605.198 34.834 605.162 34.73L605.036 34.196C604.88 34.34 604.726 34.468 604.574 34.58C604.422 34.688 604.262 34.782 604.094 34.862C603.93 34.938 603.754 34.996 603.566 35.036C603.378 35.076 603.17 35.096 602.942 35.096C602.702 35.096 602.476 35.064 602.264 35C602.056 34.932 601.874 34.83 601.718 34.694C601.562 34.558 601.438 34.388 601.346 34.184C601.258 33.98 601.214 33.742 601.214 33.47C601.214 33.23 601.278 33 601.406 32.78C601.538 32.556 601.75 32.356 602.042 32.18C602.338 32.004 602.722 31.86 603.194 31.748C603.67 31.636 604.254 31.572 604.946 31.556V31.112C604.946 30.652 604.848 30.308 604.652 30.08C604.456 29.852 604.168 29.738 603.788 29.738C603.532 29.738 603.316 29.77 603.14 29.834C602.968 29.898 602.818 29.97 602.69 30.05C602.566 30.126 602.456 30.196 602.36 30.26C602.268 30.324 602.172 30.356 602.072 30.356C601.992 30.356 601.922 30.334 601.862 30.29C601.806 30.246 601.76 30.194 601.724 30.134L601.514 29.756ZM609.484 35.096C608.992 35.096 608.612 34.958 608.344 34.682C608.08 34.406 607.948 34.012 607.948 33.5V29.852H607.24C607.172 29.852 607.114 29.832 607.066 29.792C607.022 29.748 607 29.684 607 29.6V29.126L607.99 28.988L608.254 27.17C608.27 27.102 608.3 27.05 608.344 27.014C608.392 26.974 608.452 26.954 608.524 26.954H609.118V29H610.846V29.852H609.118V33.422C609.118 33.662 609.176 33.842 609.292 33.962C609.412 34.078 609.564 34.136 609.748 34.136C609.856 34.136 609.948 34.122 610.024 34.094C610.104 34.066 610.172 34.036 610.228 34.004C610.284 33.968 610.332 33.936 610.372 33.908C610.412 33.88 610.448 33.866 610.48 33.866C610.52 33.866 610.55 33.876 610.57 33.896C610.594 33.912 610.618 33.94 610.642 33.98L610.99 34.544C610.798 34.72 610.57 34.856 610.306 34.952C610.042 35.048 609.768 35.096 609.484 35.096ZM615.926 31.274C615.926 31.042 615.892 30.828 615.824 30.632C615.76 30.436 615.664 30.266 615.536 30.122C615.408 29.978 615.252 29.866 615.068 29.786C614.884 29.706 614.672 29.666 614.432 29.666C613.94 29.666 613.552 29.808 613.268 30.092C612.988 30.376 612.81 30.77 612.734 31.274H615.926ZM616.892 34.13C616.748 34.298 616.582 34.444 616.394 34.568C616.206 34.688 616.006 34.786 615.794 34.862C615.582 34.938 615.362 34.994 615.134 35.03C614.91 35.066 614.688 35.084 614.468 35.084C614.048 35.084 613.658 35.014 613.298 34.874C612.942 34.73 612.632 34.522 612.368 34.25C612.108 33.974 611.904 33.634 611.756 33.23C611.612 32.822 611.54 32.354 611.54 31.826C611.54 31.402 611.606 31.008 611.738 30.644C611.87 30.276 612.058 29.956 612.302 29.684C612.55 29.412 612.852 29.198 613.208 29.042C613.564 28.886 613.964 28.808 614.408 28.808C614.78 28.808 615.122 28.87 615.434 28.994C615.75 29.114 616.022 29.29 616.25 29.522C616.478 29.754 616.656 30.04 616.784 30.38C616.916 30.72 616.982 31.108 616.982 31.544C616.982 31.724 616.962 31.846 616.922 31.91C616.882 31.97 616.808 32 616.7 32H612.704C612.716 32.364 612.768 32.682 612.86 32.954C612.952 33.222 613.078 33.446 613.238 33.626C613.402 33.806 613.596 33.94 613.82 34.028C614.044 34.116 614.294 34.16 614.57 34.16C614.83 34.16 615.054 34.13 615.242 34.07C615.434 34.01 615.598 33.946 615.734 33.878C615.874 33.806 615.99 33.74 616.082 33.68C616.178 33.62 616.262 33.59 616.334 33.59C616.43 33.59 616.504 33.626 616.556 33.698L616.892 34.13ZM629.033 30.692C629.033 31.336 628.929 31.922 628.721 32.45C628.517 32.978 628.227 33.432 627.851 33.812C627.475 34.188 627.025 34.48 626.501 34.688C625.977 34.896 625.395 35 624.755 35H621.515V26.384H624.755C625.395 26.384 625.977 26.488 626.501 26.696C627.025 26.904 627.475 27.198 627.851 27.578C628.227 27.954 628.517 28.408 628.721 28.94C628.929 29.468 629.033 30.052 629.033 30.692ZM627.725 30.692C627.725 30.18 627.655 29.722 627.515 29.318C627.375 28.91 627.175 28.566 626.915 28.286C626.659 28.002 626.347 27.786 625.979 27.638C625.615 27.49 625.207 27.416 624.755 27.416H622.799V33.968H624.755C625.207 33.968 625.615 33.894 625.979 33.746C626.347 33.598 626.659 33.384 626.915 33.104C627.175 32.82 627.375 32.476 627.515 32.072C627.655 31.668 627.725 31.208 627.725 30.692ZM633.528 32.294C633.052 32.31 632.648 32.348 632.316 32.408C631.984 32.464 631.714 32.54 631.506 32.636C631.298 32.732 631.148 32.846 631.056 32.978C630.964 33.106 630.918 33.25 630.918 33.41C630.918 33.562 630.942 33.694 630.99 33.806C631.042 33.914 631.11 34.004 631.194 34.076C631.282 34.144 631.384 34.194 631.5 34.226C631.616 34.258 631.742 34.274 631.878 34.274C632.058 34.274 632.222 34.256 632.37 34.22C632.522 34.184 632.664 34.134 632.796 34.07C632.928 34.002 633.054 33.92 633.174 33.824C633.294 33.728 633.412 33.618 633.528 33.494V32.294ZM630.096 29.756C630.436 29.432 630.804 29.19 631.2 29.03C631.6 28.87 632.038 28.79 632.514 28.79C632.862 28.79 633.17 28.848 633.438 28.964C633.706 29.076 633.932 29.234 634.116 29.438C634.3 29.642 634.438 29.886 634.53 30.17C634.626 30.454 634.674 30.768 634.674 31.112V35H634.152C634.036 35 633.948 34.982 633.888 34.946C633.828 34.906 633.78 34.834 633.744 34.73L633.618 34.196C633.462 34.34 633.308 34.468 633.156 34.58C633.004 34.688 632.844 34.782 632.676 34.862C632.512 34.938 632.336 34.996 632.148 35.036C631.96 35.076 631.752 35.096 631.524 35.096C631.284 35.096 631.058 35.064 630.846 35C630.638 34.932 630.456 34.83 630.3 34.694C630.144 34.558 630.02 34.388 629.928 34.184C629.84 33.98 629.796 33.742 629.796 33.47C629.796 33.23 629.86 33 629.988 32.78C630.12 32.556 630.332 32.356 630.624 32.18C630.92 32.004 631.304 31.86 631.776 31.748C632.252 31.636 632.836 31.572 633.528 31.556V31.112C633.528 30.652 633.43 30.308 633.234 30.08C633.038 29.852 632.75 29.738 632.37 29.738C632.114 29.738 631.898 29.77 631.722 29.834C631.55 29.898 631.4 29.97 631.272 30.05C631.148 30.126 631.038 30.196 630.942 30.26C630.85 30.324 630.754 30.356 630.654 30.356C630.574 30.356 630.504 30.334 630.444 30.29C630.388 30.246 630.342 30.194 630.306 30.134L630.096 29.756ZM638.066 35.096C637.574 35.096 637.194 34.958 636.926 34.682C636.662 34.406 636.53 34.012 636.53 33.5V29.852H635.822C635.754 29.852 635.696 29.832 635.648 29.792C635.604 29.748 635.582 29.684 635.582 29.6V29.126L636.572 28.988L636.836 27.17C636.852 27.102 636.882 27.05 636.926 27.014C636.974 26.974 637.034 26.954 637.106 26.954H637.7V29H639.428V29.852H637.7V33.422C637.7 33.662 637.758 33.842 637.874 33.962C637.994 34.078 638.146 34.136 638.33 34.136C638.438 34.136 638.53 34.122 638.606 34.094C638.686 34.066 638.754 34.036 638.81 34.004C638.866 33.968 638.914 33.936 638.954 33.908C638.994 33.88 639.03 33.866 639.062 33.866C639.102 33.866 639.132 33.876 639.152 33.896C639.176 33.912 639.2 33.94 639.224 33.98L639.572 34.544C639.38 34.72 639.152 34.856 638.888 34.952C638.624 35.048 638.35 35.096 638.066 35.096ZM644.508 31.274C644.508 31.042 644.474 30.828 644.406 30.632C644.342 30.436 644.246 30.266 644.118 30.122C643.99 29.978 643.834 29.866 643.65 29.786C643.466 29.706 643.254 29.666 643.014 29.666C642.522 29.666 642.134 29.808 641.85 30.092C641.57 30.376 641.392 30.77 641.316 31.274H644.508ZM645.474 34.13C645.33 34.298 645.164 34.444 644.976 34.568C644.788 34.688 644.588 34.786 644.376 34.862C644.164 34.938 643.944 34.994 643.716 35.03C643.492 35.066 643.27 35.084 643.05 35.084C642.63 35.084 642.24 35.014 641.88 34.874C641.524 34.73 641.214 34.522 640.95 34.25C640.69 33.974 640.486 33.634 640.338 33.23C640.194 32.822 640.122 32.354 640.122 31.826C640.122 31.402 640.188 31.008 640.32 30.644C640.452 30.276 640.64 29.956 640.884 29.684C641.132 29.412 641.434 29.198 641.79 29.042C642.146 28.886 642.546 28.808 642.99 28.808C643.362 28.808 643.704 28.87 644.016 28.994C644.332 29.114 644.604 29.29 644.832 29.522C645.06 29.754 645.238 30.04 645.366 30.38C645.498 30.72 645.564 31.108 645.564 31.544C645.564 31.724 645.544 31.846 645.504 31.91C645.464 31.97 645.39 32 645.282 32H641.286C641.298 32.364 641.35 32.682 641.442 32.954C641.534 33.222 641.66 33.446 641.82 33.626C641.984 33.806 642.178 33.94 642.402 34.028C642.626 34.116 642.876 34.16 643.152 34.16C643.412 34.16 643.636 34.13 643.824 34.07C644.016 34.01 644.18 33.946 644.316 33.878C644.456 33.806 644.572 33.74 644.664 33.68C644.76 33.62 644.844 33.59 644.916 33.59C645.012 33.59 645.086 33.626 645.138 33.698L645.474 34.13Z" fill="#666666"/>
<path d="M528.869 53.359L527.373 49.2705C527.3 49.0892 527.223 48.8738 527.144 48.6245C527.065 48.3752 526.985 48.106 526.906 47.817C526.832 48.106 526.756 48.378 526.676 48.633C526.597 48.8823 526.521 49.1005 526.447 49.2875L524.959 53.359H528.869ZM532.907 58H531.139C530.941 58 530.779 57.9518 530.654 57.8555C530.53 57.7535 530.436 57.6288 530.374 57.4815L529.456 54.974H524.364L523.446 57.4815C523.401 57.6118 523.313 57.7308 523.183 57.8385C523.053 57.9462 522.891 58 522.698 58H520.913L525.75 45.709H528.079L532.907 58ZM541.162 49.279V58H539.879C539.601 58 539.425 57.8725 539.352 57.6175L539.207 56.9205C538.85 57.2832 538.456 57.5778 538.026 57.8045C537.595 58.0255 537.088 58.136 536.504 58.136C536.028 58.136 535.606 58.0567 535.238 57.898C534.875 57.7337 534.569 57.5042 534.32 57.2095C534.07 56.9148 533.881 56.5663 533.75 56.164C533.626 55.756 533.563 55.3083 533.563 54.821V49.279H535.663V54.821C535.663 55.3537 535.785 55.7673 536.028 56.062C536.278 56.351 536.649 56.4955 537.142 56.4955C537.504 56.4955 537.844 56.4162 538.162 56.2575C538.479 56.0932 538.779 55.8693 539.063 55.586V49.279H541.162ZM546.432 53.427C546.692 53.427 546.919 53.393 547.112 53.325C547.304 53.2513 547.463 53.1522 547.588 53.0275C547.718 52.9028 547.814 52.7527 547.877 52.577C547.945 52.4013 547.979 52.2087 547.979 51.999C547.979 51.5683 547.848 51.2283 547.588 50.979C547.333 50.724 546.947 50.5965 546.432 50.5965C545.916 50.5965 545.528 50.724 545.267 50.979C545.012 51.2283 544.885 51.5683 544.885 51.999C544.885 52.203 544.916 52.3928 544.978 52.5685C545.046 52.7442 545.142 52.8972 545.267 53.0275C545.397 53.1522 545.559 53.2513 545.752 53.325C545.95 53.393 546.177 53.427 546.432 53.427ZM548.803 58.391C548.803 58.221 548.752 58.0822 548.65 57.9745C548.548 57.8668 548.409 57.7847 548.234 57.728C548.058 57.6657 547.851 57.6203 547.613 57.592C547.381 57.5637 547.131 57.5438 546.865 57.5325C546.604 57.5155 546.332 57.5013 546.049 57.49C545.771 57.4787 545.499 57.456 545.233 57.422C545.001 57.5523 544.811 57.7053 544.664 57.881C544.522 58.0567 544.451 58.2607 544.451 58.493C544.451 58.646 544.488 58.7877 544.562 58.918C544.641 59.054 544.763 59.1702 544.927 59.2665C545.097 59.3628 545.315 59.4365 545.582 59.4875C545.848 59.5442 546.174 59.5725 546.559 59.5725C546.95 59.5725 547.287 59.5413 547.571 59.479C547.854 59.4223 548.086 59.3402 548.268 59.2325C548.455 59.1305 548.591 59.0058 548.676 58.8585C548.761 58.7168 548.803 58.561 548.803 58.391ZM550.894 49.5765V50.3585C550.894 50.6078 550.744 50.7608 550.444 50.8175L549.662 50.962C549.781 51.2623 549.84 51.591 549.84 51.948C549.84 52.3787 549.752 52.7697 549.577 53.121C549.407 53.4667 549.169 53.7613 548.863 54.005C548.557 54.2487 548.194 54.4385 547.775 54.5745C547.361 54.7048 546.913 54.77 546.432 54.77C546.262 54.77 546.097 54.7615 545.939 54.7445C545.78 54.7275 545.624 54.7048 545.471 54.6765C545.199 54.8408 545.063 55.025 545.063 55.229C545.063 55.4047 545.142 55.535 545.301 55.62C545.465 55.6993 545.681 55.756 545.947 55.79C546.213 55.824 546.517 55.8467 546.857 55.858C547.197 55.8637 547.545 55.8807 547.902 55.909C548.259 55.9373 548.608 55.9883 548.948 56.062C549.288 56.13 549.591 56.2405 549.857 56.3935C550.123 56.5465 550.336 56.7562 550.495 57.0225C550.659 57.2832 550.741 57.6203 550.741 58.034C550.741 58.4193 550.645 58.7933 550.452 59.156C550.265 59.5187 549.99 59.8417 549.628 60.125C549.271 60.4083 548.829 60.635 548.302 60.805C547.78 60.9807 547.185 61.0685 546.517 61.0685C545.859 61.0685 545.287 61.0033 544.8 60.873C544.312 60.7483 543.907 60.5783 543.584 60.363C543.261 60.1533 543.02 59.9097 542.862 59.632C542.703 59.3543 542.624 59.0653 542.624 58.765C542.624 58.357 542.745 58.017 542.989 57.745C543.238 57.4673 543.578 57.2463 544.009 57.082C543.777 56.963 543.593 56.8043 543.457 56.606C543.321 56.4077 543.253 56.147 543.253 55.824C543.253 55.6937 543.275 55.5605 543.321 55.4245C543.372 55.2828 543.442 55.144 543.533 55.008C543.629 54.872 543.748 54.7445 543.89 54.6255C544.032 54.5008 544.199 54.3903 544.392 54.294C543.95 54.056 543.601 53.7387 543.346 53.342C543.097 52.9453 542.972 52.4807 542.972 51.948C542.972 51.5173 543.057 51.1292 543.227 50.7835C543.403 50.4322 543.644 50.1347 543.95 49.891C544.261 49.6417 544.627 49.4518 545.046 49.3215C545.471 49.1912 545.933 49.126 546.432 49.126C546.806 49.126 547.157 49.1657 547.486 49.245C547.814 49.3187 548.115 49.4292 548.387 49.5765H550.894ZM559.739 49.279V58H558.456C558.178 58 558.003 57.8725 557.929 57.6175L557.784 56.9205C557.427 57.2832 557.034 57.5778 556.603 57.8045C556.172 58.0255 555.665 58.136 555.081 58.136C554.605 58.136 554.183 58.0567 553.815 57.898C553.452 57.7337 553.146 57.5042 552.897 57.2095C552.648 56.9148 552.458 56.5663 552.327 56.164C552.203 55.756 552.14 55.3083 552.14 54.821V49.279H554.24V54.821C554.24 55.3537 554.362 55.7673 554.605 56.062C554.855 56.351 555.226 56.4955 555.719 56.4955C556.082 56.4955 556.422 56.4162 556.739 56.2575C557.056 56.0932 557.357 55.8693 557.64 55.586V49.279H559.739ZM567.142 50.979C567.086 51.0697 567.026 51.1348 566.964 51.1745C566.901 51.2085 566.822 51.2255 566.726 51.2255C566.624 51.2255 566.513 51.1972 566.394 51.1405C566.281 51.0838 566.148 51.0215 565.995 50.9535C565.842 50.8798 565.666 50.8147 565.468 50.758C565.275 50.7013 565.046 50.673 564.779 50.673C564.366 50.673 564.04 50.7608 563.802 50.9365C563.569 51.1122 563.453 51.3417 563.453 51.625C563.453 51.812 563.513 51.9707 563.632 52.101C563.756 52.2257 563.918 52.3362 564.116 52.4325C564.32 52.5288 564.55 52.6167 564.805 52.696C565.06 52.7697 565.318 52.8518 565.578 52.9425C565.845 53.0332 566.105 53.138 566.36 53.257C566.615 53.3703 566.842 53.5177 567.04 53.699C567.244 53.8747 567.406 54.0872 567.525 54.3365C567.649 54.5858 567.712 54.8862 567.712 55.2375C567.712 55.6568 567.635 56.045 567.482 56.402C567.335 56.7533 567.114 57.0593 566.819 57.32C566.525 57.575 566.159 57.7762 565.723 57.9235C565.292 58.0652 564.793 58.136 564.227 58.136C563.926 58.136 563.632 58.1077 563.343 58.051C563.059 58 562.785 57.9263 562.518 57.83C562.258 57.7337 562.014 57.6203 561.787 57.49C561.566 57.3597 561.371 57.218 561.201 57.065L561.685 56.266C561.748 56.1697 561.821 56.096 561.906 56.045C561.991 55.994 562.099 55.9685 562.229 55.9685C562.36 55.9685 562.481 56.0053 562.595 56.079C562.714 56.1527 562.85 56.232 563.003 56.317C563.156 56.402 563.334 56.4813 563.538 56.555C563.748 56.6287 564.011 56.6655 564.329 56.6655C564.578 56.6655 564.791 56.6372 564.966 56.5805C565.148 56.5182 565.295 56.4388 565.408 56.3425C565.527 56.2462 565.612 56.1357 565.663 56.011C565.72 55.8807 565.748 55.7475 565.748 55.6115C565.748 55.4075 565.686 55.2403 565.561 55.11C565.442 54.9797 565.281 54.8663 565.077 54.77C564.878 54.6737 564.649 54.5887 564.388 54.515C564.133 54.4357 563.87 54.3507 563.598 54.26C563.331 54.1693 563.068 54.0645 562.807 53.9455C562.552 53.8208 562.323 53.665 562.119 53.478C561.92 53.291 561.759 53.0615 561.634 52.7895C561.515 52.5175 561.456 52.1888 561.456 51.8035C561.456 51.4465 561.527 51.1065 561.668 50.7835C561.81 50.4605 562.017 50.18 562.289 49.942C562.566 49.6983 562.909 49.5057 563.317 49.364C563.731 49.2167 564.207 49.143 564.745 49.143C565.346 49.143 565.893 49.2422 566.386 49.4405C566.879 49.6388 567.29 49.8995 567.618 50.2225L567.142 50.979ZM572.199 58.136C571.44 58.136 570.856 57.9235 570.448 57.4985C570.046 57.0678 569.844 56.4757 569.844 55.722V50.8515H568.952C568.839 50.8515 568.742 50.8147 568.663 50.741C568.584 50.6673 568.544 50.5568 568.544 50.4095V49.5765L569.946 49.347L570.388 46.967C570.417 46.8537 570.471 46.7658 570.55 46.7035C570.629 46.6412 570.731 46.61 570.856 46.61H571.944V49.3555H574.273V50.8515H571.944V55.5775C571.944 55.8495 572.009 56.062 572.139 56.215C572.275 56.368 572.46 56.4445 572.692 56.4445C572.822 56.4445 572.93 56.4303 573.015 56.402C573.106 56.368 573.182 56.334 573.244 56.3C573.312 56.266 573.372 56.2348 573.423 56.2065C573.474 56.1725 573.525 56.1555 573.576 56.1555C573.638 56.1555 573.689 56.1725 573.729 56.2065C573.769 56.2348 573.811 56.2802 573.856 56.3425L574.485 57.3625C574.179 57.6175 573.828 57.8102 573.431 57.9405C573.035 58.0708 572.624 58.136 572.199 58.136ZM587.511 56.4275V58H580.711V56.4275H583.202V49.262C583.202 48.9787 583.21 48.6868 583.227 48.3865L581.459 49.8655C581.357 49.9448 581.255 49.9958 581.153 50.0185C581.057 50.0355 580.964 50.0355 580.873 50.0185C580.788 50.0015 580.711 49.9732 580.643 49.9335C580.575 49.8882 580.524 49.84 580.49 49.789L579.827 48.8795L583.576 45.692H585.301V56.4275H587.511ZM597.857 45.709V46.6185C597.857 46.8905 597.829 47.1115 597.772 47.2815C597.716 47.4458 597.659 47.5847 597.602 47.698L592.944 57.286C592.848 57.4843 592.712 57.6543 592.536 57.796C592.361 57.932 592.125 58 591.831 58H590.309L595.061 48.6075C595.168 48.4148 595.273 48.2392 595.375 48.0805C595.483 47.9162 595.602 47.7603 595.732 47.613H589.85C589.72 47.613 589.607 47.5648 589.51 47.4685C589.414 47.3722 589.366 47.2588 589.366 47.1285V45.709H597.857ZM599.44 60.0825C599.338 59.9975 599.287 59.8927 599.287 59.768C599.287 59.7227 599.301 59.6717 599.329 59.615C599.363 59.5583 599.403 59.5073 599.448 59.462C599.51 59.394 599.587 59.309 599.678 59.207C599.768 59.1107 599.859 58.9973 599.95 58.867C600.04 58.7423 600.122 58.6035 600.196 58.4505C600.275 58.3032 600.335 58.1445 600.375 57.9745C600.193 57.9745 600.029 57.9433 599.882 57.881C599.734 57.813 599.607 57.7223 599.499 57.609C599.397 57.4957 599.315 57.3625 599.253 57.2095C599.196 57.0565 599.168 56.8893 599.168 56.708C599.168 56.5493 599.196 56.402 599.253 56.266C599.315 56.1243 599.4 56.0025 599.508 55.9005C599.615 55.7928 599.746 55.7107 599.899 55.654C600.052 55.5917 600.219 55.5605 600.4 55.5605C600.615 55.5605 600.802 55.6002 600.961 55.6795C601.125 55.7532 601.259 55.858 601.361 55.994C601.468 56.1243 601.548 56.2773 601.599 56.453C601.655 56.623 601.684 56.8043 601.684 56.997C601.684 57.269 601.641 57.5552 601.556 57.8555C601.477 58.1558 601.358 58.4562 601.199 58.7565C601.04 59.0568 600.842 59.3487 600.604 59.632C600.372 59.9153 600.105 60.176 599.805 60.414L599.44 60.0825ZM614.893 56.045C615.12 56.045 615.298 56.1102 615.429 56.2405C615.565 56.3652 615.633 56.5323 615.633 56.742V58H607.201V57.303C607.201 57.1613 607.229 57.014 607.286 56.861C607.348 56.7023 607.444 56.5607 607.575 56.436L611.306 52.696C611.618 52.3787 611.896 52.0755 612.139 51.7865C612.389 51.4975 612.595 51.2113 612.76 50.928C612.924 50.6447 613.049 50.3585 613.134 50.0695C613.224 49.7748 613.27 49.466 613.27 49.143C613.27 48.8483 613.227 48.5905 613.142 48.3695C613.057 48.1428 612.935 47.953 612.777 47.8C612.624 47.647 612.437 47.5337 612.216 47.46C612 47.3807 611.757 47.341 611.485 47.341C611.235 47.341 611.003 47.3778 610.788 47.4515C610.578 47.5195 610.391 47.6187 610.227 47.749C610.062 47.8737 609.924 48.021 609.81 48.191C609.697 48.361 609.612 48.548 609.555 48.752C609.459 49.0127 609.334 49.1855 609.181 49.2705C609.028 49.3555 608.807 49.3753 608.518 49.33L607.413 49.1345C607.498 48.5452 607.663 48.0295 607.906 47.5875C608.15 47.1398 608.453 46.7687 608.816 46.474C609.184 46.1737 609.603 45.9498 610.074 45.8025C610.55 45.6495 611.06 45.573 611.604 45.573C612.17 45.573 612.689 45.658 613.159 45.828C613.63 45.9923 614.032 46.2275 614.366 46.5335C614.701 46.8395 614.961 47.2078 615.148 47.6385C615.335 48.0692 615.429 48.548 615.429 49.075C615.429 49.5283 615.361 49.9477 615.225 50.333C615.094 50.7183 614.916 51.0867 614.689 51.438C614.468 51.7893 614.208 52.1293 613.907 52.458C613.607 52.7867 613.292 53.121 612.964 53.461L610.193 56.2915C610.459 56.2122 610.723 56.1527 610.983 56.113C611.25 56.0677 611.502 56.045 611.74 56.045H614.893ZM625.851 51.8545C625.851 52.9255 625.735 53.8577 625.503 54.651C625.276 55.4387 624.959 56.0903 624.551 56.606C624.148 57.1217 623.669 57.507 623.114 57.762C622.564 58.0113 621.969 58.136 621.329 58.136C620.689 58.136 620.094 58.0113 619.544 57.762C619 57.507 618.527 57.1217 618.125 56.606C617.722 56.0903 617.408 55.4387 617.181 54.651C616.954 53.8577 616.841 52.9255 616.841 51.8545C616.841 50.7778 616.954 49.8457 617.181 49.058C617.408 48.2703 617.722 47.6187 618.125 47.103C618.527 46.5873 619 46.2048 619.544 45.9555C620.094 45.7005 620.689 45.573 621.329 45.573C621.969 45.573 622.564 45.7005 623.114 45.9555C623.669 46.2048 624.148 46.5873 624.551 47.103C624.959 47.6187 625.276 48.2703 625.503 49.058C625.735 49.8457 625.851 50.7778 625.851 51.8545ZM623.684 51.8545C623.684 50.9648 623.618 50.2282 623.488 49.6445C623.358 49.0608 623.182 48.5962 622.961 48.2505C622.746 47.9048 622.496 47.664 622.213 47.528C621.93 47.3863 621.635 47.3155 621.329 47.3155C621.029 47.3155 620.737 47.3863 620.454 47.528C620.176 47.664 619.929 47.9048 619.714 48.2505C619.499 48.5962 619.326 49.0608 619.196 49.6445C619.071 50.2282 619.009 50.9648 619.009 51.8545C619.009 52.7442 619.071 53.4808 619.196 54.0645C619.326 54.6482 619.499 55.1128 619.714 55.4585C619.929 55.8042 620.176 56.0478 620.454 56.1895C620.737 56.3255 621.029 56.3935 621.329 56.3935C621.635 56.3935 621.93 56.3255 622.213 56.1895C622.496 56.0478 622.746 55.8042 622.961 55.4585C623.182 55.1128 623.358 54.6482 623.488 54.0645C623.618 53.4808 623.684 52.7442 623.684 51.8545ZM634.616 56.045C634.843 56.045 635.021 56.1102 635.151 56.2405C635.287 56.3652 635.355 56.5323 635.355 56.742V58H626.923V57.303C626.923 57.1613 626.952 57.014 627.008 56.861C627.071 56.7023 627.167 56.5607 627.297 56.436L631.029 52.696C631.341 52.3787 631.618 52.0755 631.862 51.7865C632.111 51.4975 632.318 51.2113 632.482 50.928C632.647 50.6447 632.771 50.3585 632.856 50.0695C632.947 49.7748 632.992 49.466 632.992 49.143C632.992 48.8483 632.95 48.5905 632.865 48.3695C632.78 48.1428 632.658 47.953 632.499 47.8C632.346 47.647 632.159 47.5337 631.938 47.46C631.723 47.3807 631.479 47.341 631.207 47.341C630.958 47.341 630.726 47.3778 630.51 47.4515C630.301 47.5195 630.114 47.6187 629.949 47.749C629.785 47.8737 629.646 48.021 629.533 48.191C629.42 48.361 629.335 48.548 629.278 48.752C629.182 49.0127 629.057 49.1855 628.904 49.2705C628.751 49.3555 628.53 49.3753 628.241 49.33L627.136 49.1345C627.221 48.5452 627.385 48.0295 627.629 47.5875C627.873 47.1398 628.176 46.7687 628.538 46.474C628.907 46.1737 629.326 45.9498 629.796 45.8025C630.272 45.6495 630.782 45.573 631.326 45.573C631.893 45.573 632.412 45.658 632.882 45.828C633.352 45.9923 633.755 46.2275 634.089 46.5335C634.423 46.8395 634.684 47.2078 634.871 47.6385C635.058 48.0692 635.151 48.548 635.151 49.075C635.151 49.5283 635.083 49.9477 634.947 50.333C634.817 50.7183 634.639 51.0867 634.412 51.438C634.191 51.7893 633.93 52.1293 633.63 52.458C633.33 52.7867 633.015 53.121 632.686 53.461L629.915 56.2915C630.182 56.2122 630.445 56.1527 630.706 56.113C630.972 56.0677 631.224 56.045 631.462 56.045H634.616ZM645.574 51.8545C645.574 52.9255 645.458 53.8577 645.225 54.651C644.999 55.4387 644.681 56.0903 644.273 56.606C643.871 57.1217 643.392 57.507 642.837 57.762C642.287 58.0113 641.692 58.136 641.052 58.136C640.411 58.136 639.816 58.0113 639.267 57.762C638.723 57.507 638.25 57.1217 637.847 56.606C637.445 56.0903 637.13 55.4387 636.904 54.651C636.677 53.8577 636.564 52.9255 636.564 51.8545C636.564 50.7778 636.677 49.8457 636.904 49.058C637.13 48.2703 637.445 47.6187 637.847 47.103C638.25 46.5873 638.723 46.2048 639.267 45.9555C639.816 45.7005 640.411 45.573 641.052 45.573C641.692 45.573 642.287 45.7005 642.837 45.9555C643.392 46.2048 643.871 46.5873 644.273 47.103C644.681 47.6187 644.999 48.2703 645.225 49.058C645.458 49.8457 645.574 50.7778 645.574 51.8545ZM643.406 51.8545C643.406 50.9648 643.341 50.2282 643.211 49.6445C643.08 49.0608 642.905 48.5962 642.684 48.2505C642.468 47.9048 642.219 47.664 641.936 47.528C641.652 47.3863 641.358 47.3155 641.052 47.3155C640.751 47.3155 640.46 47.3863 640.176 47.528C639.899 47.664 639.652 47.9048 639.437 48.2505C639.221 48.5962 639.049 49.0608 638.918 49.6445C638.794 50.2282 638.731 50.9648 638.731 51.8545C638.731 52.7442 638.794 53.4808 638.918 54.0645C639.049 54.6482 639.221 55.1128 639.437 55.4585C639.652 55.8042 639.899 56.0478 640.176 56.1895C640.46 56.3255 640.751 56.3935 641.052 56.3935C641.358 56.3935 641.652 56.3255 641.936 56.1895C642.219 56.0478 642.468 55.8042 642.684 55.4585C642.905 55.1128 643.08 54.6482 643.211 54.0645C643.341 53.4808 643.406 52.7442 643.406 51.8545Z" fill="#33334B"/>
<path d="M651 25H652V96H651V25Z" fill="#C4C4C4"/>
<circle cx="652" cy="94" r="4.5" fill="white" stroke="#17B573" stroke-width="3"/>
<path d="M600.481 132.818C600.805 132.818 601.089 132.776 601.333 132.692C601.581 132.608 601.787 132.49 601.951 132.338C602.119 132.182 602.245 131.998 602.329 131.786C602.413 131.57 602.455 131.332 602.455 131.072C602.455 130.548 602.291 130.136 601.963 129.836C601.639 129.536 601.145 129.386 600.481 129.386H599.149V132.818H600.481ZM600.481 128.384C601.033 128.384 601.513 128.448 601.921 128.576C602.329 128.704 602.667 128.886 602.935 129.122C603.203 129.354 603.401 129.636 603.529 129.968C603.661 130.3 603.727 130.668 603.727 131.072C603.727 131.476 603.657 131.848 603.517 132.188C603.377 132.524 603.171 132.814 602.899 133.058C602.627 133.302 602.287 133.492 601.879 133.628C601.475 133.76 601.009 133.826 600.481 133.826H599.149V137H597.871V128.384H600.481ZM606.061 128.144V137H604.885V128.144H606.061ZM611.008 134.294C610.532 134.31 610.128 134.348 609.796 134.408C609.464 134.464 609.194 134.54 608.986 134.636C608.778 134.732 608.628 134.846 608.536 134.978C608.444 135.106 608.398 135.25 608.398 135.41C608.398 135.562 608.422 135.694 608.47 135.806C608.522 135.914 608.59 136.004 608.674 136.076C608.762 136.144 608.864 136.194 608.98 136.226C609.096 136.258 609.222 136.274 609.358 136.274C609.538 136.274 609.702 136.256 609.85 136.22C610.002 136.184 610.144 136.134 610.276 136.07C610.408 136.002 610.534 135.92 610.654 135.824C610.774 135.728 610.892 135.618 611.008 135.494V134.294ZM607.576 131.756C607.916 131.432 608.284 131.19 608.68 131.03C609.08 130.87 609.518 130.79 609.994 130.79C610.342 130.79 610.65 130.848 610.918 130.964C611.186 131.076 611.412 131.234 611.596 131.438C611.78 131.642 611.918 131.886 612.01 132.17C612.106 132.454 612.154 132.768 612.154 133.112V137H611.632C611.516 137 611.428 136.982 611.368 136.946C611.308 136.906 611.26 136.834 611.224 136.73L611.098 136.196C610.942 136.34 610.788 136.468 610.636 136.58C610.484 136.688 610.324 136.782 610.156 136.862C609.992 136.938 609.816 136.996 609.628 137.036C609.44 137.076 609.232 137.096 609.004 137.096C608.764 137.096 608.538 137.064 608.326 137C608.118 136.932 607.936 136.83 607.78 136.694C607.624 136.558 607.5 136.388 607.408 136.184C607.32 135.98 607.276 135.742 607.276 135.47C607.276 135.23 607.34 135 607.468 134.78C607.6 134.556 607.812 134.356 608.104 134.18C608.4 134.004 608.784 133.86 609.256 133.748C609.732 133.636 610.316 133.572 611.008 133.556V133.112C611.008 132.652 610.91 132.308 610.714 132.08C610.518 131.852 610.23 131.738 609.85 131.738C609.594 131.738 609.378 131.77 609.202 131.834C609.03 131.898 608.88 131.97 608.752 132.05C608.628 132.126 608.518 132.196 608.422 132.26C608.33 132.324 608.234 132.356 608.134 132.356C608.054 132.356 607.984 132.334 607.924 132.29C607.868 132.246 607.822 132.194 607.786 132.134L607.576 131.756ZM614.818 131.75C614.95 131.61 615.088 131.482 615.232 131.366C615.376 131.25 615.528 131.152 615.688 131.072C615.852 130.988 616.026 130.924 616.21 130.88C616.398 130.832 616.598 130.808 616.81 130.808C617.146 130.808 617.44 130.864 617.692 130.976C617.948 131.088 618.162 131.246 618.334 131.45C618.506 131.65 618.636 131.892 618.724 132.176C618.812 132.46 618.856 132.774 618.856 133.118V137H617.68V133.118C617.68 132.682 617.58 132.344 617.38 132.104C617.18 131.86 616.874 131.738 616.462 131.738C616.162 131.738 615.88 131.81 615.616 131.954C615.356 132.094 615.114 132.286 614.89 132.53V137H613.72V130.904H614.422C614.586 130.904 614.688 130.982 614.728 131.138L614.818 131.75ZM621.533 131.75C621.665 131.61 621.803 131.482 621.947 131.366C622.091 131.25 622.243 131.152 622.403 131.072C622.567 130.988 622.741 130.924 622.925 130.88C623.113 130.832 623.313 130.808 623.525 130.808C623.861 130.808 624.155 130.864 624.407 130.976C624.663 131.088 624.877 131.246 625.049 131.45C625.221 131.65 625.351 131.892 625.439 132.176C625.527 132.46 625.571 132.774 625.571 133.118V137H624.395V133.118C624.395 132.682 624.295 132.344 624.095 132.104C623.895 131.86 623.589 131.738 623.177 131.738C622.877 131.738 622.595 131.81 622.331 131.954C622.071 132.094 621.829 132.286 621.605 132.53V137H620.435V130.904H621.137C621.301 130.904 621.403 130.982 621.443 131.138L621.533 131.75ZM631.188 133.274C631.188 133.042 631.154 132.828 631.086 132.632C631.022 132.436 630.926 132.266 630.798 132.122C630.67 131.978 630.514 131.866 630.33 131.786C630.146 131.706 629.934 131.666 629.694 131.666C629.202 131.666 628.814 131.808 628.53 132.092C628.25 132.376 628.072 132.77 627.996 133.274H631.188ZM632.154 136.13C632.01 136.298 631.844 136.444 631.656 136.568C631.468 136.688 631.268 136.786 631.056 136.862C630.844 136.938 630.624 136.994 630.396 137.03C630.172 137.066 629.95 137.084 629.73 137.084C629.31 137.084 628.92 137.014 628.56 136.874C628.204 136.73 627.894 136.522 627.63 136.25C627.37 135.974 627.166 135.634 627.018 135.23C626.874 134.822 626.802 134.354 626.802 133.826C626.802 133.402 626.868 133.008 627 132.644C627.132 132.276 627.32 131.956 627.564 131.684C627.812 131.412 628.114 131.198 628.47 131.042C628.826 130.886 629.226 130.808 629.67 130.808C630.042 130.808 630.384 130.87 630.696 130.994C631.012 131.114 631.284 131.29 631.512 131.522C631.74 131.754 631.918 132.04 632.046 132.38C632.178 132.72 632.244 133.108 632.244 133.544C632.244 133.724 632.224 133.846 632.184 133.91C632.144 133.97 632.07 134 631.962 134H627.966C627.978 134.364 628.03 134.682 628.122 134.954C628.214 135.222 628.34 135.446 628.5 135.626C628.664 135.806 628.858 135.94 629.082 136.028C629.306 136.116 629.556 136.16 629.832 136.16C630.092 136.16 630.316 136.13 630.504 136.07C630.696 136.01 630.86 135.946 630.996 135.878C631.136 135.806 631.252 135.74 631.344 135.68C631.44 135.62 631.524 135.59 631.596 135.59C631.692 135.59 631.766 135.626 631.818 135.698L632.154 136.13ZM637.432 132.38C637.24 132.128 637.032 131.952 636.808 131.852C636.588 131.752 636.34 131.702 636.064 131.702C635.528 131.702 635.112 131.896 634.816 132.284C634.524 132.668 634.378 133.23 634.378 133.97C634.378 134.358 634.41 134.69 634.474 134.966C634.542 135.238 634.638 135.462 634.762 135.638C634.89 135.81 635.046 135.938 635.23 136.022C635.414 136.102 635.622 136.142 635.854 136.142C636.194 136.142 636.488 136.066 636.736 135.914C636.984 135.762 637.216 135.548 637.432 135.272V132.38ZM638.608 128.144V137H637.9C637.736 137 637.634 136.922 637.594 136.766L637.492 136.064C637.232 136.372 636.936 136.62 636.604 136.808C636.276 136.992 635.896 137.084 635.464 137.084C635.116 137.084 634.8 137.016 634.516 136.88C634.236 136.744 633.996 136.546 633.796 136.286C633.596 136.022 633.442 135.696 633.334 135.308C633.226 134.92 633.172 134.474 633.172 133.97C633.172 133.518 633.232 133.098 633.352 132.71C633.472 132.322 633.646 131.986 633.874 131.702C634.102 131.418 634.378 131.196 634.702 131.036C635.026 130.872 635.392 130.79 635.8 130.79C636.168 130.79 636.48 130.85 636.736 130.97C636.996 131.09 637.228 131.26 637.432 131.48V128.144H638.608ZM651.033 132.692C651.033 133.336 650.929 133.922 650.721 134.45C650.517 134.978 650.227 135.432 649.851 135.812C649.475 136.188 649.025 136.48 648.501 136.688C647.977 136.896 647.395 137 646.755 137H643.515V128.384H646.755C647.395 128.384 647.977 128.488 648.501 128.696C649.025 128.904 649.475 129.198 649.851 129.578C650.227 129.954 650.517 130.408 650.721 130.94C650.929 131.468 651.033 132.052 651.033 132.692ZM649.725 132.692C649.725 132.18 649.655 131.722 649.515 131.318C649.375 130.91 649.175 130.566 648.915 130.286C648.659 130.002 648.347 129.786 647.979 129.638C647.615 129.49 647.207 129.416 646.755 129.416H644.799V135.968H646.755C647.207 135.968 647.615 135.894 647.979 135.746C648.347 135.598 648.659 135.384 648.915 135.104C649.175 134.82 649.375 134.476 649.515 134.072C649.655 133.668 649.725 133.208 649.725 132.692ZM655.528 134.294C655.052 134.31 654.648 134.348 654.316 134.408C653.984 134.464 653.714 134.54 653.506 134.636C653.298 134.732 653.148 134.846 653.056 134.978C652.964 135.106 652.918 135.25 652.918 135.41C652.918 135.562 652.942 135.694 652.99 135.806C653.042 135.914 653.11 136.004 653.194 136.076C653.282 136.144 653.384 136.194 653.5 136.226C653.616 136.258 653.742 136.274 653.878 136.274C654.058 136.274 654.222 136.256 654.37 136.22C654.522 136.184 654.664 136.134 654.796 136.07C654.928 136.002 655.054 135.92 655.174 135.824C655.294 135.728 655.412 135.618 655.528 135.494V134.294ZM652.096 131.756C652.436 131.432 652.804 131.19 653.2 131.03C653.6 130.87 654.038 130.79 654.514 130.79C654.862 130.79 655.17 130.848 655.438 130.964C655.706 131.076 655.932 131.234 656.116 131.438C656.3 131.642 656.438 131.886 656.53 132.17C656.626 132.454 656.674 132.768 656.674 133.112V137H656.152C656.036 137 655.948 136.982 655.888 136.946C655.828 136.906 655.78 136.834 655.744 136.73L655.618 136.196C655.462 136.34 655.308 136.468 655.156 136.58C655.004 136.688 654.844 136.782 654.676 136.862C654.512 136.938 654.336 136.996 654.148 137.036C653.96 137.076 653.752 137.096 653.524 137.096C653.284 137.096 653.058 137.064 652.846 137C652.638 136.932 652.456 136.83 652.3 136.694C652.144 136.558 652.02 136.388 651.928 136.184C651.84 135.98 651.796 135.742 651.796 135.47C651.796 135.23 651.86 135 651.988 134.78C652.12 134.556 652.332 134.356 652.624 134.18C652.92 134.004 653.304 133.86 653.776 133.748C654.252 133.636 654.836 133.572 655.528 133.556V133.112C655.528 132.652 655.43 132.308 655.234 132.08C655.038 131.852 654.75 131.738 654.37 131.738C654.114 131.738 653.898 131.77 653.722 131.834C653.55 131.898 653.4 131.97 653.272 132.05C653.148 132.126 653.038 132.196 652.942 132.26C652.85 132.324 652.754 132.356 652.654 132.356C652.574 132.356 652.504 132.334 652.444 132.29C652.388 132.246 652.342 132.194 652.306 132.134L652.096 131.756ZM660.066 137.096C659.574 137.096 659.194 136.958 658.926 136.682C658.662 136.406 658.53 136.012 658.53 135.5V131.852H657.822C657.754 131.852 657.696 131.832 657.648 131.792C657.604 131.748 657.582 131.684 657.582 131.6V131.126L658.572 130.988L658.836 129.17C658.852 129.102 658.882 129.05 658.926 129.014C658.974 128.974 659.034 128.954 659.106 128.954H659.7V131H661.428V131.852H659.7V135.422C659.7 135.662 659.758 135.842 659.874 135.962C659.994 136.078 660.146 136.136 660.33 136.136C660.438 136.136 660.53 136.122 660.606 136.094C660.686 136.066 660.754 136.036 660.81 136.004C660.866 135.968 660.914 135.936 660.954 135.908C660.994 135.88 661.03 135.866 661.062 135.866C661.102 135.866 661.132 135.876 661.152 135.896C661.176 135.912 661.2 135.94 661.224 135.98L661.572 136.544C661.38 136.72 661.152 136.856 660.888 136.952C660.624 137.048 660.35 137.096 660.066 137.096ZM666.508 133.274C666.508 133.042 666.474 132.828 666.406 132.632C666.342 132.436 666.246 132.266 666.118 132.122C665.99 131.978 665.834 131.866 665.65 131.786C665.466 131.706 665.254 131.666 665.014 131.666C664.522 131.666 664.134 131.808 663.85 132.092C663.57 132.376 663.392 132.77 663.316 133.274H666.508ZM667.474 136.13C667.33 136.298 667.164 136.444 666.976 136.568C666.788 136.688 666.588 136.786 666.376 136.862C666.164 136.938 665.944 136.994 665.716 137.03C665.492 137.066 665.27 137.084 665.05 137.084C664.63 137.084 664.24 137.014 663.88 136.874C663.524 136.73 663.214 136.522 662.95 136.25C662.69 135.974 662.486 135.634 662.338 135.23C662.194 134.822 662.122 134.354 662.122 133.826C662.122 133.402 662.188 133.008 662.32 132.644C662.452 132.276 662.64 131.956 662.884 131.684C663.132 131.412 663.434 131.198 663.79 131.042C664.146 130.886 664.546 130.808 664.99 130.808C665.362 130.808 665.704 130.87 666.016 130.994C666.332 131.114 666.604 131.29 666.832 131.522C667.06 131.754 667.238 132.04 667.366 132.38C667.498 132.72 667.564 133.108 667.564 133.544C667.564 133.724 667.544 133.846 667.504 133.91C667.464 133.97 667.39 134 667.282 134H663.286C663.298 134.364 663.35 134.682 663.442 134.954C663.534 135.222 663.66 135.446 663.82 135.626C663.984 135.806 664.178 135.94 664.402 136.028C664.626 136.116 664.876 136.16 665.152 136.16C665.412 136.16 665.636 136.13 665.824 136.07C666.016 136.01 666.18 135.946 666.316 135.878C666.456 135.806 666.572 135.74 666.664 135.68C666.76 135.62 666.844 135.59 666.916 135.59C667.012 135.59 667.086 135.626 667.138 135.698L667.474 136.13Z" fill="#666666"/>
<path d="M550.869 155.359L549.373 151.27C549.3 151.089 549.223 150.874 549.144 150.624C549.065 150.375 548.985 150.106 548.906 149.817C548.832 150.106 548.756 150.378 548.676 150.633C548.597 150.882 548.521 151.1 548.447 151.287L546.959 155.359H550.869ZM554.907 160H553.139C552.941 160 552.779 159.952 552.654 159.855C552.53 159.753 552.436 159.629 552.374 159.481L551.456 156.974H546.364L545.446 159.481C545.401 159.612 545.313 159.731 545.183 159.838C545.053 159.946 544.891 160 544.698 160H542.913L547.75 147.709H550.079L554.907 160ZM563.162 151.279V160H561.879C561.601 160 561.425 159.872 561.352 159.617L561.207 158.92C560.85 159.283 560.456 159.578 560.026 159.804C559.595 160.025 559.088 160.136 558.504 160.136C558.028 160.136 557.606 160.057 557.238 159.898C556.875 159.734 556.569 159.504 556.32 159.209C556.07 158.915 555.881 158.566 555.75 158.164C555.626 157.756 555.563 157.308 555.563 156.821V151.279H557.663V156.821C557.663 157.354 557.785 157.767 558.028 158.062C558.278 158.351 558.649 158.495 559.142 158.495C559.504 158.495 559.844 158.416 560.162 158.257C560.479 158.093 560.779 157.869 561.063 157.586V151.279H563.162ZM568.432 155.427C568.692 155.427 568.919 155.393 569.112 155.325C569.304 155.251 569.463 155.152 569.588 155.027C569.718 154.903 569.814 154.753 569.877 154.577C569.945 154.401 569.979 154.209 569.979 153.999C569.979 153.568 569.848 153.228 569.588 152.979C569.333 152.724 568.947 152.596 568.432 152.596C567.916 152.596 567.528 152.724 567.267 152.979C567.012 153.228 566.885 153.568 566.885 153.999C566.885 154.203 566.916 154.393 566.978 154.568C567.046 154.744 567.142 154.897 567.267 155.027C567.397 155.152 567.559 155.251 567.752 155.325C567.95 155.393 568.177 155.427 568.432 155.427ZM570.803 160.391C570.803 160.221 570.752 160.082 570.65 159.974C570.548 159.867 570.409 159.785 570.234 159.728C570.058 159.666 569.851 159.62 569.613 159.592C569.381 159.564 569.131 159.544 568.865 159.532C568.604 159.515 568.332 159.501 568.049 159.49C567.771 159.479 567.499 159.456 567.233 159.422C567.001 159.552 566.811 159.705 566.664 159.881C566.522 160.057 566.451 160.261 566.451 160.493C566.451 160.646 566.488 160.788 566.562 160.918C566.641 161.054 566.763 161.17 566.927 161.267C567.097 161.363 567.315 161.437 567.582 161.488C567.848 161.544 568.174 161.573 568.559 161.573C568.95 161.573 569.287 161.541 569.571 161.479C569.854 161.422 570.086 161.34 570.268 161.233C570.455 161.131 570.591 161.006 570.676 160.859C570.761 160.717 570.803 160.561 570.803 160.391ZM572.894 151.576V152.358C572.894 152.608 572.744 152.761 572.444 152.817L571.662 152.962C571.781 153.262 571.84 153.591 571.84 153.948C571.84 154.379 571.752 154.77 571.577 155.121C571.407 155.467 571.169 155.761 570.863 156.005C570.557 156.249 570.194 156.438 569.775 156.574C569.361 156.705 568.913 156.77 568.432 156.77C568.262 156.77 568.097 156.761 567.939 156.744C567.78 156.727 567.624 156.705 567.471 156.676C567.199 156.841 567.063 157.025 567.063 157.229C567.063 157.405 567.142 157.535 567.301 157.62C567.465 157.699 567.681 157.756 567.947 157.79C568.213 157.824 568.517 157.847 568.857 157.858C569.197 157.864 569.545 157.881 569.902 157.909C570.259 157.937 570.608 157.988 570.948 158.062C571.288 158.13 571.591 158.24 571.857 158.393C572.123 158.546 572.336 158.756 572.495 159.022C572.659 159.283 572.741 159.62 572.741 160.034C572.741 160.419 572.645 160.793 572.452 161.156C572.265 161.519 571.99 161.842 571.628 162.125C571.271 162.408 570.829 162.635 570.302 162.805C569.78 162.981 569.185 163.069 568.517 163.069C567.859 163.069 567.287 163.003 566.8 162.873C566.312 162.748 565.907 162.578 565.584 162.363C565.261 162.153 565.02 161.91 564.862 161.632C564.703 161.354 564.624 161.065 564.624 160.765C564.624 160.357 564.745 160.017 564.989 159.745C565.238 159.467 565.578 159.246 566.009 159.082C565.777 158.963 565.593 158.804 565.457 158.606C565.321 158.408 565.253 158.147 565.253 157.824C565.253 157.694 565.275 157.56 565.321 157.424C565.372 157.283 565.442 157.144 565.533 157.008C565.629 156.872 565.748 156.744 565.89 156.625C566.032 156.501 566.199 156.39 566.392 156.294C565.95 156.056 565.601 155.739 565.346 155.342C565.097 154.945 564.972 154.481 564.972 153.948C564.972 153.517 565.057 153.129 565.227 152.783C565.403 152.432 565.644 152.135 565.95 151.891C566.261 151.642 566.627 151.452 567.046 151.321C567.471 151.191 567.933 151.126 568.432 151.126C568.806 151.126 569.157 151.166 569.486 151.245C569.814 151.319 570.115 151.429 570.387 151.576H572.894ZM581.739 151.279V160H580.456C580.178 160 580.003 159.872 579.929 159.617L579.784 158.92C579.427 159.283 579.034 159.578 578.603 159.804C578.172 160.025 577.665 160.136 577.081 160.136C576.605 160.136 576.183 160.057 575.815 159.898C575.452 159.734 575.146 159.504 574.897 159.209C574.648 158.915 574.458 158.566 574.327 158.164C574.203 157.756 574.14 157.308 574.14 156.821V151.279H576.24V156.821C576.24 157.354 576.362 157.767 576.605 158.062C576.855 158.351 577.226 158.495 577.719 158.495C578.082 158.495 578.422 158.416 578.739 158.257C579.056 158.093 579.357 157.869 579.64 157.586V151.279H581.739ZM589.142 152.979C589.086 153.07 589.026 153.135 588.964 153.174C588.901 153.208 588.822 153.225 588.726 153.225C588.624 153.225 588.513 153.197 588.394 153.14C588.281 153.084 588.148 153.021 587.995 152.953C587.842 152.88 587.666 152.815 587.468 152.758C587.275 152.701 587.046 152.673 586.779 152.673C586.366 152.673 586.04 152.761 585.802 152.936C585.569 153.112 585.453 153.342 585.453 153.625C585.453 153.812 585.513 153.971 585.632 154.101C585.756 154.226 585.918 154.336 586.116 154.432C586.32 154.529 586.55 154.617 586.805 154.696C587.06 154.77 587.318 154.852 587.578 154.942C587.845 155.033 588.105 155.138 588.36 155.257C588.615 155.37 588.842 155.518 589.04 155.699C589.244 155.875 589.406 156.087 589.525 156.336C589.649 156.586 589.712 156.886 589.712 157.237C589.712 157.657 589.635 158.045 589.482 158.402C589.335 158.753 589.114 159.059 588.819 159.32C588.525 159.575 588.159 159.776 587.723 159.923C587.292 160.065 586.793 160.136 586.227 160.136C585.926 160.136 585.632 160.108 585.343 160.051C585.059 160 584.785 159.926 584.518 159.83C584.258 159.734 584.014 159.62 583.787 159.49C583.566 159.36 583.371 159.218 583.201 159.065L583.685 158.266C583.748 158.17 583.821 158.096 583.906 158.045C583.991 157.994 584.099 157.968 584.229 157.968C584.36 157.968 584.481 158.005 584.595 158.079C584.714 158.153 584.85 158.232 585.003 158.317C585.156 158.402 585.334 158.481 585.538 158.555C585.748 158.629 586.011 158.665 586.329 158.665C586.578 158.665 586.791 158.637 586.966 158.58C587.148 158.518 587.295 158.439 587.408 158.342C587.527 158.246 587.612 158.136 587.663 158.011C587.72 157.881 587.748 157.747 587.748 157.611C587.748 157.407 587.686 157.24 587.561 157.11C587.442 156.98 587.281 156.866 587.077 156.77C586.878 156.674 586.649 156.589 586.388 156.515C586.133 156.436 585.87 156.351 585.598 156.26C585.331 156.169 585.068 156.064 584.807 155.945C584.552 155.821 584.323 155.665 584.119 155.478C583.92 155.291 583.759 155.061 583.634 154.789C583.515 154.517 583.456 154.189 583.456 153.803C583.456 153.446 583.527 153.106 583.668 152.783C583.81 152.46 584.017 152.18 584.289 151.942C584.566 151.698 584.909 151.506 585.317 151.364C585.731 151.217 586.207 151.143 586.745 151.143C587.346 151.143 587.893 151.242 588.386 151.44C588.879 151.639 589.29 151.899 589.618 152.222L589.142 152.979ZM594.199 160.136C593.44 160.136 592.856 159.923 592.448 159.498C592.046 159.068 591.844 158.476 591.844 157.722V152.851H590.952C590.839 152.851 590.742 152.815 590.663 152.741C590.584 152.667 590.544 152.557 590.544 152.409V151.576L591.946 151.347L592.388 148.967C592.417 148.854 592.471 148.766 592.55 148.703C592.629 148.641 592.731 148.61 592.856 148.61H593.944V151.355H596.273V152.851H593.944V157.577C593.944 157.849 594.009 158.062 594.139 158.215C594.275 158.368 594.46 158.444 594.692 158.444C594.822 158.444 594.93 158.43 595.015 158.402C595.106 158.368 595.182 158.334 595.244 158.3C595.312 158.266 595.372 158.235 595.423 158.206C595.474 158.172 595.525 158.155 595.576 158.155C595.638 158.155 595.689 158.172 595.729 158.206C595.769 158.235 595.811 158.28 595.856 158.342L596.485 159.362C596.179 159.617 595.828 159.81 595.431 159.94C595.035 160.071 594.624 160.136 594.199 160.136ZM609.052 158.045C609.279 158.045 609.458 158.11 609.588 158.24C609.724 158.365 609.792 158.532 609.792 158.742V160H601.36V159.303C601.36 159.161 601.388 159.014 601.445 158.861C601.507 158.702 601.604 158.561 601.734 158.436L605.465 154.696C605.777 154.379 606.055 154.075 606.298 153.786C606.548 153.497 606.755 153.211 606.919 152.928C607.083 152.645 607.208 152.358 607.293 152.069C607.384 151.775 607.429 151.466 607.429 151.143C607.429 150.848 607.386 150.59 607.301 150.369C607.216 150.143 607.095 149.953 606.936 149.8C606.783 149.647 606.596 149.534 606.375 149.46C606.16 149.381 605.916 149.341 605.644 149.341C605.395 149.341 605.162 149.378 604.947 149.451C604.737 149.519 604.55 149.619 604.386 149.749C604.222 149.874 604.083 150.021 603.969 150.191C603.856 150.361 603.771 150.548 603.714 150.752C603.618 151.013 603.493 151.185 603.34 151.27C603.187 151.355 602.966 151.375 602.677 151.33L601.572 151.134C601.657 150.545 601.822 150.029 602.065 149.587C602.309 149.14 602.612 148.769 602.975 148.474C603.343 148.174 603.763 147.95 604.233 147.802C604.709 147.649 605.219 147.573 605.763 147.573C606.33 147.573 606.848 147.658 607.318 147.828C607.789 147.992 608.191 148.227 608.525 148.533C608.86 148.839 609.12 149.208 609.307 149.638C609.494 150.069 609.588 150.548 609.588 151.075C609.588 151.528 609.52 151.948 609.384 152.333C609.254 152.718 609.075 153.087 608.848 153.438C608.627 153.789 608.367 154.129 608.066 154.458C607.766 154.787 607.452 155.121 607.123 155.461L604.352 158.291C604.618 158.212 604.882 158.153 605.142 158.113C605.409 158.068 605.661 158.045 605.899 158.045H609.052ZM611.493 151.134C611.578 150.545 611.743 150.029 611.986 149.587C612.23 149.14 612.533 148.769 612.896 148.474C613.264 148.174 613.683 147.95 614.154 147.802C614.63 147.649 615.14 147.573 615.684 147.573C616.25 147.573 616.76 147.655 617.214 147.819C617.673 147.978 618.064 148.202 618.387 148.491C618.71 148.774 618.956 149.109 619.126 149.494C619.302 149.879 619.39 150.296 619.39 150.743C619.39 151.134 619.344 151.48 619.254 151.78C619.169 152.075 619.044 152.333 618.88 152.554C618.715 152.775 618.511 152.962 618.268 153.115C618.024 153.268 617.749 153.395 617.443 153.497C618.18 153.73 618.73 154.084 619.092 154.56C619.455 155.036 619.636 155.634 619.636 156.353C619.636 156.965 619.523 157.507 619.296 157.977C619.07 158.447 618.764 158.844 618.378 159.167C617.993 159.484 617.545 159.725 617.035 159.889C616.531 160.054 615.995 160.136 615.429 160.136C614.811 160.136 614.273 160.065 613.814 159.923C613.355 159.782 612.955 159.572 612.615 159.294C612.275 159.017 611.986 158.677 611.748 158.274C611.51 157.872 611.306 157.407 611.136 156.88L612.063 156.498C612.306 156.396 612.533 156.37 612.743 156.421C612.958 156.467 613.114 156.58 613.21 156.761C613.312 156.96 613.423 157.155 613.542 157.348C613.666 157.541 613.814 157.713 613.984 157.866C614.154 158.014 614.352 158.136 614.579 158.232C614.811 158.323 615.086 158.368 615.403 158.368C615.76 158.368 616.072 158.311 616.338 158.198C616.605 158.079 616.826 157.926 617.001 157.739C617.183 157.552 617.316 157.345 617.401 157.118C617.491 156.886 617.537 156.654 617.537 156.421C617.537 156.127 617.506 155.86 617.443 155.622C617.381 155.379 617.251 155.172 617.052 155.002C616.854 154.832 616.568 154.699 616.194 154.602C615.825 154.506 615.33 154.458 614.706 154.458V152.962C615.222 152.956 615.65 152.908 615.99 152.817C616.33 152.727 616.599 152.602 616.797 152.443C617.001 152.279 617.143 152.084 617.222 151.857C617.302 151.63 617.341 151.381 617.341 151.109C617.341 150.531 617.18 150.092 616.857 149.791C616.534 149.491 616.103 149.341 615.565 149.341C615.315 149.341 615.086 149.378 614.876 149.451C614.667 149.519 614.477 149.619 614.307 149.749C614.142 149.874 614.004 150.021 613.89 150.191C613.777 150.361 613.692 150.548 613.635 150.752C613.539 151.013 613.411 151.185 613.253 151.27C613.1 151.355 612.882 151.375 612.598 151.33L611.493 151.134ZM621.44 162.083C621.338 161.998 621.287 161.893 621.287 161.768C621.287 161.723 621.301 161.672 621.329 161.615C621.363 161.558 621.403 161.507 621.448 161.462C621.51 161.394 621.587 161.309 621.678 161.207C621.768 161.111 621.859 160.997 621.95 160.867C622.04 160.742 622.122 160.604 622.196 160.451C622.275 160.303 622.335 160.145 622.375 159.974C622.193 159.974 622.029 159.943 621.882 159.881C621.734 159.813 621.607 159.722 621.499 159.609C621.397 159.496 621.315 159.362 621.253 159.209C621.196 159.056 621.168 158.889 621.168 158.708C621.168 158.549 621.196 158.402 621.253 158.266C621.315 158.124 621.4 158.002 621.508 157.9C621.615 157.793 621.746 157.711 621.899 157.654C622.052 157.592 622.219 157.56 622.4 157.56C622.615 157.56 622.802 157.6 622.961 157.679C623.125 157.753 623.259 157.858 623.361 157.994C623.468 158.124 623.548 158.277 623.599 158.453C623.655 158.623 623.684 158.804 623.684 158.997C623.684 159.269 623.641 159.555 623.556 159.855C623.477 160.156 623.358 160.456 623.199 160.757C623.04 161.057 622.842 161.349 622.604 161.632C622.372 161.915 622.105 162.176 621.805 162.414L621.44 162.083ZM636.893 158.045C637.12 158.045 637.298 158.11 637.429 158.24C637.565 158.365 637.633 158.532 637.633 158.742V160H629.201V159.303C629.201 159.161 629.229 159.014 629.286 158.861C629.348 158.702 629.444 158.561 629.575 158.436L633.306 154.696C633.618 154.379 633.896 154.075 634.139 153.786C634.389 153.497 634.595 153.211 634.76 152.928C634.924 152.645 635.049 152.358 635.134 152.069C635.224 151.775 635.27 151.466 635.27 151.143C635.27 150.848 635.227 150.59 635.142 150.369C635.057 150.143 634.935 149.953 634.777 149.8C634.624 149.647 634.437 149.534 634.216 149.46C634 149.381 633.757 149.341 633.485 149.341C633.235 149.341 633.003 149.378 632.788 149.451C632.578 149.519 632.391 149.619 632.227 149.749C632.062 149.874 631.924 150.021 631.81 150.191C631.697 150.361 631.612 150.548 631.555 150.752C631.459 151.013 631.334 151.185 631.181 151.27C631.028 151.355 630.807 151.375 630.518 151.33L629.413 151.134C629.498 150.545 629.663 150.029 629.906 149.587C630.15 149.14 630.453 148.769 630.816 148.474C631.184 148.174 631.603 147.95 632.074 147.802C632.55 147.649 633.06 147.573 633.604 147.573C634.17 147.573 634.689 147.658 635.159 147.828C635.63 147.992 636.032 148.227 636.366 148.533C636.701 148.839 636.961 149.208 637.148 149.638C637.335 150.069 637.429 150.548 637.429 151.075C637.429 151.528 637.361 151.948 637.225 152.333C637.094 152.718 636.916 153.087 636.689 153.438C636.468 153.789 636.208 154.129 635.907 154.458C635.607 154.787 635.292 155.121 634.964 155.461L632.193 158.291C632.459 158.212 632.723 158.153 632.983 158.113C633.25 158.068 633.502 158.045 633.74 158.045H636.893ZM647.851 153.854C647.851 154.925 647.735 155.858 647.503 156.651C647.276 157.439 646.959 158.09 646.551 158.606C646.148 159.122 645.669 159.507 645.114 159.762C644.564 160.011 643.969 160.136 643.329 160.136C642.689 160.136 642.094 160.011 641.544 159.762C641 159.507 640.527 159.122 640.125 158.606C639.722 158.09 639.408 157.439 639.181 156.651C638.954 155.858 638.841 154.925 638.841 153.854C638.841 152.778 638.954 151.846 639.181 151.058C639.408 150.27 639.722 149.619 640.125 149.103C640.527 148.587 641 148.205 641.544 147.955C642.094 147.7 642.689 147.573 643.329 147.573C643.969 147.573 644.564 147.7 645.114 147.955C645.669 148.205 646.148 148.587 646.551 149.103C646.959 149.619 647.276 150.27 647.503 151.058C647.735 151.846 647.851 152.778 647.851 153.854ZM645.684 153.854C645.684 152.965 645.618 152.228 645.488 151.644C645.358 151.061 645.182 150.596 644.961 150.25C644.746 149.905 644.496 149.664 644.213 149.528C643.93 149.386 643.635 149.315 643.329 149.315C643.029 149.315 642.737 149.386 642.454 149.528C642.176 149.664 641.929 149.905 641.714 150.25C641.499 150.596 641.326 151.061 641.196 151.644C641.071 152.228 641.009 152.965 641.009 153.854C641.009 154.744 641.071 155.481 641.196 156.064C641.326 156.648 641.499 157.113 641.714 157.458C641.929 157.804 642.176 158.048 642.454 158.189C642.737 158.325 643.029 158.393 643.329 158.393C643.635 158.393 643.93 158.325 644.213 158.189C644.496 158.048 644.746 157.804 644.961 157.458C645.182 157.113 645.358 156.648 645.488 156.064C645.618 155.481 645.684 154.744 645.684 153.854ZM656.616 158.045C656.843 158.045 657.021 158.11 657.151 158.24C657.287 158.365 657.355 158.532 657.355 158.742V160H648.923V159.303C648.923 159.161 648.952 159.014 649.008 158.861C649.071 158.702 649.167 158.561 649.297 158.436L653.029 154.696C653.341 154.379 653.618 154.075 653.862 153.786C654.111 153.497 654.318 153.211 654.482 152.928C654.647 152.645 654.771 152.358 654.856 152.069C654.947 151.775 654.992 151.466 654.992 151.143C654.992 150.848 654.95 150.59 654.865 150.369C654.78 150.143 654.658 149.953 654.499 149.8C654.346 149.647 654.159 149.534 653.938 149.46C653.723 149.381 653.479 149.341 653.207 149.341C652.958 149.341 652.726 149.378 652.51 149.451C652.301 149.519 652.114 149.619 651.949 149.749C651.785 149.874 651.646 150.021 651.533 150.191C651.42 150.361 651.335 150.548 651.278 150.752C651.182 151.013 651.057 151.185 650.904 151.27C650.751 151.355 650.53 151.375 650.241 151.33L649.136 151.134C649.221 150.545 649.385 150.029 649.629 149.587C649.873 149.14 650.176 148.769 650.538 148.474C650.907 148.174 651.326 147.95 651.796 147.802C652.272 147.649 652.782 147.573 653.326 147.573C653.893 147.573 654.412 147.658 654.882 147.828C655.352 147.992 655.755 148.227 656.089 148.533C656.423 148.839 656.684 149.208 656.871 149.638C657.058 150.069 657.151 150.548 657.151 151.075C657.151 151.528 657.083 151.948 656.947 152.333C656.817 152.718 656.639 153.087 656.412 153.438C656.191 153.789 655.93 154.129 655.63 154.458C655.33 154.787 655.015 155.121 654.686 155.461L651.915 158.291C652.182 158.212 652.445 158.153 652.706 158.113C652.972 158.068 653.224 158.045 653.462 158.045H656.616ZM667.574 153.854C667.574 154.925 667.458 155.858 667.225 156.651C666.999 157.439 666.681 158.09 666.273 158.606C665.871 159.122 665.392 159.507 664.837 159.762C664.287 160.011 663.692 160.136 663.052 160.136C662.411 160.136 661.816 160.011 661.267 159.762C660.723 159.507 660.25 159.122 659.847 158.606C659.445 158.09 659.13 157.439 658.904 156.651C658.677 155.858 658.564 154.925 658.564 153.854C658.564 152.778 658.677 151.846 658.904 151.058C659.13 150.27 659.445 149.619 659.847 149.103C660.25 148.587 660.723 148.205 661.267 147.955C661.816 147.7 662.411 147.573 663.052 147.573C663.692 147.573 664.287 147.7 664.837 147.955C665.392 148.205 665.871 148.587 666.273 149.103C666.681 149.619 666.999 150.27 667.225 151.058C667.458 151.846 667.574 152.778 667.574 153.854ZM665.406 153.854C665.406 152.965 665.341 152.228 665.211 151.644C665.08 151.061 664.905 150.596 664.684 150.25C664.468 149.905 664.219 149.664 663.936 149.528C663.652 149.386 663.358 149.315 663.052 149.315C662.751 149.315 662.46 149.386 662.176 149.528C661.899 149.664 661.652 149.905 661.437 150.25C661.221 150.596 661.049 151.061 660.918 151.644C660.794 152.228 660.731 152.965 660.731 153.854C660.731 154.744 660.794 155.481 660.918 156.064C661.049 156.648 661.221 157.113 661.437 157.458C661.652 157.804 661.899 158.048 662.176 158.189C662.46 158.325 662.751 158.393 663.052 158.393C663.358 158.393 663.652 158.325 663.936 158.189C664.219 158.048 664.468 157.804 664.684 157.458C664.905 157.113 665.08 156.648 665.211 156.064C665.341 155.481 665.406 154.744 665.406 153.854Z" fill="#33334B"/>
<path d="M673 88H674V162H673V88Z" fill="#C4C4C4"/>
<circle cx="674" cy="94" r="4.5" fill="white" stroke="#17B573" stroke-width="3"/>
<defs>
<filter id="filter0_d" x="0" y="0" width="725" height="188" filterUnits="userSpaceOnUse" color-interpolation-filters="sRGB">
<feFlood flood-opacity="0" result="BackgroundImageFix"/>
<feColorMatrix in="SourceAlpha" type="matrix" values="0 0 0 0 0 0 0 0 0 0 0 0 0 0 0 0 0 0 127 0"/>
<feOffset dy="1"/>
<feGaussianBlur stdDeviation="2"/>
<feColorMatrix type="matrix" values="0 0 0 0 0 0 0 0 0 0 0 0 0 0 0 0 0 0 0.12 0"/>
<feBlend mode="normal" in2="BackgroundImageFix" result="effect1_dropShadow"/>
<feBlend mode="normal" in="SourceGraphic" in2="effect1_dropShadow" result="shape"/>
</filter>
</defs>
</svg>
