<svg width="46" height="46" viewBox="0 0 46 46" fill="none" xmlns="http://www.w3.org/2000/svg">
<circle opacity="0.2" cx="23" cy="23" r="23" fill="#17B573"/>
<path d="M14 13C12.895 13 12 13.895 12 15V27C12 28.105 12.895 29 14 29H21V31H19V33H27V31H25V29H32C33.105 29 34 28.105 34 27V15C34 13.895 33.105 13 32 13H14ZM14 15H32V27H14V22H16.4141L18.8008 19.6133L21.8008 24.6133L24.4141 22H26.2715C26.4467 22.3035 26.6986 22.5557 27.002 22.7312C27.3054 22.9067 27.6495 22.9994 28 23C28.5304 23 29.0391 22.7893 29.4142 22.4142C29.7893 22.0391 30 21.5304 30 21C30 20.4696 29.7893 19.9609 29.4142 19.5858C29.0391 19.2107 28.5304 19 28 19C27.6492 19.0003 27.3046 19.0928 27.0009 19.2683C26.6972 19.4439 26.4449 19.6962 26.2695 20H23.5859L22.1992 21.3867L19.1992 16.3867L15.5859 20H14V15Z" fill="#17B573"/>
</svg>
