<svg width="107" height="40" viewBox="0 0 107 40" fill="none" xmlns="http://www.w3.org/2000/svg">
<path d="M60.5617 8.21207V3H62.4396V8.21207C62.4396 8.99564 62.2502 9.71028 61.8698 10.356C61.4909 11.0017 60.981 11.5152 60.343 11.8978C59.7035 12.2804 58.9958 12.4732 58.2198 12.4732C57.4438 12.4732 56.7361 12.2818 56.0967 11.8978C55.4572 11.5152 54.9487 11.0003 54.5698 10.356C54.1909 9.71028 54 8.99705 54 8.21207V3H55.8779V8.21207C55.8779 8.64817 55.9838 9.04488 56.1956 9.40079C56.4073 9.75811 56.6888 10.0423 57.0426 10.2561C57.3965 10.4699 57.7879 10.5768 58.2198 10.5768C58.6517 10.5768 59.0446 10.4699 59.4012 10.2561C59.7565 10.0423 60.0393 9.7567 60.2482 9.40079C60.4572 9.04488 60.5617 8.64817 60.5617 8.21207Z" fill="white"/>
<path d="M66.0269 5.72243V12.4735H64.1489V3.00737H65.9349L71.4169 8.35168V3.00737H73.2948V12.8097L66.0269 5.72243Z" fill="white"/>
<path d="M76.8823 3V12.4732H75.0044V3H76.8823Z" fill="white"/>
<path d="M78.5929 3H86.3318V4.89632H83.4007V12.4732H81.5227V4.89632H78.5916V3H78.5929Z" fill="white"/>
<path d="M88.041 4.89632L88.7473 3H96.4792V4.89632H88.041ZM89.919 8.68756V10.5768H96.4806V12.4732H88.0424V6.79124H89.9203H93.197H94.6041V8.68756H89.919Z" fill="white"/>
<path d="M106.112 7.73658C106.112 8.60878 105.9 9.40219 105.478 10.1182C105.054 10.8343 104.489 11.4054 103.78 11.8317C103.071 12.2593 102.285 12.4718 101.421 12.4718H98.189V3H101.421C102.285 3 103.071 3.21383 103.78 3.64008C104.489 4.06774 105.054 4.64029 105.478 5.35774C105.901 6.0766 106.112 6.86861 106.112 7.73658ZM100.068 4.89632V10.5768H101.422C101.941 10.5768 102.413 10.4488 102.839 10.1942C103.264 9.93958 103.604 9.59633 103.856 9.16727C104.11 8.7382 104.235 8.26131 104.235 7.73658C104.235 7.21749 104.108 6.742 103.856 6.31012C103.603 5.87824 103.264 5.53499 102.839 5.28037C102.414 5.02434 101.942 4.89773 101.422 4.89773H100.068V4.89632Z" fill="white"/>
<path d="M61.5842 36.5497H58.465C57.643 36.5497 56.8949 36.3471 56.2206 35.9391C55.5464 35.5326 55.0072 34.9882 54.6046 34.3073C54.202 33.6264 54 32.871 54 32.041C54 31.2152 54.202 30.4612 54.6046 29.7775C55.0072 29.0938 55.5464 28.5494 56.2206 28.1428C56.8949 27.7363 57.643 27.5323 58.465 27.5323H61.5842V29.3372H58.465C57.9704 29.3372 57.5218 29.4582 57.1164 29.7015C56.711 29.9449 56.3892 30.2713 56.1482 30.682C55.9072 31.0928 55.7874 31.5458 55.7874 32.0396C55.7874 32.539 55.9072 32.992 56.1482 33.4013C56.3892 33.8107 56.7124 34.1357 57.1164 34.379C57.5218 34.6224 57.9704 34.7434 58.465 34.7434H59.8038V32.719H59.5795H57.5678L58.2407 30.9142H58.465H61.5842V36.5497Z" fill="white"/>
<path d="M67.5874 27.4017L72.3449 36.5499H70.7818H70.3276H66.523L67.4383 34.745H69.3928L67.5874 31.2802L64.8471 36.5499H62.8298L67.5874 27.4017Z" fill="white"/>
<path d="M75.3765 30.671V36.5498H73.5891V27.5339H75.3946L78.9443 32.715L82.494 27.5339H84.2995V36.5498H82.519V30.671L78.9443 35.8774L75.3765 30.671Z" fill="white"/>
<path d="M87.3318 27.5339V36.5498H85.5444V27.5339H87.3318Z" fill="white"/>
<path d="M90.3648 30.1251V36.5512H88.5774V27.5408H90.277L95.4957 32.6277V27.5408H97.2831V36.8719L90.3648 30.1251Z" fill="white"/>
<path d="M106.111 36.5497H102.992C102.17 36.5497 101.422 36.3471 100.748 35.9391C100.073 35.5326 99.5343 34.9882 99.1317 34.3073C98.7291 33.6264 98.5271 32.871 98.5271 32.041C98.5271 31.2152 98.7291 30.4612 99.1317 29.7775C99.5343 29.0938 100.073 28.5494 100.748 28.1428C101.422 27.7363 102.17 27.5323 102.992 27.5323H106.111V29.3372H102.992C102.498 29.3372 102.049 29.4582 101.644 29.7015C101.238 29.9449 100.916 30.2713 100.675 30.682C100.434 31.0928 100.314 31.5458 100.314 32.0396C100.314 32.539 100.434 32.992 100.675 33.4013C100.916 33.8107 101.24 34.1357 101.644 34.379C102.049 34.6224 102.498 34.7434 102.992 34.7434H104.331V32.719H104.107H102.095L102.768 30.9142H102.992H106.111V36.5497Z" fill="white"/>
<path d="M77.0525 16.329V23.6498H75.6008V16.329H77.0525Z" fill="#3282FA"/>
<path d="M79.5154 18.4319V23.6496H78.0637V16.3344H79.4443L83.6808 20.4647V16.3344H85.131V23.9099L79.5154 18.4319Z" fill="#3282FA"/>
<path d="M73.7953 21.2596L55.0994 20.2636C54.9671 20.2566 54.9671 20.1285 55.098 20.1215L73.7939 18.9806V21.2596H73.7953Z" fill="#3282FA"/>
<path d="M86.9397 18.9806L105.636 19.9766C105.768 19.9837 105.768 20.1117 105.637 20.1187L86.9411 21.2596V18.9806H86.9397Z" fill="#3282FA"/>
<path d="M19.8062 39.3584C30.394 39.3584 38.9771 30.6913 38.9771 19.9998C38.9771 9.30843 30.394 0.641327 19.8062 0.641327C9.21837 0.641327 0.635254 9.30843 0.635254 19.9998C0.635254 30.6913 9.21837 39.3584 19.8062 39.3584Z" fill="#33334B"/>
<path d="M21.7815 27.6767H17.6118C17.382 27.6767 17.1702 27.5515 17.0574 27.3489L15.7924 25.0657C15.621 24.7562 15.7311 24.3666 16.0362 24.1935C16.3427 24.0205 16.7286 24.1316 16.8999 24.4397L17.9824 26.3951H21.4151L29.8826 11.8238L9.71973 11.8351L14.5846 20.332L21.4039 20.3277L24.1986 15.4153H15.6433L16.6339 17.1977H20.8509C21.2019 17.1977 21.4861 17.4847 21.4861 17.8392C21.4861 18.1937 21.2019 18.4807 20.8509 18.4807H16.2619C16.032 18.4807 15.8203 18.3555 15.7088 18.1529L14.0064 15.0889C13.8963 14.8906 13.8977 14.6472 14.012 14.4517C14.1262 14.2547 14.3338 14.1352 14.5595 14.1352H25.2964C25.5234 14.1352 25.7324 14.2575 25.8453 14.4545C25.9581 14.6528 25.9595 14.8962 25.8467 15.0946L22.3234 21.29C22.2106 21.4883 22.0002 21.6121 21.7731 21.6121L14.2196 21.6177C13.9925 21.6177 13.7835 21.4954 13.6693 21.297L8.07026 11.5158C7.95742 11.3174 7.95603 11.0726 8.07026 10.8743C8.18311 10.6759 8.39347 10.5535 8.62055 10.5535L30.9915 10.5395C31.2186 10.5395 31.4289 10.6618 31.5418 10.8616C31.6546 11.0614 31.6532 11.3061 31.539 11.5045L22.3276 27.3588C22.2148 27.5557 22.0058 27.6767 21.7815 27.6767Z" fill="#3282FA"/>
<path d="M33.8114 5.85778C30.0708 2.08061 25.0959 0 19.8062 0C14.5165 0 9.54157 2.08061 5.80101 5.85778C2.06045 9.63494 0 14.6571 0 20C0 25.3415 2.06045 30.3651 5.80101 34.1422C9.54157 37.9194 14.5151 40 19.8062 40C25.0959 40 30.0708 37.9194 33.8114 34.1422C37.5519 30.3651 39.6124 25.3429 39.6124 20C39.6124 14.6571 37.5519 9.63494 33.8114 5.85778ZM6.69958 6.76514C10.2005 3.22994 14.855 1.28297 19.8062 1.28297C24.7574 1.28297 29.4118 3.22994 32.9128 6.76514C33.7765 7.63734 34.5442 8.57987 35.2101 9.58149L23.296 30.0345H16.3693L4.40091 9.58149C5.06822 8.57987 5.83584 7.63734 6.69958 6.76514ZM32.9128 33.2349C29.4118 36.7701 24.7574 38.717 19.8062 38.717C14.855 38.717 10.2005 36.7701 6.69958 33.2349C3.19864 29.6997 1.26915 24.9996 1.26915 20C1.26915 16.725 2.09667 13.5795 3.65001 10.8054L15.4652 30.9953C15.578 31.1894 15.7856 31.3076 16.0085 31.3076H23.6568C23.8797 31.3076 24.0873 31.188 24.2001 30.9939L35.961 10.8054C37.5157 13.5795 38.3418 16.725 38.3418 20C38.3418 24.9996 36.4137 29.6997 32.9128 33.2349Z" fill="#3282FA"/>
</svg>
